<?xml version="1.0" encoding="UTF-8"?><svg id="Layer_1" xmlns="http://www.w3.org/2000/svg" viewBox="0 0 500 500"><defs><style>.cls-1{fill:#c9a84c;}</style></defs><path class="cls-1" d="m446.02,237.48c-16.09-82.31-86.11-148.04-169.43-158.58,5.85-10.26,9.57-18.61,6.3-30.65-4.18-15.4-18.85-26.47-34.96-24.98-19.88,1.72-33.45,17.61-31.36,37.64.71,6.72,3.92,12.17,7.13,17.98-9.8.68-19.71,3.19-29.11,5.92-90.36,26.33-144.59,108.84-144.59,193.53,0,38.77,11.36,77.99,35.82,112.5,38.15,53.83,101.27,87.57,167.77,85.96,112.29-3.93,196.41-91.43,196.41-198.67,0-13.29-1.29-26.88-3.98-40.66h0ZM229.29,56.07c0-.34.02-.68.05-1.02s.06-.67.1-1.02c.05-.34.1-.67.15-1.01.06-.33.13-.66.2-1,.07-.33.16-.65.25-.98s.18-.65.29-.98c.11-.32.23-.64.34-.95.13-.32.25-.64.39-.94.14-.31.28-.62.44-.92.15-.31.32-.61.48-.9.17-.3.34-.59.53-.87.18-.29.37-.57.56-.85.2-.27.4-.54.61-.82.21-.26.43-.53.64-.78.23-.26.45-.51.69-.75.23-.25.47-.49.72-.73.25-.24.5-.46.75-.68.25-.23.52-.44.79-.64.26-.21.54-.42.82-.61.27-.2.55-.38.84-.57.29-.18.58-.35.87-.52.3-.17.6-.33.9-.48s.61-.3.92-.44c.32-.14.63-.27.94-.39.32-.13.64-.24.96-.34.32-.11.64-.21.97-.3s.65-.17.99-.25c.33-.08.66-.15,1-.2.33-.06.66-.11,1.01-.15.34-.05.67-.07,1.02-.1.34-.03.68-.05,1.02-.05h1.03c.34,0,.68.03,1.03.05.34.03.68.06,1.02.1.34.05.67.09,1.01.15.34.05.67.12,1.01.2.34.07.66.15.99.25.34.09.65.19.98.3.33.1.64.22.96.34.32.13.64.25.95.4.31.14.62.28.92.44.31.15.61.31.91.48.3.16.59.34.88.53.28.18.57.37.84.56.28.2.55.4.83.62.26.21.53.43.79.64.25.23.51.45.75.69.25.24.49.47.73.73.24.25.46.5.69.75.22.26.44.53.64.79.21.27.42.54.61.83.2.28.39.56.57.85s.35.58.53.88c.16.29.33.59.48.9.15.31.3.62.44.93s.26.63.39.94c.12.32.24.64.34.96.11.33.21.65.3.98.09.34.17.66.25,1,.07.33.15.66.2,1s.11.68.15,1.02c.05.34.07.68.1,1.02.03.34.04.68.05,1.03,0,.34,0,.68,0,1.02,0,.34-.03.69-.05,1.03-.03.34-.05.68-.1,1.02s-.09.68-.15,1.02-.13.66-.2,1c-.08.34-.16.66-.25.99-.09.34-.19.65-.3.98s-.23.64-.34.96c-.13.32-.26.64-.4.94-.14.31-.28.62-.44.93-.15.3-.31.6-.48.9s-.34.59-.53.87c-.19.29-.37.57-.57.85-.2.28-.41.55-.62.82-.21.27-.43.54-.65.79-.22.25-.45.51-.69.75s-.48.49-.73.73c-.25.23-.5.46-.76.68-.25.22-.52.44-.79.64-.27.21-.54.41-.83.61-.28.19-.56.38-.85.56s-.58.35-.88.52c-.3.17-.6.33-.91.48-.3.15-.61.3-.93.44-.31.14-.63.26-.94.38-.32.13-.64.24-.97.34-.32.1-.64.2-.98.29-.33.09-.65.17-.99.25s-.67.14-1.01.19-.67.1-1.01.15c-.34.04-.68.07-1.02.09-.34.03-.68.04-1.02.05-.34,0-.68,0-1.02,0-.34,0-.68-.03-1.02-.05-.34-.03-.68-.06-1.02-.1-.34-.05-.67-.1-1.01-.15-.34-.06-.66-.14-1-.21-.33-.07-.65-.16-.98-.25s-.65-.19-.97-.3c-.33-.11-.64-.22-.96-.34-.32-.13-.63-.25-.93-.4-.32-.14-.62-.28-.92-.44-.31-.15-.61-.32-.9-.48-.3-.17-.59-.34-.87-.53-.29-.19-.57-.37-.84-.57-.28-.2-.55-.4-.82-.61s-.53-.43-.78-.65c-.26-.22-.51-.45-.75-.68-.25-.24-.49-.48-.72-.73-.24-.25-.46-.5-.68-.75-.23-.26-.44-.53-.64-.79-.21-.27-.41-.54-.61-.83-.19-.27-.38-.55-.56-.84s-.35-.58-.52-.88c-.16-.29-.33-.59-.48-.9-.15-.3-.29-.61-.43-.92s-.27-.63-.39-.94-.24-.64-.34-.96c-.11-.32-.21-.64-.3-.97s-.17-.66-.25-.99c-.07-.34-.14-.66-.19-1-.06-.34-.11-.67-.15-1.01-.04-.34-.07-.67-.09-1.02-.03-.34-.05-.67-.05-1.02,0-.34,0-.68,0-1.02h0Zm207.92,229.43c-.14,3.07-.35,6.13-.64,9.18-.29,3.06-.66,6.1-1.1,9.14-.44,3.03-.95,6.05-1.54,9.07-.59,3-1.25,6-1.99,8.98-.73,2.99-1.53,5.94-2.41,8.88s-1.83,5.85-2.86,8.75c-1.03,2.89-2.11,5.75-3.29,8.59-1.16,2.84-2.4,5.64-3.69,8.42-1.31,2.78-2.68,5.52-4.11,8.23-1.43,2.71-2.94,5.38-4.51,8.01-1.57,2.64-3.19,5.24-4.89,7.79-1.7,2.56-3.46,5.07-5.27,7.54-1.82,2.47-3.7,4.89-5.64,7.27-1.94,2.38-3.94,4.7-5.99,6.98s-4.16,4.51-6.32,6.68c-2.17,2.18-4.38,4.3-6.64,6.37-2.27,2.06-4.58,4.07-6.95,6.03-2.36,1.95-4.77,3.85-7.23,5.68-2.46,1.83-4.96,3.6-7.51,5.32-2.54,1.71-5.13,3.36-7.75,4.95-2.63,1.58-5.29,3.09-8,4.56-2.7,1.45-5.44,2.84-8.2,4.16-2.77,1.32-5.56,2.57-8.39,3.75-2.83,1.18-5.69,2.3-8.58,3.34-2.88,1.03-5.79,2.01-8.72,2.9-2.93.9-5.89,1.72-8.86,2.48-2.98.75-5.96,1.43-8.97,2.04-3.01.61-6.03,1.13-9.06,1.6-3.04.45-6.08.83-9.13,1.14-3.05.31-6.11.54-9.18.71-3.06.15-6.12.24-9.18.25-3.07,0-6.13-.05-9.18-.2s-6.12-.36-9.17-.65c-3.05-.29-6.09-.65-9.12-1.1-3.03-.44-6.04-.95-9.05-1.54-3.01-.59-6-1.25-8.98-1.99-2.97-.74-5.93-1.55-8.86-2.43s-5.84-1.83-8.73-2.85c-2.89-1.03-5.74-2.12-8.58-3.29s-5.64-2.4-8.41-3.7c-2.77-1.3-5.51-2.67-8.21-4.1s-5.37-2.94-8-4.5c-2.63-1.57-5.23-3.2-7.78-4.89-2.55-1.7-5.05-3.45-7.52-5.27-2.47-1.82-4.88-3.68-7.26-5.63-2.37-1.93-4.7-3.93-6.97-5.98-2.28-2.04-4.5-4.15-6.68-6.31-2.17-2.16-4.28-4.37-6.35-6.63-2.06-2.26-4.07-4.57-6.02-6.93-1.95-2.37-3.85-4.77-5.68-7.22-1.83-2.46-3.6-4.96-5.31-7.5-1.71-2.54-3.36-5.12-4.94-7.74-1.59-2.62-3.1-5.28-4.56-7.98s-2.84-5.43-4.16-8.19c-1.32-2.76-2.57-5.55-3.76-8.39-1.18-2.82-2.29-5.67-3.33-8.56-1.04-2.88-2.01-5.78-2.91-8.71-.9-2.92-1.72-5.87-2.48-8.84s-1.43-5.95-2.04-8.96-1.14-6.02-1.61-9.05c-.46-3.02-.84-6.06-1.15-9.11-.32-3.04-.55-6.1-.71-9.16-.16-3.06-.25-6.12-.26-9.18,0-3.06.05-6.12.19-9.18.15-3.06.35-6.11.64-9.16s.65-6.09,1.09-9.12c.44-3.03.95-6.05,1.53-9.06.59-3,1.25-6,1.98-8.98.74-2.97,1.54-5.93,2.41-8.86.88-2.93,1.83-5.84,2.85-8.73,1.03-2.9,2.11-5.75,3.28-8.59,1.16-2.83,2.39-5.64,3.68-8.41s2.67-5.52,4.1-8.22,2.93-5.37,4.49-8c1.57-2.64,3.19-5.23,4.88-7.79,1.7-2.55,3.45-5.06,5.26-7.53,1.82-2.46,3.68-4.88,5.62-7.26s3.92-4.7,5.97-6.98,4.15-4.51,6.31-6.68c2.16-2.18,4.37-4.29,6.62-6.36,2.26-2.07,4.57-4.07,6.93-6.03,2.36-1.96,4.76-3.85,7.21-5.69,2.45-1.83,4.95-3.6,7.49-5.32s5.12-3.36,7.74-4.95c2.61-1.59,5.27-3.1,7.97-4.56,2.7-1.45,5.43-2.84,8.19-4.17,2.77-1.32,5.56-2.57,8.39-3.76s5.67-2.3,8.56-3.34c2.88-1.05,5.78-2.02,8.7-2.92,2.93-.91,5.87-1.73,8.84-2.5,2.97-.75,5.95-1.44,8.96-2.05s6.02-1.14,9.04-1.61c3.03-.47,6.07-.85,9.11-1.17,3.05-.32,6.1-.55,9.16-.72,3.07-.16,6.13-.25,9.19-.27,3.07,0,6.13.05,9.2.18,3.06.14,6.12.35,9.18.64,3.05.29,6.1.65,9.13,1.09,3.04.44,6.06.94,9.08,1.53,3,.58,6,1.24,8.98,1.97,2.98.74,5.94,1.54,8.88,2.41,2.94.88,5.85,1.82,8.75,2.85,2.9,1.02,5.75,2.11,8.59,3.27s5.64,2.4,8.42,3.69c2.79,1.3,5.53,2.67,8.24,4.1,2.7,1.43,5.38,2.93,8.02,4.5,2.63,1.56,5.23,3.19,7.79,4.88,2.56,1.7,5.07,3.45,7.54,5.26,2.48,1.82,4.9,3.69,7.28,5.64,2.38,1.93,4.71,3.92,6.99,5.97s4.51,4.16,6.69,6.32,4.3,4.37,6.37,6.63c2.07,2.27,4.08,4.58,6.04,6.94,1.95,2.36,3.85,4.77,5.69,7.22,1.83,2.46,3.61,4.96,5.32,7.51,1.72,2.54,3.37,5.13,4.96,7.75s3.11,5.28,4.56,7.99c1.46,2.7,2.85,5.43,4.17,8.19,1.32,2.77,2.58,5.56,3.77,8.39,1.18,2.83,2.3,5.69,3.34,8.57,1.04,2.89,2.01,5.79,2.92,8.72.9,2.93,1.72,5.89,2.49,8.86.75,2.98,1.43,5.96,2.04,8.97s1.14,6.03,1.61,9.06c.46,3.03.85,6.07,1.16,9.13.31,3.05.54,6.11.71,9.17s.25,6.13.26,9.19c0,3.07-.05,6.13-.2,9.19h0Z"/><path class="cls-1" d="m413.14,267.66c-.15-2.67-.37-5.34-.66-8-.28-2.66-.64-5.31-1.04-7.95-.42-2.64-.9-5.27-1.44-7.9-.54-2.61-1.15-5.22-1.82-7.8-.67-2.6-1.41-5.16-2.21-7.71s-1.66-5.08-2.59-7.6c-.93-2.51-1.91-4.99-2.95-7.46-1.04-2.46-2.15-4.89-3.32-7.31-1.16-2.4-2.39-4.78-3.67-7.13-1.28-2.34-2.61-4.66-4.01-6.94-1.4-2.28-2.85-4.53-4.36-6.73-1.5-2.21-3.06-4.38-4.67-6.53-1.61-2.13-3.28-4.22-4.99-6.28-1.71-2.05-3.48-4.06-5.29-6.03-1.82-1.96-3.67-3.88-5.58-5.76-1.91-1.87-3.86-3.69-5.85-5.47-2-1.78-4.04-3.51-6.12-5.19-2.09-1.68-4.21-3.3-6.37-4.87-2.16-1.58-4.37-3.1-6.6-4.56-2.23-1.47-4.51-2.88-6.82-4.23-2.31-1.36-4.65-2.66-7.02-3.89-2.37-1.24-4.76-2.42-7.2-3.55-2.42-1.12-4.87-2.19-7.36-3.19-2.48-1-4.98-1.94-7.51-2.82s-5.07-1.69-7.64-2.45c-2.57-.75-5.15-1.44-7.75-2.07-2.6-.63-5.21-1.19-7.84-1.69-2.62-.5-5.26-.93-7.91-1.3-2.65-.37-5.3-.68-7.97-.92s-5.34-.41-8-.52-5.35-.15-8.02-.13c-2.67.03-5.35.11-8.01.26s-5.34.38-8,.66-5.31.64-7.95,1.05c-2.64.42-5.27.9-7.89,1.44-2.62.54-5.23,1.15-7.81,1.82s-5.15,1.41-7.71,2.21c-2.55.8-5.08,1.66-7.59,2.59-2.51.92-5,1.91-7.46,2.95s-4.9,2.15-7.31,3.31c-2.4,1.16-4.78,2.39-7.13,3.67-2.34,1.29-4.66,2.62-6.94,4.02-2.28,1.39-4.53,2.84-6.73,4.35-2.21,1.51-4.38,3.07-6.52,4.67-2.14,1.62-4.23,3.28-6.28,4.99-2.05,1.72-4.07,3.48-6.03,5.29-1.97,1.82-3.89,3.68-5.76,5.58-1.88,1.91-3.7,3.86-5.48,5.85-1.78,2.01-3.5,4.04-5.18,6.13-1.68,2.08-3.3,4.2-4.88,6.36-1.57,2.16-3.09,4.37-4.56,6.6-1.46,2.24-2.88,4.51-4.23,6.82-1.35,2.31-2.65,4.64-3.89,7.02-1.23,2.37-2.41,4.76-3.54,7.19-1.13,2.43-2.19,4.88-3.19,7.36-1.01,2.49-1.94,4.98-2.82,7.51-.88,2.52-1.7,5.07-2.45,7.63-.75,2.57-1.44,5.15-2.07,7.75-.63,2.6-1.19,5.22-1.69,7.84-.5,2.63-.93,5.26-1.31,7.91s-.67,5.31-.91,7.97c-.25,2.67-.42,5.34-.53,8s-.15,5.35-.13,8.02c.03,2.67.12,5.35.27,8.01.15,2.67.37,5.34.65,8,.29,2.66.64,5.31,1.05,7.95s.9,5.27,1.44,7.89c.54,2.62,1.15,5.23,1.82,7.81.67,2.59,1.41,5.15,2.21,7.71.8,2.55,1.66,5.08,2.59,7.59.92,2.51,1.91,5,2.95,7.46s2.15,4.9,3.31,7.31c1.16,2.4,2.39,4.78,3.67,7.13,1.28,2.34,2.62,4.66,4.01,6.94,1.4,2.28,2.85,4.53,4.36,6.73,1.5,2.21,3.06,4.38,4.67,6.53,1.61,2.13,3.28,4.22,4.98,6.28,1.72,2.05,3.48,4.06,5.3,6.03,1.81,1.96,3.67,3.88,5.57,5.75,1.91,1.88,3.87,3.7,5.86,5.48,2,1.78,4.03,3.51,6.12,5.19,2.08,1.68,4.2,3.3,6.36,4.87,2.17,1.58,4.37,3.09,6.6,4.56,2.24,1.47,4.51,2.88,6.82,4.23,2.31,1.36,4.65,2.66,7.02,3.89,2.37,1.24,4.76,2.42,7.19,3.55,2.43,1.12,4.88,2.19,7.36,3.19,2.49,1,4.98,1.94,7.51,2.82,2.52.88,5.06,1.7,7.63,2.45,2.57.75,5.15,1.44,7.75,2.07s5.21,1.19,7.84,1.69c2.62.5,5.26.93,7.91,1.31s5.3.67,7.97.92c2.66.24,5.33.41,8,.52,2.67.11,5.35.15,8.02.13,2.67-.02,5.35-.11,8.01-.26s5.34-.37,8-.66c2.66-.28,5.31-.64,7.95-1.05,2.64-.41,5.27-.89,7.9-1.43,2.61-.54,5.22-1.15,7.8-1.82,2.6-.67,5.16-1.41,7.71-2.21s5.08-1.66,7.6-2.59c2.5-.93,4.99-1.91,7.46-2.95,2.46-1.04,4.89-2.15,7.31-3.31,2.4-1.17,4.78-2.39,7.13-3.67,2.34-1.29,4.66-2.62,6.94-4.02,2.28-1.39,4.53-2.84,6.74-4.35,2.21-1.51,4.38-3.07,6.52-4.67,2.13-1.62,4.23-3.28,6.28-4.99s4.06-3.48,6.03-5.29,3.88-3.68,5.76-5.58c1.87-1.91,3.7-3.86,5.48-5.85,1.78-2.01,3.5-4.04,5.18-6.13,1.68-2.08,3.3-4.2,4.88-6.36,1.57-2.16,3.09-4.37,4.56-6.6,1.46-2.24,2.88-4.51,4.23-6.82s2.65-4.65,3.89-7.02c1.24-2.37,2.42-4.76,3.54-7.2,1.13-2.42,2.19-4.88,3.19-7.36,1-2.48,1.94-4.98,2.82-7.51.87-2.53,1.69-5.07,2.45-7.64.75-2.57,1.44-5.15,2.07-7.75.63-2.6,1.19-5.21,1.69-7.84.5-2.62.93-5.26,1.31-7.91.36-2.65.67-5.3.91-7.97s.42-5.34.53-8c.1-2.67.15-5.35.12-8.02-.02-2.67-.11-5.35-.26-8.01h0Zm-12.97,2.33c-7.5-.02-16.4.67-23.62,0v12.78h23.62c.11,32.64-12.58,64.56-33.09,89.65-5.65-6.11-12.21-11.54-18.09-17.47-3.18,2.54-5.91,5.73-8.65,8.73,5.44,6.46,12.41,12.48,18.44,18.45l-.29.31c-25.06,25.93-65.84,44.59-101.62,45.23l-.42-.42v-27.23c-4.2-.12-8.42,0-12.62,0v27.23c-28.69.31-59.55-12.02-82.5-28.68-6.88-5-12.8-10.96-19.53-16.05l-.53-.39c5.69-6.75,13.1-12.1,19.27-18.45-2.5-3.09-5.44-5.89-8.19-8.73-6.72,5.27-13.24,11.53-19.39,17.47-20.15-27-33.74-54.7-33.52-89.65,2.7-.38,5.74-.05,8.49-.04l15.74.04v-12.78h-24.22c.67-23.53,15.3-72.83,34.75-88.63,6.86,4.39,11.66,11.64,18.17,16.55,2.4-3.17,4.99-5.91,8.19-8.27-4.33-5.2-12.46-13.54-17.72-17.61,18.43-25.58,69.45-44.82,99.34-45.33,3.49-.48,1.69,20.75,1.68,25.07h12.62v-25.07c31.35-.78,68.64,15.83,92.15,36.71,3.17,2.8,6.17,5.88,9.67,8.28l.51.34c-6.75,5.1-12.67,11.43-18.44,17.61,2.71,2.94,5.54,5.74,8.65,8.27,5.64-5.69,11.37-12.14,18.09-16.55,1.65,3.31,4.06,6.12,6.22,9.1,14.61,20.26,28.87,55.11,26.87,79.53h0Z"/><path class="cls-1" d="m316.43,202.2c-6.8,2.18-27.35,16.04-34.87,20.53l-34.35,20.83c-20.01,12.31-19.81,12.29-32.14,33.71l-30.13,52.3c-2.79,4.88-14.61,21.72-1.21,21.44,8.1-2.99,21.29-12.19,28.98-16.77l41.76-25.05c15.02-9.07,15.07-6.54,24.3-22.69l33.81-58.91c3.03-5.37,18.26-24.83,3.84-25.39h0Zm-103.66,117.42c-3.77,2.31-7.66,4.43-11.5,6.61,7.82-13.03,15.06-26.36,22.82-39.43,3.39,1.96,3.9,10.49,17.48,15.42-9.73,5.54-19.3,11.46-28.8,17.41h0Zm51.29-41.96c-.02.24-.04.47-.05.71-.03.24-.05.47-.09.71-.04.23-.07.46-.12.7-.05.23-.1.46-.16.69-.05.23-.12.45-.19.68-.06.23-.15.45-.22.68-.08.22-.17.44-.26.66-.09.22-.18.43-.29.64-.1.22-.2.43-.32.64-.11.21-.23.41-.34.62l-.38.6c-.14.2-.27.39-.42.58-.14.19-.28.37-.44.55-.15.18-.31.36-.46.54-.16.18-.33.35-.49.52-.17.16-.34.33-.52.49-.17.15-.35.31-.54.46-.18.15-.37.29-.56.44-.19.14-.38.27-.58.41-.2.13-.4.25-.6.37-.21.13-.41.25-.62.35-.21.11-.43.22-.64.32-.22.1-.44.2-.65.28-.22.09-.44.18-.66.25-.23.08-.44.15-.67.23-.23.06-.45.13-.69.19-.23.05-.46.1-.69.15-.24.05-.46.09-.7.13-.24.03-.47.06-.71.08-.24.03-.47.04-.71.05-.24,0-.47,0-.71,0s-.47,0-.71-.02c-.24,0-.47-.03-.71-.05-.24-.02-.47-.05-.7-.08-.24-.04-.47-.08-.7-.13-.24-.05-.46-.1-.69-.15-.24-.06-.46-.13-.69-.19-.22-.07-.44-.15-.67-.23-.22-.08-.44-.16-.66-.25-.22-.09-.43-.19-.64-.29-.21-.1-.43-.21-.64-.32-.21-.12-.41-.23-.62-.35-.2-.12-.4-.25-.6-.38-.19-.13-.38-.26-.57-.41-.19-.14-.38-.28-.56-.44s-.36-.31-.54-.46c-.17-.16-.34-.33-.51-.49-.17-.17-.34-.34-.49-.52-.16-.17-.31-.35-.46-.54-.15-.18-.29-.37-.44-.56-.14-.19-.27-.38-.41-.58-.13-.19-.25-.39-.38-.6-.12-.2-.24-.41-.34-.62-.11-.21-.22-.42-.32-.63-.1-.22-.2-.44-.29-.65-.08-.22-.17-.44-.25-.66-.07-.22-.15-.44-.22-.67-.06-.23-.13-.45-.19-.68-.05-.24-.11-.46-.15-.7-.05-.23-.08-.46-.12-.7-.04-.24-.06-.46-.08-.7-.03-.24-.05-.47-.05-.71s-.02-.47-.02-.71,0-.47.02-.71c0-.24.03-.47.05-.71s.05-.47.09-.71c.03-.24.07-.46.12-.7.05-.23.1-.46.15-.69.06-.23.13-.45.19-.68.07-.23.15-.45.23-.67.07-.23.16-.44.25-.66.09-.22.18-.44.29-.65.1-.21.2-.42.32-.63.11-.21.23-.42.34-.62.13-.21.25-.41.38-.6.14-.2.27-.39.41-.58.15-.19.29-.38.44-.56.15-.18.31-.35.46-.54.16-.17.33-.34.49-.51.17-.17.34-.34.52-.49.17-.16.35-.32.54-.46.18-.15.37-.3.56-.44.19-.15.38-.28.57-.41.2-.14.4-.26.61-.38.2-.12.41-.24.61-.34.21-.12.43-.22.64-.32.22-.11.44-.2.65-.29s.44-.17.66-.25c.22-.08.44-.15.67-.23l.68-.19c.23-.05.46-.11.69-.15.24-.05.47-.08.7-.12.24-.04.47-.06.71-.09.24-.02.47-.04.71-.05.24-.02.47-.02.71-.02s.47,0,.71.02c.25,0,.48.03.71.05.24.03.47.05.71.09s.47.07.7.12c.24.05.46.1.69.16.24.05.46.12.69.19.23.06.45.14.67.22.23.08.44.16.66.25.22.09.44.19.65.29.21.1.42.21.63.32.21.12.42.24.63.35.2.12.4.25.6.38.19.13.39.26.58.41.18.14.37.29.55.44.18.15.36.31.54.46.18.16.35.33.52.49.16.17.33.34.49.52.15.17.31.35.46.54.15.18.29.37.44.56.15.19.28.38.41.58l.38.6c.12.2.24.41.34.62.12.21.22.43.32.64.1.22.2.44.29.65s.17.44.25.66c.08.22.15.44.23.67.06.23.13.45.18.68.06.24.11.46.15.7.05.23.09.46.13.7.03.24.06.47.08.7.03.24.05.47.05.72,0,.24.02.47.02.71s0,.47-.02.71Zm11.83-10.5c-2.33-3.2-4.53-6.43-7.37-9.22-3.18-2.88-6.27-4.77-10.39-5.98,12.4-8.98,26.22-16.14,39.23-24.21l.27.05c.29,1.72-19.71,34.18-21.74,39.36Z"/></svg>