<?xml version="1.0" encoding="UTF-8"?><svg id="Layer_1" xmlns="http://www.w3.org/2000/svg" viewBox="0 0 499.22 500"><defs><style>.cls-1{fill:#c9a84c;}</style></defs><path class="cls-1" d="m241.7,49.85c-100.52,4.01-194.71,86.91-192.04,205.04,2.48,109.1,95.56,198.8,205.68,195.33,112.23-3.54,195.68-100.9,194.24-201.02,1.68-109.84-93.82-203.91-207.89-199.35Zm-121.55,63.99c4.87-4.9,10.16-9.35,15.87-13.27,1.27-.87,2.69-2.67,4.3-.7,4.89,5.99,10.27,3.08,15.25.62,7.56-3.74,15.43-6.23,23.6-8.2,4.88-1.19,7.11-.59,6.49,4.95-.3,2.68.19,5.46-1.33,7.92-1.76,2.83-3.67,4.73-6.69,1.21-4.13-4.82-8.88-4.48-14.1-1.78-9.27,4.8-17.52,11.31-27.22,15.46-4.92,2.1-5.4,7.07-2,11.63,2.48,3.32,4.94,6.27,5.56,10.83.68,4.98,5.39,6.19,9.58,3.03,4.71-3.57,8.02-8.49,11.8-12.95,1.77-2.08,3.51-3.93,6.37-4.78,4.86-1.44,7.91-.92,8.59,4.96.54,4.62,2.92,8.65,5.26,12.64,1.17,1.99,3.87,3.82,1.7,6.63-2.16,2.8-4.29,6.23-8.48,5.38-15.9-3.24-25.97,3.93-33.04,17.48-3.24,6.19-7.92,11.31-14.79,13.85-.78.29-1.56.71-2.16,1.26-7.78,7.05-15.66,11.23-27.41,10.26-11.61-.95-22.84,20.05-18.57,31.3,2.52,6.63,7.32,7.89,18.36,4.21-3.84,10.72,1.79,17.56,8.15,24.13-.86.34-1.38.67-1.5.56-8.69-7.73-17.64-15.22-25.91-23.4-3.85-3.79-3.48-9.65-4.04-14.85-4.8-44.8,16.54-78.42,46.36-108.38h0Zm50.4.47c-.19,1.8-1.33,2.38-2.5,2.81-7.45,2.74-13.4,7.36-17.82,13.96-1.08,1.61-2.61,2.52-3.69.16-.7-1.55-4.06-3.73-1.06-4.93,7.48-3,12.67-9.41,19.94-12.56,1.92-.83,3.81-1.83,5.12.56h0Zm261.42,177.09c-15.81,61.87-53.2,106.05-111.45,131.25-56.55,24.45-112.82,20.73-165.23-11.61-66.83-41.24-96.46-102.81-92.95-180.9,2.63-.31,2.3,1.39,2.56,2.43,2.32,9.02,7.41,15.77,15.94,19.81,5.92,2.8,8.78,8.86,13.4,12.88,8.48,7.4,11.47,14.59,8.57,26.44-3.1,12.61,6.1,22.82,13.36,32.57,1.99,2.66,4.5,4.94,6.87,7.3,4.76,4.73,7.44,10.34,8.58,17.01,3.19,18.56,9.62,35.84,20.75,51.26,6.26,8.65,14.65,13.46,24.93,15.4,3.03.58,5.94.56,7.43-2.88,1.36-3.13-.26-5.64-2.63-6.95-6.55-3.65-6.09-10.5-8.12-16.23-.6-1.68.53-2.76,1.57-3.8,6.36-6.34,9.74-13.94,10.11-22.95.1-2.51.71-5.09,3.68-5.99,9.89-2.97,13.36-10.91,14.72-19.95,1.08-7.2,3.43-13.6,7.4-19.71,5.09-7.82,3.67-13.7-3.59-19.7-6.79-5.62-14.95-7.29-23.33-8.12-4.45-.44-6.91-1.82-6.52-6.91.32-4.37-2.58-7.36-6.03-9.65-12.2-8.04-24.28-16.24-38.49-20.6-4.86-1.5-8.86-.02-12.28,2.69-3.67,2.92-6.02,2.59-8.44-1.17-.66-1.02-1.71-1.87-2.75-2.54-4.41-2.92-4.91-6.71-3.26-11.47,1.33-3.85,3.38-8.19-.74-11.59-3.82-3.16-8.38-3.85-12.96-1.79-4.47,2-5.42.75-4.61-3.82,1.82-10.16,9.75-14.76,19.73-11.35,2.17.75,2.01,2.44,2.47,3.89,1.05,3.39,1.75,6.89,2.91,10.23,1.14,3.28,3.78,4.45,7.04,3.51,3.43-.99,2.58-3.76,2.15-6.23-.18-1.03-.45-2.04-.72-3.05-2.64-10.02-.38-16.23,9.26-20.54,9.74-4.37,16.63-11.16,21.05-20.51,4.18-8.85,10.92-12.52,20.3-10.81,7.97,1.45,13.15-2.17,17.64-8,5.74-7.47,5.9-10.74-.13-18.22-4.42-5.48-4.45-12.52-7.14-18.59-.81-1.82.54-2.43,1.84-3.32,7.96-5.46,11.4-13.29,10.55-22.67-.44-4.9,1.53-7.43,5.57-9.09,4-1.64,5.25,2.36,7.62,3.93,2.97,1.96,1.27,4.33.06,6.55-3.15,5.71-5.95,11.56-6.22,18.23-.38,9.43,3,14,11.3,16.2,3.63.96,6.54.19,9.33-2.04,2.81-2.24,5.04-4.98,7.05-7.94,4.82-7.12,11.19-11.98,20.06-12.23,7.32-.2,12.12-3.73,15.4-9.95,1.36-2.59,2.98-5.05,4.33-7.64,4.08-7.79,3.16-12.22-5.04-14.66-19.69-5.88-39.67-10.74-60.23-3.59-.59.21-1.3.3-1.74.68-9.83,8.44-22.44,7.64-34,10.32-3.81.89-7.5,2.26-11.25,3.41,14.78-10.62,31.16-17.55,48.92-21.4,51.23-11.12,99.27-3.16,144.03,24.1,2.35,1.43,7.15,2.19,5.4,6.3-2.04,4.8-1.26,11.99-9.87,12.32-5.46.21-9.95-.13-14.51-3.71-8.8-6.91-17.43-5.84-25.18,2.03-5.65,5.74-9.22,13.3-16.82,17.43-3.69,2.01-2.03,10.66,1.92,16.03.99,1.35,5.4,2.3,1.65,5.04-2.83,2.07-4.14-.79-5.3-2.59-1.8-2.79-3.29-5.8-4.86-8.74-2.82-5.25-6.82-6.39-11.17-2.63-5.69,4.91-9,11.46-11.15,18.57-.5,1.63-.54,3.76.99,4.66,4.62,2.72,4.41,10.25,11.2,10.85,1.77.16,2.11,2.66,2.07,4.21-.06,2.02-2.12,1.54-3.44,1.74-8.02,1.22-12.67,5.69-13.96,13.42-.18,1.03-.38,2.06-.55,3.09-1.32,8.25,1.88,13.44,9.6,15.57-10.86,6.67-17.77,17.28-25.41,26.85-7.7,9.66-5.75,33.35,1.59,43.4,2.98,4.07,6.59,7.55,10.15,11.09,6.59,6.52,14.23,8.4,23.02,5.65,4.44-1.39,8.9-2.24,13.58-1.83,3.85.34,5.83,2.02,4.81,6.11-1.82,7.32.43,13.59,4.88,19.33,3.85,4.95,4.31,9.96,1.28,15.72-3.81,7.27-4.44,15.15-2.68,23.2,2.09,9.61,4.27,19.2,8.27,28.23,3.61,8.14,9.48,10.16,17.35,5.86,4.77-2.62,9.66-4.94,14.53-7.34,8.93-4.43,12.85-12.72,15.56-21.75,1.71-5.71,3.09-11.69,9.82-14.94,0,5.04-.06,9.55.02,14.07.06,3.54,1.15,6.59,4.81,8.05,3.97,1.59,7.41.69,10.3-2.32,9.01-9.41,13.73-20.83,15.13-33.64.36-3.3,0-6.92-3.62-8.69-3.89-1.9-6.78.21-9.47,2.8-1.18,1.13-2.51,2.1-4.07,3.4-3.37-10.74-3.77-20.04,5.7-27.98,6.53-5.48,12.32-11.94,16.11-19.85,1.38-2.88,3.16-6.16,1.74-8.97-2.68-5.3-.03-7.49,3.8-10.37,5.7-4.26,9.24-10.1,9.69-17.54.11-1.88-1.41-4.95,2.55-5.2,3.44-.22,4.05,2.31,4.83,4.7,3.61,10.99,5.39,22.32,6.37,33.81.2,2.29.02,5.14,2.24,6.23,4.21,2.06,3.33,5.07,2.48,8.39h0Zm-315.05-18.69c-.63-3.43,2.92-3.01,4.03-4.71,6.41-9.75,14.04-5.33,21.14-1.53,7.71,4.12,14.95,9.12,22.48,13.58,2.23,1.31,2.27,3.12,2.38,5.28.41,7.63,4.51,12.07,12.13,13.64,6.48,1.34,13.35.87,19.43,4.22,4.29,2.36,6.2,4.91,3.01,9.83-4.23,6.54-6.55,13.89-7.72,21.66-.86,5.8-3.12,10.44-9.49,12.69-6.51,2.3-9.68,7.84-9.75,14.71-.07,7.32-2.41,13.46-7.9,18.37-5.31,4.75-4.07,10.3-1.93,16.13-12.68-12.28-18.69-27.77-21.62-44.36-2.2-12.43-6.87-23.07-16.01-31.77-4.28-4.07-7.18-9.17-10.26-14.16-4.6-7.46-5.44-15.12-2.2-23.33,1.29-3.25,2.94-6.58,2.26-10.26Zm94.66-191.77c8.11-.83,14.05-.85,20,.1,8.85,1.41,17.68,2.96,26.55,4.33,3.06.46,3.86,1.36,2.32,4.42-3.09,6.11-6.83,10.5-14.54,10.63-8.23.14-14.43,4.9-19.69,10.87-1.65,1.88-3.08,3.96-4.79,5.78-2.05,2.17-3.96,6.3-7.12,4.78-2.83-1.37-1.45-5.66-1.42-8.71.03-2.81,1.3-5.28,2.67-7.6,4.98-8.4,6.4-16.42-3.97-24.58h0Zm65.34,76.37c-3.55,1.78-3.39-1.87-4.17-3.58-1.99-4.33-.3-8.07,3.03-12.4,1.63,3.61,2.52,6.66,4.24,9.13,3.01,4.35-.51,5.55-3.09,6.84h0Zm105.88,180.29c-1.27,6.81-4.94,11.87-8.97,18.16-1.6-13.84-.97-15.09,8.97-18.16Zm53.72-80.55l-.89.02c-2.01-6.53-4.04-13.06-6.05-19.59-1.98-6.46-5.83-10.36-13.06-10.42-3.31-.03-6.63-1.33-9.91-1.22-4.5.16-8.09-.83-11.09-4.37-1.29-1.53-3.24-2.67-5.1-3.53-2.8-1.28-5.28-.17-7.43,1.8-2.17,2-1.52,4.29-.31,6.29,2.7,4.46,5.52,8.87,8.56,13.11,2.2,3.08,5.79,3.09,9.15,3.02,3.46-.08,3.77,1.79,3.08,4.45-1.43,5.45-15.9,16.14-21.51,15.95-2.5-.08-2.2-2.24-2.68-3.63-3.54-10.14-8.86-19.37-14.34-28.52-.75-1.25-1.64-2.43-2.6-3.52-2.01-2.27-4.54-2.12-6.87-.83-2.59,1.43-2.15,3.79-1.04,6.03,3.51,7.13,6.98,14.27,10.6,21.34,3.14,6.14,6.63,12.11,7.56,19.13.46,3.57,2.94,4.82,6.23,4.86,2.92.04,5.83,0,9.21,0-.7,3.41-3.12,5.37-5.15,7.54-5.01,5.34-10.58,10.14-14.94,16.07-3.86,5.24-7.15,11.45-4.86,17.5,3.53,9.35-1.41,14.19-7.54,18.88-5.57,4.25-10.05,9.57-10.82,16.33-1.72,14.95-12.81,19.86-24.32,24.79-2.55,1.1-4.05.43-4.88-1.97-4.99-14.37-11.11-28.52-4.29-44.19,3.08-7.08,2.54-14.55-2.28-20.86-3.85-5.04-4.94-10.26-4.21-16.42,1-8.6-1.25-11.63-9.65-14.17-7.46-2.27-15-1.8-22.19.83-4.62,1.7-8.04.91-11.23-2.54-1.14-1.23-2.37-2.39-3.72-3.37-13.41-9.8-11.61-23.24-8.9-36.91.48-2.41,2.24-3.93,3.85-5.58,2.76-2.85,6.19-5.38,8-8.76,4-7.45,10.38-10.36,18.11-11.66,2.67-.45,5.28-1.27,7.9-2,5.99-1.69,10.64-1.97,16.01,3.61,6.16,6.41,14.53,11.79,24.57,5.46,2.01-1.27,4.54-.37,6.77.11,8.24,1.78,16.24-.42,24.21-1.7,4.5-.73,6.66-4.8,7.54-9.13.85-4.17-1-7.28-4.37-9.66-4.67-3.3-9.85-2.96-15.1-2.24-1.47.19-3.08.54-3.8-1.22-.79-1.91,1.01-2.5,2.09-3.33,6.07-4.65,12.73-4.78,19.53-2.11,2.15.84,4.05,2.08,6.51,1.67,2.32-.39,4.65-.86,5.66-3.31,1.14-2.75-.99-4.2-2.61-5.77-1.05-1.02-2.76-1.75-3.18-2.96-4.63-13.01-15.36-9.93-24.82-9.19-6.01.47-8.94,5.74-11.84,10.34-4.12,6.55-4.09,6.6-9.58.81-1.87-1.97-3.81-3.89-5.84-5.69-6.32-5.64-7.47-4.45-15.38-1.57-10.82,3.93-18.63,10.74-25.44,19.41-2.97,3.79-6.83,1.35-9.85.5-3.54-.99-.16-3.72-.12-5.68.12-5.75,3.29-7.36,8.77-7.79,9.29-.74,11.47-4.09,8.65-12.85-1.15-3.55,0-4.82,2.6-6.38,6.8-4.08,13.26-7.46,22.03-7.06,16.39.76,23.2-10.59,16.88-26.23-.46-1.14-.26-1.98-.02-2.93.76-3.02.03-5.53-2.91-6.79-2.84-1.22-5.34.03-7.39,2.04-3.34,3.3-4.7,7.87-7.22,11.69-3.44,5.19-8.25,5.3-10.81.42-.59-1.14-1.46-2.56.3-3.07,5.99-1.76,7.59-7.44,10.76-11.68,6.83-9.13,10.97-10.12,19.45-2.76,4.66,4.04,8.96,5.57,14.7,3.49,1.94-.71,4.13-1.13,6.16-1.03,7.64.38,11.59-3.55,12.99-10.62,1.02-5.13,2.93-5.27,6.77-1.96,31.62,27.33,53.44,60.64,62.85,101.7,3.15,13.73,4.68,27.6,4.67,41.67,0,2.63-.38,5.26-.58,7.88h0Zm-148.51-57.96c.86-2.72,2.86-4.56,4.88-6.3,6.19-5.31,7.94-5.04,12.46,1.47,3.39,4.86,6.59,10.36,13.98,6.18,1.55-.87,2.22.1,3.09,1.03,1.03,1.09,2.66,2.5,3.77,1.71,5.95-4.26,9.94,1.14,14.78,2.51,4.02,1.15,8.28,1.51,12.36,2.78-5.4,2.14-10.85,2.43-16.39,1.62-5.4-.79-10.58-1.19-15.98,1.07-4.7,1.96-9.37-1.09-11.07-4.82-3.73-8.2-9.5-8.95-16.98-7.09-1.49.38-3.21.89-4.92-.14h0Z"/><path class="cls-1" d="m382.8,337.6c-1.27,6.81-4.94,11.87-8.97,18.16-1.6-13.84-.97-15.09,8.97-18.16Z"/><path class="cls-1" d="m260.44,89.79c-3.09,6.11-6.83,10.5-14.54,10.63-8.23.14-14.43,4.9-19.69,10.87-1.65,1.88-3.08,3.96-4.79,5.78-2.05,2.17-3.96,6.3-7.12,4.78-2.83-1.37-1.45-5.66-1.42-8.71.03-2.81,1.3-5.28,2.67-7.6,4.98-8.4,6.4-16.42-3.97-24.58,8.11-.83,14.05-.85,20,.1,8.85,1.41,17.68,2.96,26.55,4.33,3.06.46,3.86,1.36,2.32,4.42h0Z"/><path class="cls-1" d="m185.67,97.23c-.3,2.68.19,5.46-1.33,7.92-1.76,2.83-3.67,4.73-6.69,1.21-4.13-4.82-8.88-4.48-14.1-1.78-9.27,4.8-17.52,11.31-27.22,15.46-4.92,2.1-5.4,7.07-2,11.63,2.48,3.32,4.94,6.27,5.56,10.83.68,4.98,5.39,6.19,9.58,3.03,4.71-3.57,8.02-8.49,11.8-12.95,1.77-2.08,3.51-3.93,6.37-4.78,4.86-1.44,7.91-.92,8.59,4.96.54,4.62,2.92,8.65,5.26,12.64,1.17,1.99,3.87,3.82,1.7,6.63-2.16,2.8-4.29,6.23-8.48,5.38-15.9-3.24-25.97,3.93-33.04,17.48-3.24,6.19-7.92,11.31-14.79,13.85-.78.29-1.56.71-2.16,1.26-7.78,7.05-15.66,11.23-27.41,10.26-11.61-.95-22.84,20.05-18.57,31.3,2.52,6.63,7.32,7.89,18.36,4.21-3.84,10.72,1.79,17.56,8.15,24.13-.86.34-1.38.67-1.5.56-8.69-7.73-17.64-15.22-25.91-23.4-3.85-3.79-3.48-9.65-4.04-14.85-4.8-44.8,16.54-78.42,46.36-108.38,4.87-4.9,10.16-9.35,15.87-13.27,1.27-.87,2.69-2.67,4.3-.7,4.89,5.99,10.27,3.08,15.25.62,7.56-3.74,15.43-6.23,23.6-8.2,4.88-1.19,7.11-.59,6.49,4.95Z"/><path class="cls-1" d="m201.53,313.03c-4.23,6.54-6.55,13.89-7.72,21.66-.86,5.8-3.12,10.44-9.49,12.69-6.51,2.3-9.68,7.84-9.75,14.71-.07,7.32-2.41,13.46-7.9,18.37-5.31,4.75-4.07,10.3-1.93,16.13-12.68-12.28-18.69-27.77-21.62-44.36-2.2-12.43-6.87-23.07-16.01-31.77-4.28-4.07-7.18-9.17-10.26-14.16-4.6-7.46-5.44-15.12-2.2-23.33,1.29-3.25,2.94-6.58,2.26-10.26-.63-3.43,2.92-3.01,4.03-4.71,6.41-9.75,14.04-5.33,21.14-1.53,7.71,4.12,14.95,9.12,22.48,13.58,2.23,1.31,2.27,3.12,2.38,5.28.41,7.63,4.51,12.07,12.13,13.64,6.48,1.34,13.35.87,19.43,4.22,4.29,2.36,6.2,4.91,3.01,9.83Z"/><path class="cls-1" d="m437.1,249.17c0,2.63-.38,5.26-.58,7.88l-.89.02c-2.01-6.53-4.04-13.06-6.05-19.59-1.98-6.46-5.83-10.36-13.06-10.42-3.31-.03-6.63-1.33-9.91-1.22-4.5.16-8.09-.83-11.09-4.37-1.29-1.53-3.24-2.67-5.1-3.53-2.8-1.28-5.28-.17-7.43,1.8-2.17,2-1.52,4.29-.31,6.29,2.7,4.46,5.52,8.87,8.56,13.11,2.2,3.08,5.79,3.09,9.15,3.02,3.46-.08,3.77,1.79,3.08,4.45-1.43,5.45-15.9,16.14-21.51,15.95-2.5-.08-2.2-2.24-2.68-3.63-3.54-10.14-8.86-19.37-14.34-28.52-.75-1.25-1.64-2.43-2.6-3.52-2.01-2.27-4.54-2.12-6.87-.83-2.59,1.43-2.15,3.79-1.04,6.03,3.51,7.13,6.98,14.27,10.6,21.34,3.14,6.14,6.63,12.11,7.56,19.13.46,3.57,2.94,4.82,6.23,4.86,2.92.04,5.83,0,9.21,0-.7,3.41-3.12,5.37-5.15,7.54-5.01,5.34-10.58,10.14-14.94,16.07-3.86,5.24-7.15,11.45-4.86,17.5,3.53,9.35-1.41,14.19-7.54,18.88-5.57,4.25-10.05,9.57-10.82,16.33-1.72,14.95-12.81,19.86-24.32,24.79-2.55,1.1-4.05.43-4.88-1.97-4.99-14.37-11.11-28.52-4.29-44.19,3.08-7.08,2.54-14.55-2.28-20.86-3.85-5.04-4.94-10.26-4.21-16.42,1-8.6-1.25-11.63-9.65-14.17-7.46-2.27-15-1.8-22.19.83-4.62,1.7-8.04.91-11.23-2.54-1.14-1.23-2.37-2.39-3.72-3.37-13.41-9.8-11.61-23.24-8.9-36.91.48-2.41,2.24-3.93,3.85-5.58,2.76-2.85,6.19-5.38,8-8.76,4-7.45,10.38-10.36,18.11-11.66,2.67-.45,5.28-1.27,7.9-2,5.99-1.69,10.64-1.97,16.01,3.61,6.16,6.41,14.53,11.79,24.57,5.46,2.01-1.27,4.54-.37,6.77.11,8.24,1.78,16.24-.42,24.21-1.7,4.5-.73,6.66-4.8,7.54-9.13.85-4.17-1-7.28-4.37-9.66-4.67-3.3-9.85-2.96-15.1-2.24-1.47.19-3.08.54-3.8-1.22-.79-1.91,1.01-2.5,2.09-3.33,6.07-4.65,12.73-4.78,19.53-2.11,2.15.84,4.05,2.08,6.51,1.67,2.32-.39,4.65-.86,5.66-3.31,1.14-2.75-.99-4.2-2.61-5.77-1.05-1.02-2.76-1.75-3.18-2.96-4.63-13.01-15.36-9.93-24.82-9.19-6.01.47-8.94,5.74-11.84,10.34-4.12,6.55-4.09,6.6-9.58.81-1.87-1.97-3.81-3.89-5.84-5.69-6.32-5.64-7.47-4.45-15.38-1.57-10.82,3.93-18.63,10.74-25.44,19.41-2.97,3.79-6.83,1.35-9.85.5-3.54-.99-.16-3.72-.12-5.68.12-5.75,3.29-7.36,8.77-7.79,9.29-.74,11.47-4.09,8.65-12.85-1.15-3.55,0-4.82,2.6-6.38,6.8-4.08,13.26-7.46,22.03-7.06,16.39.76,23.2-10.59,16.88-26.23-.46-1.14-.26-1.98-.02-2.93.76-3.02.03-5.53-2.91-6.79-2.84-1.22-5.34.03-7.39,2.04-3.34,3.3-4.7,7.87-7.22,11.69-3.44,5.19-8.25,5.3-10.81.42-.59-1.14-1.46-2.56.3-3.07,5.99-1.76,7.59-7.44,10.76-11.68,6.83-9.13,10.97-10.12,19.45-2.76,4.66,4.04,8.96,5.57,14.7,3.49,1.94-.71,4.13-1.13,6.16-1.03,7.64.38,11.59-3.55,12.99-10.62,1.02-5.13,2.93-5.27,6.77-1.96,31.62,27.33,53.44,60.64,62.85,101.7,3.15,13.73,4.68,27.6,4.67,41.67h0Z"/></svg>