<?xml version="1.0" encoding="UTF-8"?><svg id="Layer_1" xmlns="http://www.w3.org/2000/svg" viewBox="0 0 500 500"><defs><style>.cls-1{fill:#c9a84c;}</style></defs><path class="cls-1" d="m449.87,209.39l.13-51.44c0-.3-.03-.59-.1-.89.05-1.47-.79-2.75-2.23-3.36-19.45-8.21-38.57-17.97-57.07-27.41-12.96-6.61-26.35-13.45-39.78-19.71-.82-.81-1.9-1.25-3.03-1.21-1.21-.16-2.44.25-3.34,1.12-18.92,8.09-37.5,17.58-55.48,26.75-12.63,6.44-25.69,13.1-38.74,19.22-13.05-6.11-26.11-12.78-38.74-19.22-17.97-9.17-36.56-18.65-55.48-26.75-.9-.87-2.12-1.28-3.34-1.12-1.12-.03-2.2.4-3.02,1.21-13.43,6.27-26.83,13.1-39.78,19.71-18.5,9.44-37.63,19.2-57.07,27.41-1.45.61-2.29,1.89-2.24,3.36-.06.29-.1.58-.1.88l.29,116.35c-1.06,2.45-.76,5.82-.5,8.81.09,1.05.17,2.04.18,2.79l.17,104.91c0,1.33.62,2.49,1.68,3.2.67.44,1.47.67,2.28.67.59,0,1.18-.12,1.74-.36,19.57-8.26,38.77-18.06,57.33-27.52,12.82-6.54,26.05-13.3,39.3-19.49,31.66,13.6,91.43,44.56,93.52,45.65.25.14,1.11.64,2.28,1.12.97.4,2.07.36,3-.1.75-.38,1.12-.53,1.46-.67.21-.09.41-.17.67-.29,13.11-6.14,26.2-12.82,38.87-19.28,16.98-8.67,34.53-17.62,52.29-25.35.8.21,1.67.18,2.47-.1.36-.13.69-.3.98-.51,12.92,6.06,25.83,12.65,38.33,19.03,18.57,9.47,37.76,19.26,57.33,27.52,1.89.8,3.99.12,5.12-1.65.8-1.27.83-2.75.16-3.89l.45-179.38ZM58.34,159.87c18.87-8.08,37.39-17.53,55.31-26.67,11.8-6.02,23.98-12.23,36.17-18.01l.23,87.57c-7.03-5.5-14.8-9.74-23.15-12.63-7.59-2.61-15.49-3.89-23.35-3.89-16.34,0-32.47,5.51-45.1,15.84l-.1-42.22Zm.13,51.56c.43-.17.83-.43,1.19-.77,16.31-15.58,41.1-21.17,63.17-14.25,9.94,3.12,19.34,8.59,27.25,15.85l.2,77c-7.83-.21-15.07-1.21-19.5-7.26-1.85-2.51-3.16-5.32-4.55-8.29-1.97-4.2-4.01-8.55-7.67-12.05-6.49-6.21-14.7-8.07-20.44-8.54-1.02-.09-2.05-.13-3.09-.13-6.78,0-13.89,1.77-21.19,5.28-3.9,1.87-7.87,4.26-12.51,7.51-.86.6-1.75,1.24-2.7,1.93l-.14-56.29Zm91.82,128.2c-1.12.46-2.27,1.09-3.3,1.65-.63.35-1.23.68-1.73.92-2.52,1.19-5.04,2.4-7.54,3.62-8.17,3.97-16.16,8.02-25.65,12.89-16.32,8.37-34.72,17.81-53.17,25.91l-.27-107.08c12.81-9.78,25.57-18.25,40.31-16.43,7.98.98,14.36,5.01,17.96,11.33,1,1.74,1.85,3.57,2.75,5.5,1.94,4.19,3.95,8.52,7.55,11.93,6.49,6.15,14.87,7.14,23.07,7.3l.11,42.38s-.07.04-.1.06Zm7.41-223.82c16.97,7.51,33.75,16.06,50,24.35,12.47,6.36,25.35,12.93,38.26,18.99.25.39.55.73.9,1.02l.11,41.42c-24.18,1.77-45.76,16-56.98,37.62-4.77-1.02-8.52-2.78-11.75-5.5-4.54-3.83-8.08-8.52-11.83-13.49-2.65-3.5-5.37-7.1-8.47-10.37l-.24-94.04Zm.27,105.14c1.1,1.4,2.17,2.82,3.22,4.22,3.37,4.48,6.87,9.11,11.17,13,4.06,3.68,8.86,6.21,14.61,7.67-3.19,8.12-4.81,16.68-4.81,25.47,0,12.66,3.49,22.61,8.45,32.38-3.74-5.07-8.78-9.05-14.53-11.43-5.69-2.36-11.74-2.8-17.95-2.91l-.17-68.4Zm15.39,126.76c-1.88-.86-3.74-1.81-5.71-2.8-3.05-1.54-6.18-3.12-9.38-4.4l-.11-43.26c2.84.03,5.74.15,8.45.56,7.18,1.09,13.47,4.85,17.69,10.6,3.75,5.12,4.42,10.44,5.18,16.6.13,1.02.26,2.06.4,3.11.63,4.51,2.04,7.83,4.45,10.41,1.45,1.54,3.09,2.79,4.68,4,1.58,1.2,3.06,2.32,4.31,3.69,4.67,5.09,7.33,11.82,7.54,18.81l-37.51-17.31Zm45.11,22.66c.83-7.45-.44-14.82-3.72-21.34-1.81-3.6-4.29-6.98-7.16-9.74-1.13-1.09-2.38-2.04-3.6-2.95-2.42-1.83-4.72-3.56-5.63-6.16-.78-2.19-.93-4.59-1.09-7.15-.1-1.57-.2-3.2-.46-4.81-.33-2.08-.88-4.12-1.62-6.11.9,1.58,1.83,3.18,2.76,4.81l35.08,60.78c-4.4-2.18-9.16-4.58-14.57-7.33Zm32.93,9.66c-.92,1.36-2.45,2.13-4.07,2.08h0c-1.63-.06-3.1-.94-3.91-2.35l-37.46-64.92-1.1-1.91c-7.9-13.66-14.72-25.45-14.72-41.62,0-34.15,27.79-61.94,61.95-61.94s61.94,27.79,61.94,61.94c0,5.46-.57,15.71-4.39,23.05-2.53,4.87-6.16,9.73-9.68,14.42-1.96,2.62-3.99,5.34-5.81,8.04l-42.73,63.21Zm21.69-5.5c-4.65,2.31-9.03,4.5-12.59,6.27l31.26-46.25c8.7,5.96,14.8,13.01,18.54,21.46-10.31,5.12-25.1,12.48-37.22,18.52Zm69.07-33.47c-7.84,3.41-16.18,7.27-25.39,11.76-4.27-9.43-10.8-17.41-18.95-23.16-.59-.41-1.21-.83-1.89-1.27l4.8-7.1c1.72-2.54,3.6-5.06,5.6-7.74,3.71-4.95,7.53-10.07,10.36-15.51,4.37-8.4,5.29-19.17,5.29-26.72,0-37.44-29.94-68.37-67.14-69.84l-.11-42.44c5.58-2.62,11.56-5.53,18.18-8.82-1.12,12.87,6.27,26.14,14.95,33.28,4.72,3.89,10.5,6.12,16.09,8.29,9.01,3.48,17.52,6.77,20.69,16.54,1.2,3.69,1.77,7.48,2.38,11.49.69,4.55,1.4,9.26,3.1,13.78,2.77,7.33,6.99,13.59,12.25,18.16l-.23,89.31Zm.25-99.3c-2.34-3.02-4.29-6.53-5.73-10.35-1.6-4.23-2.27-8.6-2.99-13.24-.45-2.96-.92-6.03-1.66-9.05-1.84-7.53-5.68-13.32-11.41-17.22-4.24-2.88-9.01-4.66-13.62-6.38-1.57-.59-3.2-1.19-4.75-1.82-8.16-3.32-13.81-8.1-17.77-15.07-2.61-4.59-6.53-13.52-3.81-22.34,3.96-2,7.92-4.02,11.88-6.04,12.7-6.48,25.79-13.16,38.94-19.32-2.42,9.34-1.01,19.45,3.99,27.85,1.77,2.98,4.06,5.64,7.14,8.32l-.21,84.65Zm.25-95.95c-5.2-8.47-5.96-19.07-1.75-28.34.14-.32.23-.63.27-.95.51-.24,1.04-.47,1.56-.7l-.08,29.99Zm98.99,192.63l-.11,46.2c-17.31-7.61-34.41-16.32-50.97-24.78-12.95-6.61-26.34-13.43-39.75-19.69-.24-.23-.49-.43-.76-.59l.21-82.75c4.36,1.98,9.26,3.03,14.89,3.22,1.49.05,3,.05,4.46.04,3.7,0,7.2,0,10.63.7,4.55.96,8.78,3.18,12.32,5.24,1.19.69,2.37,1.39,3.54,2.1,6.84,4.08,13.9,8.3,22.38,9.58,7.87,1.2,15.87.18,23.33-2.91l-.17,63.63Zm.18-71.22c-7.39,3.73-15.68,4.98-23.49,3.5-6.72-1.28-12.41-4.71-18.45-8.35-1.08-.65-2.15-1.3-3.24-1.94-7.86-4.62-14.58-6.83-21.8-7.17-1.69-.08-3.38-.1-5.02-.13-7-.13-13.62-.25-19.55-4.05l.22-85.98c5.77,4.34,9.19,9.76,12.49,16.51,5.29,10.8,12.44,21.81,25.05,21.52,7.51-.17,13.22-4.36,18.74-8.4,2.86-2.1,5.55-4.08,8.47-5.51,3.11-1.54,5.89-1.97,8.98-1.42,1.47.26,2.9.71,4.41,1.19,2.1.66,4.26,1.34,6.62,1.53,2.37.2,4.7-.08,6.76-.77l-.21,79.48Zm.23-88.94c-.14.21-.25.44-.33.68-1.33,3.84-4.96,3.51-12.57,1.31-2.5-.72-4.86-1.4-6.84-1.47-4.76-.16-9.55,1.41-15.07,4.93-1.79,1.15-3.52,2.42-5.18,3.65-2.87,2.11-5.57,4.11-8.6,5.54-8.2,3.86-14.27-1.74-17.17-5.42-2.53-3.22-4.31-6.88-6.19-10.76-1.34-2.76-2.72-5.62-4.41-8.29-3.39-5.39-7.87-8.69-12.6-12.17-.85-.63-1.71-1.26-2.57-1.92l.1-39.15c12.19,5.78,24.36,11.99,36.17,18.01,17.92,9.14,36.44,18.59,55.32,26.67l-.05,18.38Z"/><path class="cls-1" d="m252.09,231.47c-18.76,0-34.03,15.27-34.03,34.03s15.26,34.03,34.03,34.03,34.03-15.26,34.03-34.03-15.26-34.03-34.03-34.03Zm0,60.09c-14.38,0-26.07-11.69-26.07-26.07s11.69-26.06,26.07-26.06,26.06,11.69,26.06,26.06-11.69,26.07-26.06,26.07Z"/></svg>