<?xml version="1.0" encoding="UTF-8"?><svg id="Layer_1" xmlns="http://www.w3.org/2000/svg" viewBox="0 0 500 500"><defs><style>.cls-1{fill:#c9a84c;}</style></defs><path class="cls-1" d="m444.74,244.36c-18.14,0-27.54,7.89-35.83,14.85-6.48,5.43-12.23,10.26-21.94,11.84,2.01-29.76-5.05-55.95-20.55-76.08-7.47-9.7-16.76-17.79-27.62-24.07-.62-.36-1.25-.72-1.88-1.06-.96-.53-1.94-1.05-2.92-1.54-10.95-4.93-22.44-8.49-34.22-10.61-.89-.16-1.78-.31-2.66-.45-7.74-1.25-15.6-1.86-23.46-1.85-7.78-8.13-16.42-15.21-25.62-20.98-14.14-8.86-29.34-14.49-45.16-16.72-17.62-2.49-35.84-.72-54.17,5.26-2.88.94-4.74,3.7-4.52,6.72.22,3.02,2.46,5.49,5.45,6.01,20.06,3.45,34.66,10.25,43.38,20.19,6.95,7.94,10.38,17.89,10.38,30.26-3.34-1.83-6.81-3.45-10.37-4.84-6.51-2.54-13.38-4.34-20.44-5.38-14.79-2.14-30.26-.94-45.95,3.61-3.05.88-5.01,3.7-4.77,6.86.25,3.17,2.61,5.66,5.76,6.07,16.78,2.17,30.05,10.45,36.39,22.71,5.33,10.31,5.21,22.57-.26,33.87-5.79,2.86-10.29,6.63-14.5,10.17-7.92,6.65-14.76,12.38-29.08,12.38s-21.15-5.74-29.08-12.38c-8.29-6.96-17.69-14.85-35.83-14.85-2.9,0-5.26,2.35-5.26,5.26s2.35,5.26,5.26,5.26c14.32,0,21.16,5.74,29.08,12.38,8.3,6.96,17.7,14.85,35.83,14.85s27.54-7.89,35.84-14.85c4.36-3.66,8.39-7.03,13.53-9.34.15-.06.3-.13.46-.21,4.1-1.76,8.89-2.84,15.09-2.84,14.32,0,21.16,5.74,29.08,12.38,8.3,6.96,17.7,14.85,35.83,14.85s27.54-7.89,35.84-14.85c7.93-6.64,14.77-12.38,29.08-12.38s21.16,5.74,29.08,12.38c8.3,6.96,17.7,14.85,35.84,14.85.42,0,.84,0,1.26-.02.03,0,.06,0,.09,0,.11,0,.22,0,.33-.02,17.06-.47,26.12-8.08,34.15-14.82,7.93-6.64,14.77-12.38,29.08-12.38,2.9,0,5.26-2.35,5.26-5.26s-2.35-5.26-5.26-5.26h0Zm-68.34,27.11c-12.03-.85-18.39-6.18-25.65-12.26-8.3-6.96-17.7-14.85-35.84-14.85s-27.54,7.89-35.84,14.85c-7.91,6.65-14.76,12.38-29.08,12.38s-21.15-5.74-29.07-12.38c-8.3-6.96-17.7-14.85-35.84-14.85-3.09,0-5.92.23-8.54.65,1.2-4.18,1.85-8.41,1.93-12.67.14-7.65-1.62-15.25-5.11-21.99-3.82-7.39-9.74-13.85-17.13-18.66-3.28-2.14-6.82-3.97-10.58-5.45,21.89-2.86,42.57,1.67,59.47,13.26.02.02.04.02.06.04,17.81,12.22,29.79,31.27,33.74,53.64.5,2.86,3.22,4.77,6.1,4.26,2.86-.5,4.76-3.23,4.26-6.1-2.22-12.58-6.7-24.25-13.3-34.66-5.97-9.41-13.46-17.48-22.31-24.01,1.38-17.82-2.9-32.52-12.72-43.74-5.22-5.95-12.09-10.97-20.4-14.91-4.02-1.9-8.44-3.58-13.22-5.02,32.84-6.13,58.57,3.92,75.15,14.31,10.35,6.49,19.34,14.37,26.93,22.9.02.02.03.03.04.05,17.48,19.66,27.57,42.74,29.96,60.17.36,2.64,2.62,4.54,5.2,4.54.24,0,.47-.02.72-.05,2.88-.39,4.89-3.05,4.5-5.93-2.12-15.43-8.96-32.62-19.26-48.38-2.27-3.48-4.69-6.85-7.23-10.1,4.89.34,9.76.94,14.57,1.8,12.34,2.22,24.34,6.15,35.67,11.7,29.9,17.38,45.92,50.26,42.86,91.46Z"/><path class="cls-1" d="m269.42,166.26h-.04v-.05s.03.03.04.05Z"/><path class="cls-1" d="m450,350.92c0,2.9-2.35,5.26-5.26,5.26-14.32,0-21.15,5.74-29.08,12.38-8.29,6.96-17.7,14.84-35.83,14.84s-27.55-7.89-35.84-14.84c-7.92-6.65-14.76-12.38-29.08-12.38s-21.15,5.74-29.08,12.38c-8.3,6.96-17.7,14.84-35.84,14.84s-27.54-7.89-35.83-14.84c-7.92-6.65-14.76-12.38-29.08-12.38s-21.15,5.74-29.08,12.38c-8.29,6.96-17.7,14.84-35.83,14.84s-27.54-7.89-35.83-14.84c-7.92-6.65-14.76-12.38-29.08-12.38-2.9,0-5.26-2.36-5.26-5.26s2.35-5.26,5.26-5.26c18.14,0,27.54,7.89,35.83,14.84,7.92,6.64,14.76,12.38,29.08,12.38s21.15-5.74,29.08-12.38c8.29-6.96,17.7-14.84,35.83-14.84s27.54,7.89,35.83,14.84c7.92,6.64,14.76,12.38,29.08,12.38s21.16-5.74,29.08-12.38c8.3-6.96,17.7-14.84,35.84-14.84s27.54,7.89,35.83,14.84c7.92,6.64,14.77,12.38,29.09,12.38s21.15-5.74,29.08-12.38c8.29-6.96,17.7-14.84,35.83-14.84,2.9,0,5.26,2.35,5.26,5.26h0Z"/><path class="cls-1" d="m450,298.96c0,2.9-2.35,5.26-5.26,5.26-14.32,0-21.15,5.74-29.08,12.38-8.29,6.96-17.7,14.84-35.83,14.84s-27.55-7.89-35.84-14.84c-7.92-6.65-14.76-12.38-29.08-12.38s-21.15,5.74-29.08,12.38c-8.3,6.96-17.7,14.84-35.84,14.84s-27.54-7.89-35.83-14.84c-7.92-6.65-14.76-12.38-29.08-12.38s-21.15,5.74-29.08,12.38c-8.29,6.96-17.7,14.84-35.83,14.84s-27.54-7.89-35.83-14.84c-7.92-6.65-14.76-12.38-29.08-12.38-2.9,0-5.26-2.36-5.26-5.26s2.35-5.26,5.26-5.26c18.14,0,27.54,7.89,35.83,14.84,7.92,6.64,14.76,12.38,29.08,12.38s21.15-5.74,29.08-12.38c8.29-6.96,17.7-14.84,35.83-14.84s27.54,7.89,35.83,14.84c7.92,6.64,14.76,12.38,29.08,12.38s21.16-5.74,29.08-12.38c8.3-6.96,17.7-14.84,35.84-14.84s27.54,7.89,35.83,14.84c7.92,6.64,14.77,12.38,29.09,12.38s21.15-5.74,29.08-12.38c8.29-6.96,17.7-14.84,35.83-14.84,2.9,0,5.26,2.35,5.26,5.26h0Z"/></svg>