<?xml version="1.0" encoding="UTF-8"?><svg id="Layer_1" xmlns="http://www.w3.org/2000/svg" viewBox="0 0 500 500"><defs><style>.cls-1{fill:#c9a84c;}</style></defs><path class="cls-1" d="m164.65,370.88c-7.18-10.48-13.43-20.75-18.82-31.52-13.04-26.1-22.92-53.38-30.13-81.63-.86-3.36.1-5.6,3.42-6.81,9.23-3.34,18.42-6.77,27.69-10.02,2.15-.76,3.42-1.82,4.2-4.08,2.74-7.92,5.65-15.78,8.68-23.58,1.07-2.76.29-3.34-2.42-3.3-7.47.11-14.94.04-22.41,0-5.03-.03-6.95-2.62-5.19-7.34,2.89-7.73,6.02-15.36,8.94-23.07,1.14-2.99,3.13-4.22,6.3-4.19,10.74.08,21.5-.08,32.24.08,2.67.04,3.98-.73,4.81-3.3,1.24-3.86,3.01-7.54,4.38-11.35,1.17-3.26,3.18-4.77,6.76-4.7,7.07.14,14.15-.11,21.23.02,2.51.05,3.71-.79,4.53-3.19,1.42-4.21,3.39-8.23,4.89-12.42,1.17-3.28,3.02-4.84,6.7-4.57,4.3.31,8.66-.08,12.97.15,2.89.16,3.97-.67,3.84-3.68-.25-5.76-.2-11.53-.19-17.3,0-6.7,3.7-11.43,10.22-13.06,5.22-1.3,10.4-.74,15.54.61,3.42.9,6.78,2.03,10.35,2.22,3.08.17,6.05-.06,8.47-2.28,1.39-1.27,3.02-1.7,4.72-1.02,1.88.74,2.1,2.56,2.11,4.3.04,3.93-.15,7.87.04,11.79.21,4.12-1.82,6.65-5.21,8.45-4.77,2.54-9.83,2.57-14.94,1.65-3.47-.62-6.89-1.59-10.33-2.38-2.46-.57-4.94-.72-7.38.05-4.13,1.29-6.05,5.38-4.58,9.41.59,1.63,1.87,1.18,2.93,1.19,5.11.07,10.23.23,15.33-.02,3.34-.16,5.11,1.23,6.19,4.18,1.49,4.06,3.37,7.98,4.59,12.1.98,3.31,2.84,4.01,6.02,3.9,6.54-.23,13.1.04,19.66-.05,3.22-.05,5.13,1.29,6.19,4.3,1.39,3.95,3.22,7.75,4.42,11.75.82,2.7,2.27,3.24,4.84,3.21,9.96-.14,19.92.08,29.88-.12,3.9-.08,6,1.38,7.31,5.01,2.68,7.38,5.74,14.62,8.54,21.96,1.83,4.82-.16,7.7-5.27,7.74-7.6.06-15.2.07-22.8-.04-2.34-.03-3.02.41-2.09,2.84,3.15,8.32,6.16,16.7,9.12,25.1.62,1.76,1.9,2.33,3.4,2.87,8.5,3.05,17.01,6.09,25.48,9.22,5.98,2.21,6.52,3.26,5.05,9.35-9.46,39.16-24.29,76.01-46.93,109.52-.35.53-.65,1.1-1.2,2.03,7.14,1.12,13.43-.53,19.38-3.62,8.59-4.46,17.74-6.24,27.31-6.14,8.76.08,17.18,1.67,25.04,5.74,11.01,5.7,22.36,5.89,33.87,1.78,3.06-1.1,5.74-1.38,7.26,2.08,1.15,2.61-.41,5.26-3.97,6.56-13.82,5.07-27.44,4.81-40.74-1.9-14.88-7.5-29.88-6.99-44.6.12-14.37,6.94-28.48,6.87-42.7.02-15.26-7.35-30.59-7.56-45.75-.06-15.01,7.42-29.74,6.87-44.54-.35-14.38-7.02-29-6.79-43.17.06-14.9,7.22-29.27,7.22-44.11,0-14.78-7.2-29.98-7.24-44.65.22-13.59,6.91-27.22,6.33-41.18,2.06-1.65-.5-3.21-1.31-3.85-3.08-.62-1.7-.49-3.38.82-4.77,1.62-1.72,3.51-1.92,5.74-1.15,12.61,4.32,24.51,3.42,36.86-2.37,16.33-7.65,33.33-7.16,49.77.66,6.51,3.1,13.09,5.16,21.12,4.21l-.02-.02Zm90.83-69.88h.04v61.33c0,9.9.34,10.12,9.78,5.94,4.9-2.17,9.62-4.82,14.96-5.84,14.54-2.78,28.68-2.1,42.06,4.98,2.44,1.29,4.31,2.05,6.47-1.14,21.86-32.23,36.58-67.58,46.62-105.03.62-2.28.19-3.23-2.02-4.04-24.34-8.9-48.73-17.63-73.56-25.09-27.44-8.23-55.05-11.19-83.3-4.14-30.43,7.6-59.62,18.85-89.1,29.3-2.36.84-2.1,2.27-1.61,4,10.5,36.54,23.97,71.76,45.61,103.38,2.13,3.11,4.89,3.89,8.27,2.33,17.74-8.19,35.42-8.21,53.02.46,2.71,1.34,5.52,2.38,8.48,3.02,5.3,1.15,5.32,1.18,5.32-4.07.02-43.5.06-87.01-.06-130.51,0-3.77,1.26-4.5,4.69-4.54,3.41-.03,4.42.87,4.4,4.39-.17,21.75-.09,43.5-.09,65.26v.02Zm-94.41-66.1c2.02.5,3.28-.4,4.58-.86,11.59-4.14,23.36-7.72,35.17-11.2,22.59-6.66,45.46-10.14,69.07-6.69,19.14,2.79,37.5,8.52,55.78,14.55,4.78,1.58,9.54,3.25,15.21,5.18-2.96-7.7-5.75-14.43-8.11-21.32-1.42-4.15-3.51-5.75-8.18-5.54-11.79.54-11.97.02-11.54-11.93.12-3.41,1.69-5.1,5.03-5.17,3.14-.06,6.29-.04,9.44-.05,4.93,0,6.5,1.33,6.95,6.37.17,1.88.58,2.87,2.72,2.85,7.47-.1,14.94-.1,22.41-.04,2.16.02,2.42-.74,1.62-2.59-1.47-3.35-2.99-6.71-4.1-10.2-.97-3.02-2.67-3.81-5.76-3.79-27.66.13-55.31.07-82.96.07-39.45,0-78.91.03-118.35-.04-2.69,0-4.34.49-5.19,3.35-1.01,3.38-2.45,6.63-3.94,9.83-1.19,2.56-.66,3.43,2.2,3.38,6.94-.11,13.9-.13,20.84.02,2.54.06,3.37-.78,3.52-3.32.25-4.25,2.08-5.76,6.26-5.86,1.58-.04,3.14.03,4.72-.02,12.34-.43,11.02.83,10.91,12.15-.03,3.3-1.92,5.04-5.22,5.12-3.54.08-7.08.07-10.62.12-1.28.02-2.64-.22-3.27,1.44-3.02,8.03-6.09,16.04-9.18,24.16h0Zm151.59-59.74c.07-2.09-1.15-3.62-1.54-5.36-.82-3.64-2.89-4.77-6.67-4.69-12.04.26-24.1.06-36.14.06-23.44,0-46.88.02-70.33.1-1.42,0-3.26-.78-4.08,1.3-1.1,2.76-2.62,5.38-3.15,8.58h121.92Zm-60.62-19.14c7.1.02,14.19.05,21.3.06.99,0,2.24-.17,2.53-1.12.11-.38.03-.78-.06-1.16-.39-1.72-.93-3.4-1.61-5.02-.5-1.19-1.12-2.42-2.22-3.1-1.1-.67-2.46-.67-3.74-.66-10.15.13-20.3.14-30.46.04-1.82-.02-3.74-.02-5.29.94-1.32.81-2.18,2.19-2.81,3.61-.49,1.1-.86,2.26-1.36,3.35-.36.79-1.05,1.94-.08,2.62.5.35,1.16.37,1.77.37,1.63,0,3.26,0,4.89.02,5.71.02,11.42.03,17.13.06h0Z"/><path class="cls-1" d="m74.76,389.04c7.35.11,14.17-1.76,20.77-5.02,14.92-7.37,29.86-7.37,44.9.1,14.69,7.3,29.38,7.05,44.1-.47,13.85-7.07,28.13-7,41.94-.08,11.86,5.94,23.95,7.01,36.62,4.02,3.59-.85,6.8-2.68,10.14-4.2,14.28-6.5,28.65-6.7,42.82.22,15.29,7.48,30.26,7.59,45.57-.22,12.85-6.57,26.48-6.74,39.5-.95,9.29,4.13,18.44,7.33,28.69,6.66,3.22-.21,5.11,1.49,5.2,4.54.1,3.14-2,4.81-5.04,4.8-10.18-.02-19.99-1.36-29.28-6.16-12.06-6.23-24.5-6.05-36.62-.03-16.46,8.17-33.09,8.6-49.55.7-13.79-6.62-26.91-6.31-40.68.19-16.02,7.57-32.58,7.48-48.58-.22-13.66-6.57-26.62-6.38-40.24.33-15.76,7.77-32.04,7.17-47.72-.57-12.97-6.4-25.7-6.42-38.42-.02-8.68,4.36-17.83,5.86-27.39,5.74-3.14-.04-5.46-1.1-5.69-4.57-.19-3.01,2-4.72,5.82-4.78,1.05-.02,2.1,0,3.14,0h0Z"/><path class="cls-1" d="m279.77,282.2c.62-3.56,1.17-7.45,1.98-11.27.59-2.76,2.7-3.81,5.34-3.43,2.78.4,4.74,2.09,4.39,5.02-.5,4.14-1.34,8.25-2.34,12.3-.67,2.75-2.96,3.58-5.54,3.1-2.92-.53-4.1-2.53-3.84-5.73h0Z"/><path class="cls-1" d="m222.45,282.64c-.19,2.94-1.5,4.87-4.42,5.21-2.81.32-4.89-.72-5.39-3.78-.62-3.73-1.28-7.45-1.74-11.2-.35-2.88,1.1-4.86,3.9-5.44,2.98-.61,5.21.65,5.82,3.75.76,3.83,1.24,7.71,1.83,11.46h0Z"/><path class="cls-1" d="m314.39,278.51c-.08,1.03-.41,2.04-.74,3.02-.84,2.57-1.68,5.13-2.52,7.7-.39,1.2-.84,2.47-1.85,3.24-1.07.82-2.58.85-3.88.5-1.71-.46-3.35-1.66-3.74-3.38-.22-.98-.02-1.99.18-2.97.73-3.38,1.61-6.72,2.65-10.01.44-1.41.74-2.32,2.1-3.1,1.16-.67,2.58-.91,3.88-.58,2.14.55,3.8,2.6,3.91,4.82.02.26,0,.52-.02.78l.02-.02Z"/><path class="cls-1" d="m200.29,287.94c-.15,2.8-1.54,4.57-4.12,5.18-2.53.6-4.41-.46-5.22-2.95-1.13-3.48-2.27-6.98-3.11-10.54-.73-3.08.38-5.56,3.7-6.27,3.21-.69,5.22.7,5.98,4.04.81,3.57,1.86,7.09,2.78,10.54h0Z"/><path class="cls-1" d="m173.91,300.75c-1.88-.03-3.31-.84-4.04-2.58-1.41-3.38-2.82-6.76-4.05-10.2-1.03-2.89-.12-5.34,2.8-6.37,3.04-1.07,5.35.12,6.52,3.26,1.14,3.06,2.38,6.08,3.47,9.16,1.24,3.5-1.08,6.76-4.71,6.74h0Z"/><path class="cls-1" d="m336.22,286.51c-.1.9-.4,1.77-.7,2.62-1.07,3.02-2.14,6.05-3.7,8.85-.47.85-1.02,1.71-1.87,2.18-1.13.62-2.53.4-3.72-.08-1.37-.56-2.67-1.54-3.11-2.95-.43-1.41.06-2.91.56-4.3.99-2.78,1.93-5.59,2.98-8.34.81-2.1,2.86-3.68,5.2-3.43,2.39.26,4.41,2.5,4.38,4.91,0,.18-.02.35-.03.53h0Z"/><path class="cls-1" d="m208.23,191.94c6.81.05,10.12,3.5,9.92,10.36-.17,5.76-1.13,6.69-7.05,6.76-2.88.04-5.76.14-8.63.09-2.78-.06-4.38-1.47-4.39-4.38,0-.91-.02-1.83-.02-2.74-.01-6.77,3.38-10.13,10.17-10.08Z"/><path class="cls-1" d="m236.86,209.05c-2.47.05-4.95.15-7.33-.46-.64-.17-1.3-.41-1.72-.92-.4-.49-.51-1.14-.6-1.76-.33-2.32-.46-4.66-.4-7.01.05-1.87-.24-4.82,1.57-5.98.58-.37,1.25-.55,1.93-.68,2.65-.5,5.37-.19,8.06-.26,1.26-.03,2.54-.15,3.8,0,1.26.14,2.54.56,3.44,1.45.82.81,1.26,1.94,1.45,3.08.18,1.14.12,2.3.06,3.45-.09,1.58-.18,3.18-.26,4.76-.02.5-.06,1.01-.21,1.5-.43,1.41-1.83,2.34-3.27,2.67-1.43.34-2.93.21-4.4.18-.7-.02-1.41,0-2.11,0h0Z"/><path class="cls-1" d="m265.18,209.05c-2.47.05-4.95.15-7.33-.46-.64-.17-1.3-.41-1.72-.92-.4-.49-.51-1.14-.6-1.76-.33-2.32-.46-4.66-.4-7.01.05-1.87-.24-4.82,1.57-5.98.58-.37,1.25-.55,1.93-.68,2.65-.5,5.37-.19,8.06-.26,1.26-.03,2.54-.15,3.8,0,1.26.14,2.54.56,3.44,1.45.82.81,1.26,1.94,1.45,3.08s.12,2.3.06,3.45c-.09,1.58-.18,3.18-.26,4.76-.02.5-.06,1.01-.21,1.5-.43,1.41-1.83,2.34-3.27,2.67-1.43.34-2.93.21-4.4.18-.7-.02-1.41,0-2.11,0h0Z"/><path class="cls-1" d="m294.15,209.15c-6.46-.05-9.7-3.36-9.71-9.92-.02-6.55.58-7.16,7.14-7.24,2.36-.03,4.72-.12,7.08-.08,4.51.07,5.6,1.53,5.63,7.34.04,8.48-.65,9.75-5.43,9.9-1.57.05-3.14,0-4.72,0h0Z"/></svg>