<?xml version="1.0" encoding="UTF-8"?><svg id="Layer_1" xmlns="http://www.w3.org/2000/svg" viewBox="0 0 575.01 578.08"><defs><style>.cls-1{fill:#fff;}.cls-2{stroke-width:1.56px;}.cls-2,.cls-3,.cls-4,.cls-5,.cls-6,.cls-7,.cls-8,.cls-9,.cls-10{fill:none;stroke:#fff;}.cls-2,.cls-3,.cls-6,.cls-8,.cls-9{stroke-miterlimit:10;}.cls-3{stroke-width:4.03px;}.cls-3,.cls-11,.cls-8{opacity:.6;}.cls-4{stroke-dasharray:0 0 0 0 0 0 0 13.28 0 13.28 0 13.28;stroke-width:6.71px;}.cls-4,.cls-5,.cls-7,.cls-10{stroke-linecap:round;stroke-linejoin:round;}.cls-5{stroke-dasharray:0 0 0 0 0 0 0 6.35 0 6.35 0 6.35;stroke-width:3.21px;}.cls-6{stroke-width:.75px;}.cls-7{stroke-dasharray:0 0 0 0 0 0 0 10.73 0 10.73 0 10.73;stroke-width:5.42px;}.cls-8{stroke-width:2.01px;}.cls-9{stroke-width:1.04px;}.cls-10{stroke-dasharray:0 0 0 0 0 0 0 8.75 0 8.75 0 8.75;stroke-width:4.42px;}</style></defs><g><circle class="cls-3" cx="287.5" cy="288.8" r="251.67"/><circle class="cls-8" cx="287.5" cy="288.8" r="261.41"/><g class="cls-11"><circle class="cls-4" cx="287.5" cy="288.8" r="240.92"/></g><circle class="cls-2" cx="287.5" cy="288.8" r="202.72"/><circle class="cls-9" cx="287.5" cy="288.8" r="165.04"/><g class="cls-11"><circle class="cls-7" cx="287.5" cy="288.8" r="194.7"/></g><g class="cls-11"><circle class="cls-10" cx="287.5" cy="288.8" r="158.67"/></g><circle class="cls-6" cx="287.5" cy="288.8" r="119.76"/><g class="cls-11"><circle class="cls-5" cx="287.5" cy="288.8" r="115.14"/></g></g><g><polygon class="cls-1" points="309.76 264.63 366.99 205.42 305.98 245.46 308.44 264.46 309.76 264.63"/><polygon class="cls-1" points="261.72 264.47 261.88 263.27 207.68 210.95 243.15 266.89 261.72 264.47"/><path class="cls-1" d="m490.21,287.6l-.71-.09-.93-.12h0s-12.34-1.57-12.34-1.57l-2.63-.33-38.21-4.86-34.88-4.44-2.69-.34-6.29-.8-2.69-.34-60.39-7.69,32.69-49.79,1.48-2.25,3.45-5.26,1.46-2.23,1.12-1.7-.32.32-1.58-1.58-1.38.91-2.25,1.48-5.27,3.46-2.28,1.5-49.73,32.64-7.49-57.92-.34-2.66-.8-6.21-.34-2.66-9.42-72.9-.34-2.62-1.58-12.25v-.03h0l-.12-.95-.64.03-1.71,13.25-.34,2.64-9.5,73.44-.35,2.69-.81,6.28-.35,2.73-7.45,57.56-47.27-29.96-2.29-1.45-5.31-3.36-1.13-.71-.97.9-3.39-3.68,2.08,3.28,1.45,2.28,3.38,5.33,1.46,2.31,29.92,47.18-55.08,7.17-2.7.35-6.28.82-2.69.35-73.15,9.53-2.63.34-13.27,1.73-.67.95.67.09,11.91,1.55,1.36.18,2.63.34,73.15,9.53,2.69.35,6.28.82,2.7.35,54.82,7.14-30.17,46.59-1.49,2.3-3.44,5.31-1.47,2.27-3.42,5.28.62.64,5.22-3.38,2.26-1.46,5.28-3.42,2.27-1.47,13.91-9.01,32.76-21.21,7.29,57.22.35,2.73.8,6.29.34,2.69,9.35,73.45.34,2.64,1.69,13.28,1.12,1.98.25-1.96,1.68-13.23.33-2.62,9.28-72.92.34-2.66.79-6.2.34-2.67,7.36-57.81,49.57,32.65,2.28,1.5,5.27,3.47,2.25,1.48,1.89,1.25-.63-.58.51-.55-61.02-40.18,2.43-19.09,1.31-.17,57.36,59.34,1.18-1.28.08.07-.72-1.1-1.3-1.97-.17-.27-3.46-5.25-1.48-2.25-32.73-49.69,60.33-7.68,2.69-.34,6.29-.8,2.69-.34,73.09-9.3,2.63-.34,13.27-1.69.72-.09c0-.14,0-.28-.01-.45Zm-9.26-.3l-192.56-2.15.02-.02h0l19.8-19.81,172.74,21.98Zm-153.45-20.41l-16.66-2.12,56.28-58.23-39.62,60.35Zm39.49-61.47l-57.24,59.21-1.31-.17-2.46-19.01,61.01-40.04Zm-59.4,59.29l-19.82,19.83-2.15-189.79,21.97,169.96Zm-22.86-171.21l2.17,191.15-24.32-19.97,22.14-171.18Zm-20.6,152.37l-2.11,16.32-53.27-51.42,55.38,35.1Zm-56.45-34.92l54.2,52.32-.16,1.21-18.57,2.42-35.47-55.94Zm54.31,54.37l24.15,19.84-192.98,2.15,168.83-21.99Zm-169.99,22.88l194.28-2.16-24.31,24.3-169.97-22.14Zm150.89,20.54l18.84,2.45.16,1.23-57.19,55.29,38.2-58.97Zm-37.09,59.12l56.23-54.36,2.11,16.58-58.34,37.78Zm78.93,117.03l-22.15-173.92,24.32-24.3-2.17,198.23Zm.89-1.18l2.15-196.91,19.82,24.14-21.98,172.77Zm82.07-114.02l-56.84-58.79,16.7-2.13,40.13,60.92Zm-59.45-59.35l-19.95-24.3,193.92,2.16-173.96,22.14Z"/><polygon class="cls-1" points="367.69 369.68 310.85 310.88 327.55 308.76 367.69 369.68"/><polygon class="cls-1" points="264.13 330.08 205.79 367.85 262.02 313.5 264.13 330.08"/><polygon class="cls-1" points="286.9 284.64 284.73 93.5 262.58 264.67 286.9 284.64"/><polygon class="cls-1" points="285.62 483.7 307.59 310.93 287.77 286.79 285.62 483.7"/><polygon class="cls-1" points="288.41 285.13 288.42 285.13 288.39 285.16 480.95 287.3 308.21 265.32 288.41 285.13"/><polygon class="cls-1" points="286.27 286.03 91.99 288.2 261.96 310.33 286.27 286.03"/></g><path class="cls-1" d="m415.87,421.83c22.96-1.49,24.17-2.69,25.65-25.65,1.49,22.96,2.69,24.17,25.65,25.65-22.96,1.49-24.17,2.69-25.65,25.65-1.49-22.96-2.69-24.17-25.65-25.65Z"/><path class="cls-1" d="m415.87,154.38c22.96-1.49,24.17-2.69,25.65-25.65,1.49,22.96,2.69,24.17,25.65,25.65-22.96,1.49-24.17,2.69-25.65,25.65-1.49-22.96-2.69-24.17-25.65-25.65Z"/><path class="cls-1" d="m105.53,154.38c22.96-1.49,24.17-2.69,25.65-25.65,1.49,22.96,2.69,24.17,25.65,25.65-22.96,1.49-24.17,2.69-25.65,25.65-1.49-22.96-2.69-24.17-25.65-25.65Z"/><path class="cls-1" d="m105.53,421.83c22.96-1.49,24.17-2.69,25.65-25.65,1.49,22.96,2.69,24.17,25.65,25.65-22.96,1.49-24.17,2.69-25.65,25.65-1.49-22.96-2.69-24.17-25.65-25.65Z"/><g><path class="cls-1" d="m507.32,287.4c30.29-1.96,31.88-3.55,33.85-33.85,1.96,30.29,3.55,31.88,33.85,33.85-30.29,1.96-31.88,3.55-33.85,33.85-1.96-30.29-3.55-31.88-33.85-33.85Z"/><path class="cls-1" d="m251.41,544.24c30.29-1.96,31.88-3.55,33.85-33.85,1.96,30.29,3.55,31.88,33.85,33.85-30.29,1.96-31.88,3.55-33.85,33.85-1.96-30.29-3.55-31.88-33.85-33.85Z"/><path class="cls-1" d="m251.41,33.85c30.29-1.96,31.88-3.55,33.85-33.85,1.96,30.29,3.55,31.88,33.85,33.85-30.29,1.96-31.88,3.55-33.85,33.85-1.96-30.29-3.55-31.88-33.85-33.85Z"/><path class="cls-1" d="m0,287.4c30.29-1.96,31.88-3.55,33.85-33.85,1.96,30.29,3.55,31.88,33.85,33.85-30.29,1.96-31.88,3.55-33.85,33.85-1.96-30.29-3.55-31.88-33.85-33.85Z"/></g></svg>