<?xml version="1.0" encoding="UTF-8"?><svg id="Calque_1" xmlns="http://www.w3.org/2000/svg" viewBox="0 0 356.44 104.96"><defs><style>.cls-1{fill:#fff;}</style></defs><g><path class="cls-1" d="m134.5,61.06l-1.35-3.06h-6.36l-1.35,3.06h-1.53l5.4-12.06h1.31l5.4,12.06h-1.53m-4.52-10.3l-2.63,5.96h5.24l-2.61-5.96Z"/><path class="cls-1" d="m146.22,52.08l-1.42.32c-.27-1.46-1.48-2.39-3.13-2.39s-2.74.88-2.74,2.18c0,1.08.68,1.57,1.82,1.8l2.63.6c1.68.36,3.04,1.21,3.04,3.13,0,2.2-1.78,3.58-4.48,3.58-2.56,0-4.61-1.31-4.9-3.6l1.49-.31c.27,1.69,1.66,2.65,3.53,2.65s2.93-.92,2.93-2.25c0-1.13-.61-1.58-1.96-1.89l-2.72-.59c-1.55-.34-2.9-1.15-2.9-3.08,0-2.07,1.71-3.46,4.29-3.46,2.41,0,4.1,1.33,4.52,3.31"/><path class="cls-1" d="m157.15,52.08l-1.42.32c-.27-1.46-1.48-2.39-3.13-2.39s-2.74.88-2.74,2.18c0,1.08.68,1.57,1.82,1.8l2.63.6c1.68.36,3.04,1.21,3.04,3.13,0,2.2-1.78,3.58-4.48,3.58-2.56,0-4.61-1.31-4.9-3.6l1.49-.31c.27,1.69,1.66,2.65,3.53,2.65s2.93-.92,2.93-2.25c0-1.13-.61-1.58-1.96-1.89l-2.72-.59c-1.55-.34-2.9-1.15-2.9-3.08,0-2.07,1.71-3.46,4.29-3.46,2.41,0,4.1,1.33,4.52,3.31"/><path class="cls-1" d="m171.73,55.03c0,3.51-2.74,6.27-6.23,6.27s-6.25-2.75-6.25-6.27,2.74-6.27,6.25-6.27,6.23,2.77,6.23,6.27m-1.44,0c0-2.77-2.11-4.93-4.79-4.93s-4.81,2.16-4.81,4.93,2.11,4.92,4.81,4.92,4.79-2.12,4.79-4.92Z"/><path class="cls-1" d="m184.35,56.88l1.37.32c-.74,2.52-2.97,4.09-5.74,4.09-3.51,0-6.27-2.75-6.27-6.27s2.76-6.27,6.27-6.27c2.77,0,5.01,1.57,5.74,4l-1.37.4c-.61-1.94-2.29-3.06-4.38-3.06-2.7,0-4.83,2.14-4.83,4.93s2.12,4.93,4.83,4.93c2.09,0,3.74-1.1,4.38-3.08"/><rect class="cls-1" x="188.28" y="49" width="1.42" height="12.06"/><path class="cls-1" d="m202.04,61.06l-1.35-3.06h-6.36l-1.35,3.06h-1.53l5.4-12.06h1.31l5.4,12.06h-1.53m-4.52-10.3l-2.63,5.96h5.24l-2.61-5.96Z"/><polyline class="cls-1" points="209.04 50.28 209.04 61.06 207.6 61.06 207.6 50.28 203.12 50.28 203.12 49 213.5 49 213.5 50.28 209.04 50.28"/><rect class="cls-1" x="215.54" y="49" width="1.42" height="12.06"/><path class="cls-1" d="m231.99,55.03c0,3.51-2.74,6.27-6.23,6.27s-6.25-2.75-6.25-6.27,2.74-6.27,6.25-6.27,6.23,2.77,6.23,6.27m-1.44,0c0-2.77-2.1-4.93-4.79-4.93s-4.81,2.16-4.81,4.93,2.11,4.92,4.81,4.92,4.79-2.12,4.79-4.92Z"/><polyline class="cls-1" points="245.1 61.06 243.87 61.06 235.98 51.48 235.98 61.06 234.56 61.06 234.56 49 235.79 49 243.67 58.69 243.67 49 245.1 49 245.1 61.06"/><path class="cls-1" d="m129.32,69.5c4.23,0,6.68,2.61,6.68,6.03s-2.45,6.03-6.68,6.03h-4v-12.06h4m-.02,10.77c3.38,0,5.26-2.07,5.26-4.74s-1.87-4.75-5.26-4.75h-2.56v9.49h2.56Z"/><polyline class="cls-1" points="147.37 81.56 138.57 81.56 138.57 69.5 147.35 69.5 147.35 70.78 139.99 70.78 139.99 74.86 146.83 74.86 146.83 76.14 139.99 76.14 139.99 80.27 147.37 80.27 147.37 81.56"/><path class="cls-1" d="m158.57,72.58l-1.42.32c-.27-1.46-1.48-2.39-3.13-2.39s-2.74.88-2.74,2.18c0,1.08.68,1.57,1.82,1.8l2.63.6c1.68.36,3.04,1.21,3.04,3.13,0,2.2-1.78,3.58-4.48,3.58-2.56,0-4.61-1.31-4.9-3.6l1.49-.31c.27,1.69,1.66,2.65,3.53,2.65s2.93-.92,2.93-2.25c0-1.13-.61-1.58-1.96-1.89l-2.72-.59c-1.55-.34-2.9-1.15-2.9-3.08,0-2.07,1.71-3.46,4.29-3.46,2.41,0,4.1,1.33,4.52,3.31"/><path class="cls-1" d="m174.23,81.56l-.85-2.2h-5.08l-.85,2.2h-3.19l5.04-12.06h3.04l5.04,12.06h-3.17m-3.38-8.72l-1.53,3.96h3.08l-1.55-3.96Z"/><path class="cls-1" d="m190.23,74.45c.05.43.07.79.07,1.1,0,3.65-2.61,6.28-6.25,6.28s-6.5-2.75-6.5-6.3,2.83-6.3,6.45-6.3c2.68,0,5.04,1.26,5.89,3.62l-2.86.83c-.7-1.37-1.85-1.73-3.02-1.73-1.96,0-3.46,1.55-3.46,3.58s1.53,3.6,3.55,3.6c1.59,0,2.74-.83,3.19-2.16h-3.69v-2.52h6.64"/><polyline class="cls-1" points="201.37 81.56 191.97 81.56 191.97 69.5 201.32 69.5 201.32 72.06 194.94 72.06 194.94 74.32 200.8 74.32 200.8 76.74 194.94 76.74 194.94 79.01 201.37 79.01 201.37 81.56"/><polyline class="cls-1" points="214.75 81.56 212.3 81.56 206.19 74.58 206.19 81.56 203.22 81.56 203.22 69.5 205.69 69.5 211.79 76.7 211.79 69.5 214.75 69.5 214.75 81.56"/><polyline class="cls-1" points="223.02 72.09 223.02 81.56 220.07 81.56 220.07 72.09 216.16 72.09 216.16 69.5 226.93 69.5 226.93 72.09 223.02 72.09"/><path class="cls-1" d="m237.7,72.72l-2.92.59c-.22-1.13-1.15-1.69-2.11-1.69s-1.62.54-1.62,1.22c0,.49.22.85.97,1.01l2.5.56c2.09.47,3.31,1.6,3.31,3.51,0,2.57-2.29,3.91-4.97,3.91s-4.95-1.3-5.27-3.65l3.06-.6c.31,1.24,1.17,1.78,2.38,1.78,1.12,0,1.78-.5,1.78-1.24,0-.54-.25-.88-1.12-1.06l-2.52-.54c-1.73-.4-3.24-1.3-3.24-3.49,0-2.34,1.94-3.8,4.77-3.8,2.63,0,4.53,1.3,4.98,3.49"/><path class="cls-1" d="m248.55,69.5c3.98,0,6.61,2.45,6.61,6.03s-2.63,6.03-6.61,6.03h-4.77v-12.06h4.77m-.11,9.49c2.25,0,3.73-1.37,3.73-3.46s-1.48-3.46-3.73-3.46h-1.69v6.91h1.69Z"/><polyline class="cls-1" points="266.23 81.56 256.83 81.56 256.83 69.5 266.17 69.5 266.17 72.06 259.8 72.06 259.8 74.32 265.65 74.32 265.65 76.74 259.8 76.74 259.8 79.01 266.23 79.01 266.23 81.56"/><polyline class="cls-1" points="279.33 81.56 276.47 81.56 271.33 69.5 274.61 69.5 277.89 77.49 281.18 69.5 284.46 69.5 279.33 81.56"/><path class="cls-1" d="m297.28,75.55c0,3.51-2.83,6.28-6.43,6.28s-6.43-2.77-6.43-6.28,2.83-6.32,6.43-6.32c3.6,0,6.43,2.79,6.43,6.32m-2.97,0c0-2.07-1.49-3.6-3.46-3.6s-3.46,1.53-3.46,3.6,1.49,3.56,3.46,3.56c1.96,0,3.46-1.51,3.46-3.56Z"/><polyline class="cls-1" points="304.71 81.56 301.68 81.56 301.68 77.82 297.02 69.5 300.26 69.5 303.23 74.79 306.17 69.5 309.48 69.5 304.71 77.78 304.71 81.56"/><path class="cls-1" d="m317.58,81.56l-.85-2.2h-5.08l-.85,2.2h-3.19l5.04-12.06h3.04l5.04,12.06h-3.17m-3.39-8.72l-1.53,3.96h3.08l-1.55-3.96Z"/><path class="cls-1" d="m333.58,74.45c.05.43.07.79.07,1.1,0,3.65-2.61,6.28-6.25,6.28s-6.5-2.75-6.5-6.3,2.83-6.3,6.45-6.3c2.68,0,5.04,1.26,5.89,3.62l-2.86.83c-.7-1.37-1.85-1.73-3.02-1.73-1.96,0-3.46,1.55-3.46,3.58s1.53,3.6,3.55,3.6c1.58,0,2.74-.83,3.19-2.16h-3.69v-2.52h6.64"/><polyline class="cls-1" points="344.72 81.56 335.33 81.56 335.33 69.5 344.67 69.5 344.67 72.06 338.3 72.06 338.3 74.32 344.15 74.32 344.15 76.74 338.3 76.74 338.3 79.01 344.72 79.01 344.72 81.56"/><path class="cls-1" d="m356.3,72.72l-2.92.59c-.22-1.13-1.15-1.69-2.11-1.69s-1.62.54-1.62,1.22c0,.49.22.85.97,1.01l2.5.56c2.09.47,3.31,1.6,3.31,3.51,0,2.57-2.29,3.91-4.97,3.91s-4.95-1.3-5.27-3.65l3.06-.6c.31,1.24,1.17,1.78,2.38,1.78,1.12,0,1.78-.5,1.78-1.24,0-.54-.25-.88-1.12-1.06l-2.52-.54c-1.73-.4-3.24-1.3-3.24-3.49,0-2.34,1.95-3.8,4.77-3.8,2.63,0,4.54,1.3,4.99,3.49"/><path class="cls-1" d="m129.32,90c4.23,0,6.68,2.61,6.68,6.03s-2.45,6.03-6.68,6.03h-4v-12.06h4m-.02,10.77c3.38,0,5.26-2.07,5.26-4.74s-1.87-4.75-5.26-4.75h-2.56v9.49h2.56Z"/><path class="cls-1" d="m148.52,96.79c0,3.29-2,5.51-5.02,5.51s-5.08-2.21-5.08-5.51v-6.79h1.42v6.79c0,2.5,1.46,4.14,3.65,4.14s3.6-1.64,3.6-4.14v-6.79h1.42v6.79"/><path class="cls-1" d="m164.26,101.78c-.77.34-1.62.52-2.52.52-3.51,0-6.25-2.75-6.25-6.27s2.74-6.27,6.25-6.27,6.23,2.77,6.23,6.27c0,2.05-.94,3.83-2.4,4.97l2.49,2.97-1.1.99-2.7-3.19m-2.52-.83c2.68,0,4.79-2.12,4.79-4.92s-2.11-4.93-4.79-4.93-4.81,2.16-4.81,4.93,2.11,4.92,4.81,4.92Z"/><path class="cls-1" d="m180.49,96.79c0,3.29-2,5.51-5.02,5.51s-5.08-2.21-5.08-5.51v-6.79h1.42v6.79c0,2.5,1.46,4.14,3.65,4.14s3.6-1.64,3.6-4.14v-6.79h1.42v6.79"/><path class="cls-1" d="m192.32,102.06h-8.81v-12.06h8.79v1.28h-7.36v4.09h6.84v1.28h-6.84v4.12h7.38v1.3m-4.77-13.41l1.44-2.52h1.6l-1.84,2.52h-1.21Z"/><path class="cls-1" d="m202.07,95.92c1.35.16,2.43,1.21,2.43,2.86,0,1.91-1.31,3.28-3.74,3.28h-5.78v-12.06h5.55c2.27,0,3.58,1.28,3.58,3.17,0,1.53-.99,2.56-2.04,2.7v.06m-5.67-.52h4.1c1.35,0,2.25-.86,2.25-2.16,0-1.21-.92-2.02-2.36-2.02h-4v4.18Zm4.23,5.44c1.51,0,2.43-.88,2.43-2.18s-1.01-2.11-2.41-2.11h-4.25v4.29h4.23Z"/><polyline class="cls-1" points="215.81 102.06 207 102.06 207 90 215.79 90 215.79 91.28 208.43 91.28 208.43 95.36 215.27 95.36 215.27 96.64 208.43 96.64 208.43 100.77 215.81 100.77 215.81 102.06"/><path class="cls-1" d="m228.34,97.89l1.37.32c-.74,2.52-2.97,4.09-5.74,4.09-3.51,0-6.27-2.75-6.27-6.27s2.76-6.27,6.27-6.27c2.77,0,5.01,1.57,5.74,4l-1.37.4c-.61-1.94-2.29-3.06-4.38-3.06-2.7,0-4.83,2.14-4.83,4.93s2.12,4.93,4.83,4.93c2.09,0,3.74-1.1,4.38-3.08"/></g><path class="cls-1" d="m45.34,8.56l17.64,39.2,6.12,13.58,5.6-11.93-3.64-.04c-.06,0-.12-.03-.15-.08-.03-.05-.04-.12-.01-.18l.86-1.83c.03-.06.08-.1.15-.1l4.04-.42,2.54-5.41-2.23-.26c-.06,0-.11-.04-.14-.09-.03-.05-.03-.12,0-.17l.06-.14-.89-.1-.12.25c-.03.06-.1.11-.17.11l-3.08-.1c-.06,0-.12-.03-.15-.09-.03-.05-.04-.12,0-.17l.06-.14-.89-.1-.12.25c-.03.06-.1.11-.17.1l-3.08-.1c-.06,0-.12-.04-.15-.09-.03-.05-.04-.12-.01-.17l.69-1.47s.07-.08.12-.1c1.09-.29,3.42-.95,3.42-.95l.75-1.61c.2-.43.71-.62,1.14-.42.43.2.62.71.42,1.15l-.05.12,2.96-.82.57-1.22c.2-.43.71-.62,1.15-.42.43.2.62.72.42,1.15l-.06.12,2.45-.66,1.58-3.36.09.04c.13-.24.3-.51.5-.81.52-.75,1.58-1.42,1.94-1.25.37.17.53,1.42.29,2.3-.1.34-.2.65-.3.91l.19.09-1.61,3.44,1,2.18.06-.12c.2-.43.71-.62,1.15-.42.43.2.62.72.42,1.15l-.57,1.22,1.26,2.8.05-.12c.2-.43.71-.62,1.15-.42.43.2.62.71.41,1.15l-.75,1.61s.99,2.21,1.46,3.24c.02.05.02.11,0,.15l-.69,1.47c-.03.06-.08.1-.14.1-.06,0-.12-.02-.16-.06l-2.05-2.3c-.05-.05-.06-.13-.03-.2l.11-.25-.65-.62-.06.14c-.03.06-.08.1-.14.1-.06,0-.12-.01-.16-.06l-2.05-2.3c-.05-.05-.06-.14-.03-.2l.12-.25-.65-.61-.06.14c-.02.05-.07.09-.13.1-.06.01-.12,0-.16-.05l-1.56-1.48-2.55,5.42,2.23,3.3c.04.05.04.12.01.18l-.86,1.83c-.03.06-.08.1-.14.1-.06,0-.12-.02-.16-.06l-2.32-2.72-6.69,14.23,10.5,23.3c11.14-9.12,18.25-22.98,18.25-38.5C99.47,22.27,77.19,0,49.72,0S1.16,21.11.03,47.58h26.98L45.34,8.56"/><path class="cls-1" d="m59.18,89.52l-8.61-19.63h-.01s-8.48-19.31-8.48-19.31h-13.15l-9.1,19.35-2.72-1.28,8.5-18.07H0c.45,27.08,22.53,48.9,49.72,48.9,10.85,0,20.88-3.48,29.05-9.38l-9.73-21.59-9.87,21"/><polyline class="cls-1" points="82.14 90.28 81.22 88.25 78.78 90.12 79.73 92.25 84.17 102.09 87.46 102.09 87.18 101.48 82.14 90.28"/><path class="cls-1" d="m30.33,47.58l5.39-11.47,5.03,11.47h-10.43m7.08-15.08l7.87-16.76,3.42,7.61h-.01s10.92,24.24,10.92,24.24h-15.58l-6.62-15.08Zm21.86,49.77l-13.91-31.68h15.6l6.46,14.33-8.15,17.35Z"/></svg>