<?xml version="1.0" encoding="UTF-8"?><svg id="layer" xmlns="http://www.w3.org/2000/svg" viewBox="0 0 600 295.1"><defs><style>.cls-1{fill:#fff;}.cls-2{fill:#f23e37;}</style></defs><path class="cls-1" d="m490.2,0l-2,5.2-34.1,84.06c-18.73-8.52-38.46-15.1-59.1-19.71V25.2h36V4.2h-92.3v21h34.5v40.28c-17.39-2.65-35.37-3.98-53.9-3.98-34.14,0-64.4,3.84-90.92,9.93,6.55-36.69,33.02-42.63,56.32-43.43,22.2-.7,34.6,7.1,34.7,7.1l3.5,2.2V13l-1.4-.6c-.8-.2-23.9-9.7-41.5-8.2-23.13,2.04-76.19,13.34-79.17,74.72-12.74,4.01-24.42,8.51-35.06,13.23L129.4.4l-2,5.2L58.6,175.2h25.1s5.24-14.16,12.13-32.78c7.93-6.91,17.49-14.38,28.77-21.82,6.77-4.48,14.42-9.1,22.98-13.68,12.4,32.54,26.02,68.28,26.02,68.28h25.1l-30.97-78.13c10.04-4.46,21.02-8.72,32.97-12.56.05,79.6,59.01,89.49,77.1,90.59,24.3,1.5,42.4-7.3,43.2-7.7l1.2-.6v-24l-3.4,1.9c-.1.1-14.1,7.9-39.4,7.9-10.7,0-25.7-2.4-37-14.1-10.9-11.2-16.1-28.7-15.5-51.9.09-3.37.32-6.55.66-9.54,26.62-6.27,57.15-10.26,91.74-10.26,18.55,0,36.53,1.35,53.9,4.03v104.37h21.8v-100.22c19.93,4.53,38.99,10.93,57.1,19.2l-32.7,80.62h25.1s14.04-37.93,26.36-71.21c5.24,2.86,10.38,5.9,15.44,9.11,12.22,7.77,23.64,16.34,34.22,25.69h0c7.76,20.38,13.87,36.41,13.87,36.41h25.1L490.2,0ZM121.4,116.4c-8.17,5.41-15.44,10.8-21.85,15.97,11.81-31.89,26.25-70.88,28.45-76.77,1.56,4.07,9.13,23.94,17.67,46.35-9.07,4.83-17.15,9.72-24.27,14.45Zm367.7-8.2c-5.36-3.4-10.82-6.61-16.37-9.64,7.84-21.16,14.62-39.47,16.07-43.36,2.16,5.64,15.89,41.66,27.72,72.7-8.63-7.06-17.78-13.63-27.42-19.7Z"/><path class="cls-2" d="m322,101.8c.2.4.5.5.9.4l3.8-2.2-2.4,11.7c-.4.9.7,1.5,1.3.9l4.9-5.6,1.1,2.7c.4.5.7.5,1.3.5l5.5-1.3-1.8,6.7c-.2.4,0,.9.2.9l2.4,1.1-10,8c-.4.2-.9.9-.7,1.6l1.3,3.3-10-1.8c-.7,0-.9.4-.9.5l.2,10.4h-1.7l.2-10.4c0-.2-.2-.5-.9-.5l-10,1.8,1.3-3.3c.2-.7-.4-1.5-.7-1.6l-10-8,2.2-1.1c.4,0,.5-.5.4-.9l-1.8-6.7,5.3,1.3c.5,0,1.1,0,1.5-.5l1.1-2.7,4.9,5.6c.5.5,1.5,0,1.3-.9l-2.4-11.7,3.8,2.2c.4.2.7,0,.9-.4l3.8-7.5,3.7,7.5h0Z"/><polygon class="cls-2" points="570.3 208.1 47.9 208.1 56.1 187.9 562.4 187.9 570.3 208.1"/><path class="cls-1" d="m48.7,247.6l-2,6.7h-2.5l6.5-21.2h3l6.5,21.2h-2.6l-2-6.7h-6.9Zm6.3-2.1l-1.9-6.1c-.4-1.4-.7-2.6-1-3.9h-.1c-.3,1.2-.6,2.5-.9,3.8l-1.9,6.1h5.8v.1Z"/><path class="cls-1" d="m63.4,251.5c.8.5,2.1,1.1,3.3,1.1,1.8,0,2.6-1,2.6-2.3s-.7-2-2.5-2.8c-2.5-1-3.7-2.5-3.7-4.3,0-2.5,1.8-4.5,4.7-4.5,1.4,0,2.6.4,3.4,1l-.6,2c-.5-.3-1.5-.9-2.8-.9-1.5,0-2.3,1-2.3,2.1,0,1.3.8,1.9,2.6,2.6,2.4,1,3.6,2.3,3.6,4.6,0,2.7-1.9,4.6-5.1,4.6-1.5,0-2.9-.4-3.9-1.1l.7-2.1h0Z"/><path class="cls-1" d="m75.5,251.5c.8.5,2.1,1.1,3.3,1.1,1.8,0,2.6-1,2.6-2.3s-.7-2-2.5-2.8c-2.5-1-3.7-2.5-3.7-4.3,0-2.5,1.8-4.5,4.7-4.5,1.4,0,2.6.4,3.4,1l-.6,2c-.5-.3-1.5-.9-2.8-.9-1.5,0-2.3,1-2.3,2.1,0,1.3.8,1.9,2.6,2.6,2.4,1,3.6,2.3,3.6,4.6,0,2.7-1.9,4.6-5.1,4.6-1.5,0-2.9-.4-3.9-1.1l.7-2.1h0Z"/><path class="cls-1" d="m93.5,254.6c-3.7,0-6.6-3-6.6-7.8,0-5.1,3-8.1,6.8-8.1s6.6,3.2,6.6,7.8c0,5.7-3.5,8.1-6.8,8.1h0Zm.1-2.1c2.4,0,4.2-2.5,4.2-6,0-2.6-1.2-5.8-4.1-5.8s-4.2,3-4.2,5.9c-.1,3.4,1.6,5.9,4.1,5.9h0Z"/><path class="cls-1" d="m114.1,253.8c-.6.4-2.1.9-3.9.9-4.1,0-6.8-3.1-6.8-7.8s2.9-8.1,7.4-8.1c1.5,0,2.8.4,3.5.8l-.6,2.1c-.6-.3-1.5-.7-2.9-.7-3.1,0-4.8,2.6-4.8,5.8,0,3.5,2,5.7,4.8,5.7,1.4,0,2.4-.4,3.1-.7l.2,2h0Z"/><path class="cls-1" d="m119.1,236.2c-.9,0-1.5-.8-1.5-1.8s.6-1.8,1.6-1.8,1.6.8,1.6,1.8c-.1,1-.7,1.8-1.7,1.8h0Zm-1.2,2.8h2.5v15.3h-2.5v-15.3Z"/><path class="cls-1" d="m135,250.6c0,1.3.1,2.6.2,3.6h-2.2l-.2-1.9h-.1c-.7,1.2-2.2,2.3-4.2,2.3-2.8,0-4.2-2.2-4.2-4.4,0-3.7,3-5.7,8.2-5.7v-.2c0-1.3-.3-3.6-3.1-3.5-1.3,0-2.6.4-3.6,1.1l-.6-1.9c1.1-.8,2.8-1.3,4.5-1.3,4.2,0,5.2,3.2,5.2,6.2v5.7h.1Zm-2.4-4.1c-2.7-.1-5.8.5-5.8,3.4,0,1.8,1.1,2.6,2.3,2.6,1.8,0,3-1.3,3.4-2.5.1-.3.1-.6.1-.9v-2.6Z"/><path class="cls-1" d="m142.9,235.4v3.6h3.6v2.1h-3.6v8.2c0,1.9.5,3,1.9,3,.7,0,1.1-.1,1.5-.2l.1,2.1c-.5.2-1.3.4-2.2.4-1.2,0-2.1-.5-2.7-1.2-.7-.8-1-2.2-1-4v-8.3h-2.1v-2.1h2.1v-2.8l2.4-.8h0Z"/><path class="cls-1" d="m151.3,236.2c-.9,0-1.6-.8-1.6-1.8s.7-1.8,1.6-1.8c1,0,1.6.8,1.6,1.8s-.6,1.8-1.6,1.8h0Zm-1.2,2.8h2.5v15.3h-2.5v-15.3Z"/><path class="cls-1" d="m163.2,254.6c-3.7,0-6.6-3-6.6-7.8,0-5.1,3-8.1,6.8-8.1s6.6,3.2,6.6,7.8c0,5.7-3.5,8.1-6.8,8.1h0Zm.1-2.1c2.4,0,4.2-2.5,4.2-6,0-2.6-1.2-5.8-4.1-5.8s-4.2,3-4.2,5.9c-.1,3.4,1.6,5.9,4.1,5.9h0Z"/><path class="cls-1" d="m174,243.2c0-1.6,0-2.9-.1-4.1h2.2l.1,2.5h0c.7-1.4,2.3-2.8,4.5-2.8,1.9,0,4.9,1.3,4.9,6.5v9.1h-2.5v-8.8c0-2.5-.8-4.5-3.2-4.5-1.6,0-2.9,1.3-3.3,2.8-.1.4-.2.9-.2,1.3v9.2h-2.5v-11.2h.1Z"/><path class="cls-1" d="m203,254.6c-3.7,0-6.6-3-6.6-7.8,0-5.1,3-8.1,6.8-8.1s6.6,3.2,6.6,7.8c.1,5.7-3.5,8.1-6.8,8.1h0Zm.1-2.1c2.4,0,4.2-2.5,4.2-6,0-2.6-1.2-5.8-4.1-5.8s-4.2,3-4.2,5.9c0,3.4,1.7,5.9,4.1,5.9h0Z"/><path class="cls-1" d="m214.1,254.3v-13.1h-1.9v-2.1h1.9v-.8c0-2.1.5-4.1,1.6-5.3.9-1,2.2-1.4,3.3-1.4.9,0,1.6.2,2.1.4l-.3,2.1c-.4-.2-.9-.4-1.6-.4-2.1,0-2.7,2.1-2.7,4.4v.8h3.3v2.1h-3.3v13.3h-2.4Z"/><path class="cls-1" d="m243.3,253.6c-.9.5-2.7,1-5.1,1-5.4,0-9.4-3.8-9.4-10.8s4.1-11.2,10-11.2c2.4,0,3.9.6,4.6.9l-.6,2.2c-.9-.5-2.2-.9-3.8-.9-4.5,0-7.5,3.2-7.5,8.8,0,5.2,2.7,8.5,7.3,8.5,1.5,0,3.1-.3,4-.9l.5,2.4h0Z"/><path class="cls-1" d="m256.8,250.6c0,1.3.1,2.6.2,3.6h-2.2l-.2-1.9h-.1c-.7,1.2-2.2,2.3-4.2,2.3-2.8,0-4.2-2.2-4.2-4.4,0-3.7,3-5.7,8.2-5.7v-.2c0-1.3-.3-3.6-3.1-3.5-1.3,0-2.6.4-3.6,1.1l-.6-1.9c1.1-.8,2.8-1.3,4.5-1.3,4.2,0,5.2,3.2,5.2,6.2v5.7h.1Zm-2.4-4.1c-2.7-.1-5.8.5-5.8,3.4,0,1.8,1.1,2.6,2.3,2.6,1.8,0,3-1.3,3.4-2.5.1-.3.1-.6.1-.9v-2.6Z"/><path class="cls-1" d="m261.7,243.2c0-1.6,0-2.9-.1-4.1h2.2l.1,2.5h0c.7-1.4,2.3-2.8,4.5-2.8,1.9,0,4.9,1.3,4.9,6.5v9.1h-2.5v-8.8c0-2.5-.8-4.5-3.2-4.5-1.6,0-2.9,1.3-3.3,2.8-.1.4-.2.9-.2,1.3v9.2h-2.5v-11.2h.1Z"/><path class="cls-1" d="m287.9,250.6c0,1.3.1,2.6.2,3.6h-2.2l-.2-1.9h-.1c-.7,1.2-2.2,2.3-4.2,2.3-2.8,0-4.2-2.2-4.2-4.4,0-3.7,3-5.7,8.2-5.7v-.2c0-1.3-.3-3.6-3.1-3.5-1.3,0-2.6.4-3.6,1.1l-.6-1.9c1.1-.8,2.8-1.3,4.5-1.3,4.2,0,5.2,3.2,5.2,6.2v5.7h.1Zm-2.4-4.1c-2.7-.1-5.8.5-5.8,3.4,0,1.8,1.1,2.6,2.3,2.6,1.8,0,3-1.3,3.4-2.5.1-.3.1-.6.1-.9v-2.6Z"/><path class="cls-1" d="m304.6,231.9v18.4c0,1.4,0,2.9.1,3.9h-2.2l-.1-2.6h-.1c-.8,1.7-2.4,3-4.6,3-3.3,0-5.9-3.1-5.9-7.7,0-5.1,2.8-8.2,6.1-8.2,2.1,0,3.6,1.1,4.1,2.3h.1v-9.1h2.5Zm-2.5,13.4c0-.4,0-.8-.1-1.2-.4-1.7-1.7-3.2-3.6-3.2-2.6,0-4.1,2.5-4.1,5.9,0,3.1,1.4,5.7,4.1,5.7,1.7,0,3.2-1.3,3.7-3.3.1-.4.1-.8.1-1.2v-2.7h-.1Z"/><path class="cls-1" d="m310.8,236.2c-.9,0-1.6-.8-1.6-1.8s.7-1.8,1.6-1.8c1,0,1.6.8,1.6,1.8s-.6,1.8-1.6,1.8h0Zm-1.2,2.8h2.5v15.3h-2.5v-15.3Z"/><path class="cls-1" d="m326.8,250.6c0,1.3.1,2.6.2,3.6h-2.2l-.2-1.9h-.2c-.7,1.2-2.2,2.3-4.2,2.3-2.8,0-4.2-2.2-4.2-4.4,0-3.7,3-5.7,8.2-5.7v-.2c0-1.3-.3-3.6-3.1-3.5-1.3,0-2.6.4-3.6,1.1l-.6-1.9c1.1-.8,2.8-1.3,4.5-1.3,4.2,0,5.2,3.2,5.2,6.2v5.7h.2Zm-2.5-4.1c-2.7-.1-5.8.5-5.8,3.4,0,1.8,1.1,2.6,2.3,2.6,1.8,0,3-1.3,3.4-2.5.1-.3.1-.6.1-.9v-2.6Z"/><path class="cls-1" d="m331.6,243.2c0-1.6,0-2.9-.1-4.1h2.2l.1,2.5h0c.7-1.4,2.3-2.8,4.6-2.8,1.9,0,4.8,1.3,4.8,6.5v9.1h-2.5v-8.8c0-2.5-.8-4.5-3.2-4.5-1.6,0-2.9,1.3-3.3,2.8-.1.4-.2.9-.2,1.3v9.2h-2.5v-11.2h.1Z"/><polygon class="cls-1" points="358.8 235.4 352.9 235.4 352.9 233.1 367.1 233.1 367.1 235.4 361.3 235.4 361.3 254.3 358.8 254.3 358.8 235.4"/><path class="cls-1" d="m370,243.8c0-1.8,0-3.3-.1-4.8h2.2l.1,3h.1c.6-2,2.1-3.3,3.8-3.3.2,0,.5,0,.7.1v2.6c-.3,0-.5-.1-.9-.1-1.7,0-3,1.5-3.3,3.5,0,.4-.1.9-.1,1.3v8.1h-2.5v-10.4h0Z"/><path class="cls-1" d="m389.8,250.6c0,1.3.1,2.6.2,3.6h-2.2l-.2-1.9h-.2c-.7,1.2-2.2,2.3-4.2,2.3-2.8,0-4.2-2.2-4.2-4.4,0-3.7,3-5.7,8.2-5.7v-.2c0-1.3-.3-3.6-3.1-3.5-1.3,0-2.6.4-3.6,1.1l-.6-1.9c1.1-.8,2.8-1.3,4.5-1.3,4.2,0,5.2,3.2,5.2,6.2v5.7h.2Zm-2.5-4.1c-2.7-.1-5.8.5-5.8,3.4,0,1.8,1.1,2.6,2.3,2.6,1.8,0,3-1.3,3.4-2.5.1-.3.1-.6.1-.9v-2.6Z"/><path class="cls-1" d="m395.6,239l2.7,8.5c.5,1.4.8,2.7,1.1,3.9h.1c.3-1.3.7-2.5,1.2-3.9l2.7-8.5h2.6l-5.4,15.2h-2.4l-5.2-15.2h2.6Z"/><path class="cls-1" d="m410.5,247.1c.1,3.7,2.2,5.3,4.7,5.3,1.8,0,2.9-.4,3.8-.8l.5,2c-.9.4-2.4,1-4.6,1-4.2,0-6.7-3.1-6.7-7.7s2.5-8.2,6.5-8.2c4.5,0,5.6,4.4,5.6,7.2,0,.6,0,1-.1,1.3l-9.7-.1h0Zm7.3-1.9c0-1.7-.6-4.5-3.4-4.5-2.5,0-3.6,2.6-3.8,4.5h7.2Z"/><rect class="cls-1" x="424.2" y="231.9" width="2.5" height="22.4"/><path class="cls-1" d="m441.7,247.6l-2,6.7h-2.5l6.5-21.2h3l6.5,21.2h-2.6l-2-6.7h-6.9Zm6.2-2.1l-1.9-6.1c-.4-1.4-.7-2.6-1-3.9h-.1c-.3,1.2-.6,2.5-.9,3.8l-1.9,6.1h5.8v.1Z"/><path class="cls-1" d="m468.5,252c0,3.5-.7,5.6-2,7-1.4,1.4-3.3,1.8-5,1.8-1.6,0-3.5-.5-4.6-1.3l.6-2.1c.9.7,2.3,1.2,4,1.2,2.5,0,4.4-1.5,4.4-5.4v-1.7h-.1c-.7,1.4-2.2,2.5-4.4,2.5-3.4,0-5.8-3.2-5.8-7.5,0-5.2,3-8.1,6.2-8.1,2.4,0,3.7,1.4,4.3,2.6h0l.1-2.3h2.2c-.1,1.1-.1,2.3-.1,4.2v9.1h.2Zm-2.5-7c0-.4,0-.9-.1-1.2-.5-1.6-1.6-3-3.5-3-2.4,0-4.1,2.2-4.1,5.8,0,3,1.4,5.5,4.1,5.5,1.6,0,3-1.1,3.5-2.9.1-.4.2-1,.2-1.5v-2.7h-.1Z"/><path class="cls-1" d="m474.8,247.1c0,3.7,2.2,5.3,4.7,5.3,1.8,0,2.9-.4,3.8-.8l.5,2c-.9.4-2.4,1-4.6,1-4.2,0-6.7-3.1-6.7-7.7s2.5-8.2,6.5-8.2c4.5,0,5.6,4.4,5.6,7.2,0,.6,0,1-.1,1.3l-9.7-.1h0Zm7.3-1.9c0-1.7-.6-4.5-3.4-4.5-2.5,0-3.6,2.6-3.8,4.5h7.2Z"/><path class="cls-1" d="m488.5,243.2c0-1.6,0-2.9-.1-4.1h2.2l.1,2.5h0c.7-1.4,2.3-2.8,4.5-2.8,1.9,0,4.9,1.3,4.9,6.5v9.1h-2.5v-8.8c0-2.5-.8-4.5-3.2-4.5-1.6,0-2.9,1.3-3.3,2.8-.1.4-.2.9-.2,1.3v9.2h-2.5v-11.2h.1Z"/><path class="cls-1" d="m514.8,253.8c-.6.4-2.1.9-3.9.9-4.1,0-6.8-3.1-6.8-7.8s2.9-8.1,7.4-8.1c1.5,0,2.8.4,3.5.8l-.6,2.1c-.6-.3-1.5-.7-2.9-.7-3.1,0-4.8,2.6-4.8,5.8,0,3.5,2,5.7,4.8,5.7,1.4,0,2.4-.4,3.1-.7l.2,2h0Z"/><path class="cls-1" d="m519.8,236.2c-.9,0-1.6-.8-1.6-1.8s.7-1.8,1.6-1.8c1,0,1.6.8,1.6,1.8s-.6,1.8-1.6,1.8h0Zm-1.2,2.8h2.5v15.3h-2.5v-15.3Z"/><path class="cls-1" d="m527.5,247.1c0,3.7,2.2,5.3,4.7,5.3,1.8,0,2.9-.4,3.8-.8l.5,2c-.9.4-2.4,1-4.6,1-4.2,0-6.7-3.1-6.7-7.7s2.5-8.2,6.5-8.2c4.5,0,5.6,4.4,5.6,7.2,0,.6,0,1-.1,1.3l-9.7-.1h0Zm7.3-1.9c0-1.7-.6-4.5-3.4-4.5-2.5,0-3.6,2.6-3.8,4.5h7.2Z"/><path class="cls-1" d="m540.8,251.5c.8.5,2.1,1.1,3.3,1.1,1.8,0,2.6-1,2.6-2.3s-.7-2-2.5-2.8c-2.5-1-3.7-2.5-3.7-4.3,0-2.5,1.8-4.5,4.7-4.5,1.4,0,2.6.4,3.4,1l-.6,2c-.5-.3-1.5-.9-2.8-.9-1.5,0-2.3,1-2.3,2.1,0,1.3.8,1.9,2.6,2.6,2.4,1,3.6,2.3,3.6,4.6,0,2.7-1.9,4.6-5.1,4.6-1.5,0-2.9-.4-3.9-1.1l.7-2.1h0Z"/><path class="cls-1" d="m4.5,281.4l-2,6.7H0l6.5-21.2h3l6.5,21.2h-2.6l-2-6.7h-6.9Zm6.2-2.2l-1.9-6.1c-.4-1.4-.7-2.6-1-3.9h-.1c-.3,1.2-.6,2.5-.9,3.8l-1.9,6.1h5.8v.1Z"/><path class="cls-1" d="m19,285.2c.8.5,2.1,1.1,3.3,1.1,1.8,0,2.6-1,2.6-2.3s-.7-2-2.5-2.8c-2.5-1-3.7-2.5-3.7-4.3,0-2.5,1.8-4.5,4.7-4.5,1.4,0,2.6.4,3.4,1l-.6,2c-.5-.3-1.5-.9-2.8-.9-1.5,0-2.3,1-2.3,2.1,0,1.3.8,1.9,2.6,2.6,2.4,1,3.6,2.3,3.6,4.6,0,2.7-1.9,4.6-5.1,4.6-1.5,0-2.9-.4-3.9-1.1l.7-2.1h0Z"/><path class="cls-1" d="m31,285.2c.8.5,2.1,1.1,3.3,1.1,1.8,0,2.6-1,2.6-2.3s-.7-2-2.5-2.8c-2.5-1-3.7-2.5-3.7-4.3,0-2.5,1.8-4.5,4.7-4.5,1.4,0,2.6.4,3.4,1l-.6,2c-.5-.3-1.5-.9-2.8-.9-1.5,0-2.3,1-2.3,2.1,0,1.3.8,1.9,2.6,2.6,2.4,1,3.6,2.3,3.6,4.6,0,2.7-1.9,4.6-5.1,4.6-1.5,0-2.9-.4-3.9-1.1l.7-2.1h0Z"/><path class="cls-1" d="m48.8,288.4c-3.7,0-6.6-3-6.6-7.8,0-5.1,3-8.1,6.8-8.1s6.6,3.2,6.6,7.8c0,5.6-3.5,8.1-6.8,8.1h0Zm.1-2.1c2.4,0,4.2-2.5,4.2-6,0-2.6-1.2-5.8-4.1-5.8s-4.2,3-4.2,5.9c-.1,3.4,1.7,5.9,4.1,5.9h0Z"/><path class="cls-1" d="m69.3,287.5c-.6.4-2.1.9-3.9.9-4.1,0-6.8-3.1-6.8-7.8s2.9-8.1,7.4-8.1c1.5,0,2.8.4,3.5.8l-.6,2.1c-.6-.3-1.5-.7-2.9-.7-3.1,0-4.8,2.6-4.8,5.8,0,3.5,2,5.7,4.8,5.7,1.4,0,2.4-.4,3.1-.7l.2,2h0Z"/><path class="cls-1" d="m74.1,270c-.9,0-1.6-.8-1.6-1.8s.7-1.8,1.6-1.8c1,0,1.6.8,1.6,1.8,0,1-.6,1.8-1.6,1.8h0Zm-1.2,2.8h2.5v15.2h-2.5v-15.2Z"/><path class="cls-1" d="m89.9,284.4c0,1.3.1,2.6.2,3.6h-2.2l-.2-1.9h-.1c-.7,1.2-2.2,2.3-4.2,2.3-2.8,0-4.2-2.2-4.2-4.4,0-3.7,3-5.7,8.2-5.7v-.3c0-1.3-.3-3.6-3.1-3.5-1.3,0-2.6.4-3.6,1.1l-.6-1.9c1.1-.8,2.8-1.3,4.5-1.3,4.2,0,5.2,3.2,5.2,6.2v5.8h.1Zm-2.4-4.1c-2.7-.1-5.8.5-5.8,3.4,0,1.8,1.1,2.6,2.3,2.6,1.8,0,3-1.3,3.4-2.5.1-.3.1-.6.1-.9v-2.6Z"/><path class="cls-1" d="m97.6,269.1v3.6h3.6v2.1h-3.6v8.2c0,1.9.5,3,1.9,3,.7,0,1.1-.1,1.5-.2l.1,2.1c-.5.2-1.3.4-2.2.4-1.2,0-2.1-.5-2.7-1.2-.7-.8-1-2.2-1-4v-8.3h-2.1v-2.1h2.1v-2.8l2.4-.8h0Z"/><path class="cls-1" d="m105.9,270c-.9,0-1.5-.8-1.5-1.8s.6-1.8,1.6-1.8,1.6.8,1.6,1.8c0,1-.7,1.8-1.7,1.8h0Zm-1.2,2.8h2.5v15.2h-2.5v-15.2Z"/><path class="cls-1" d="m117.7,288.4c-3.7,0-6.6-3-6.6-7.8,0-5.1,3-8.1,6.8-8.1s6.6,3.2,6.6,7.8c0,5.6-3.6,8.1-6.8,8.1h0Zm0-2.1c2.4,0,4.2-2.5,4.2-6,0-2.6-1.2-5.8-4.1-5.8s-4.2,3-4.2,5.9c0,3.4,1.7,5.9,4.1,5.9h0Z"/><path class="cls-1" d="m128.3,276.9c0-1.6,0-2.9-.1-4.1h2.2l.1,2.5h0c.7-1.4,2.3-2.8,4.5-2.8,1.9,0,4.9,1.3,4.9,6.5v9.1h-2.5v-8.8c0-2.5-.8-4.5-3.2-4.5-1.6,0-2.9,1.3-3.3,2.8-.1.4-.2.9-.2,1.3v9.2h-2.5v-11.2h.1Z"/><path class="cls-1" d="m161.3,287.5c-.6.4-2.1.9-3.9.9-4.1,0-6.8-3.1-6.8-7.8s2.9-8.1,7.4-8.1c1.5,0,2.8.4,3.5.8l-.6,2.1c-.6-.3-1.5-.7-2.9-.7-3.1,0-4.8,2.6-4.8,5.8,0,3.5,2,5.7,4.8,5.7,1.4,0,2.4-.4,3.1-.7l.2,2h0Z"/><path class="cls-1" d="m174.6,284.4c0,1.3.1,2.6.2,3.6h-2.2l-.2-1.9h-.1c-.7,1.2-2.2,2.3-4.2,2.3-2.8,0-4.2-2.2-4.2-4.4,0-3.7,3-5.7,8.2-5.7v-.3c0-1.3-.3-3.6-3.1-3.5-1.3,0-2.6.4-3.6,1.1l-.6-1.9c1.1-.8,2.8-1.3,4.5-1.3,4.2,0,5.2,3.2,5.2,6.2v5.8h.1Zm-2.5-4.1c-2.7-.1-5.8.5-5.8,3.4,0,1.8,1.1,2.6,2.3,2.6,1.8,0,3-1.3,3.4-2.5.1-.3.1-.6.1-.9v-2.6Z"/><path class="cls-1" d="m179.3,276.9c0-1.6,0-2.9-.1-4.1h2.2l.1,2.5h0c.7-1.4,2.3-2.8,4.5-2.8,1.9,0,4.9,1.3,4.9,6.5v9.1h-2.5v-8.8c0-2.5-.8-4.5-3.2-4.5-1.6,0-2.9,1.3-3.3,2.8-.1.4-.2.9-.2,1.3v9.2h-2.5v-11.2h.1Z"/><path class="cls-1" d="m205.4,284.4c0,1.3.1,2.6.2,3.6h-2.2l-.2-1.9h-.1c-.7,1.2-2.2,2.3-4.2,2.3-2.8,0-4.2-2.2-4.2-4.4,0-3.7,3-5.7,8.2-5.7v-.3c0-1.3-.3-3.6-3.1-3.5-1.3,0-2.6.4-3.6,1.1l-.6-1.9c1.1-.8,2.8-1.3,4.5-1.3,4.2,0,5.2,3.2,5.2,6.2v5.8h.1Zm-2.4-4.1c-2.7-.1-5.8.5-5.8,3.4,0,1.8,1.1,2.6,2.3,2.6,1.8,0,3-1.3,3.4-2.5.1-.3.1-.6.1-.9v-2.6Z"/><path class="cls-1" d="m221.9,265.7v18.4c0,1.4,0,2.9.1,3.9h-2.2l-.1-2.6h-.1c-.8,1.7-2.4,3-4.6,3-3.3,0-5.9-3.1-5.9-7.7,0-5.1,2.8-8.2,6.1-8.2,2.1,0,3.6,1.1,4.1,2.3h.1v-9.1h2.5Zm-2.5,13.3c0-.4,0-.8-.1-1.2-.4-1.7-1.7-3.2-3.6-3.2-2.6,0-4.1,2.5-4.1,5.9,0,3.1,1.4,5.7,4.1,5.7,1.7,0,3.2-1.3,3.7-3.3.1-.4.1-.8.1-1.2v-2.7h-.1Z"/><path class="cls-1" d="m228,270c-.9,0-1.6-.8-1.6-1.8s.7-1.8,1.6-1.8c1,0,1.6.8,1.6,1.8,0,1-.6,1.8-1.6,1.8h0Zm-1.2,2.8h2.5v15.2h-2.5v-15.2Z"/><path class="cls-1" d="m235.6,280.9c0,3.7,2.2,5.3,4.7,5.3,1.8,0,2.9-.4,3.8-.8l.5,2c-.9.4-2.4,1-4.6,1-4.2,0-6.7-3.1-6.7-7.7s2.5-8.2,6.5-8.2c4.5,0,5.6,4.4,5.6,7.2,0,.6,0,1-.1,1.3l-9.7-.1h0Zm7.2-2c0-1.7-.6-4.5-3.4-4.5-2.5,0-3.6,2.6-3.8,4.5h7.2Z"/><path class="cls-1" d="m249,276.9c0-1.6,0-2.9-.1-4.1h2.2l.1,2.5h0c.7-1.4,2.3-2.8,4.5-2.8,1.9,0,4.9,1.3,4.9,6.5v9.1h-2.5v-8.8c0-2.5-.8-4.5-3.2-4.5-1.6,0-2.9,1.3-3.3,2.8-.1.4-.2.9-.2,1.3v9.2h-2.5v-11.2h.1Z"/><path class="cls-1" d="m265.5,276.9c0-1.6,0-2.9-.1-4.1h2.2l.1,2.5h0c.7-1.4,2.3-2.8,4.5-2.8,1.9,0,4.9,1.3,4.9,6.5v9.1h-2.5v-8.8c0-2.5-.8-4.5-3.2-4.5-1.6,0-2.9,1.3-3.3,2.8-.1.4-.2.9-.2,1.3v9.2h-2.5v-11.2h.1Z"/><path class="cls-1" d="m283.4,280.9c0,3.7,2.2,5.3,4.7,5.3,1.8,0,2.9-.4,3.8-.8l.5,2c-.9.4-2.4,1-4.6,1-4.2,0-6.7-3.1-6.7-7.7s2.5-8.2,6.5-8.2c4.5,0,5.6,4.4,5.6,7.2,0,.6,0,1-.1,1.3l-9.7-.1h0Zm7.2-2c0-1.7-.6-4.5-3.4-4.5-2.5,0-3.6,2.6-3.8,4.5h7.2Z"/><path class="cls-1" d="m315.4,265.7v18.4c0,1.4,0,2.9.1,3.9h-2.2l-.1-2.6h-.1c-.8,1.7-2.4,3-4.6,3-3.3,0-5.9-3.1-5.9-7.7,0-5.1,2.8-8.2,6.1-8.2,2.1,0,3.6,1.1,4.1,2.3h.1v-9.1h2.5Zm-2.5,13.3c0-.4,0-.8-.1-1.2-.4-1.7-1.7-3.2-3.6-3.2-2.6,0-4.1,2.5-4.1,5.9,0,3.1,1.4,5.7,4.1,5.7,1.7,0,3.2-1.3,3.7-3.3.1-.4.1-.8.1-1.2v-2.7h-.1Z"/><path class="cls-1" d="m321.7,280.9c.1,3.7,2.2,5.3,4.7,5.3,1.8,0,2.9-.4,3.8-.8l.5,2c-.9.4-2.4,1-4.6,1-4.2,0-6.7-3.1-6.7-7.7s2.5-8.2,6.5-8.2c4.5,0,5.6,4.4,5.6,7.2,0,.6,0,1-.1,1.3l-9.7-.1h0Zm7.3-2c0-1.7-.6-4.5-3.4-4.5-2.5,0-3.6,2.6-3.8,4.5h7.2Z"/><path class="cls-1" d="m334.8,285.2c.8.5,2.1,1.1,3.3,1.1,1.8,0,2.6-1,2.6-2.3s-.7-2-2.5-2.8c-2.5-1-3.7-2.5-3.7-4.3,0-2.5,1.8-4.5,4.7-4.5,1.4,0,2.6.4,3.4,1l-.6,2c-.5-.3-1.5-.9-2.8-.9-1.5,0-2.3,1-2.3,2.1,0,1.3.8,1.9,2.6,2.6,2.4,1,3.6,2.3,3.6,4.6,0,2.7-1.9,4.6-5.1,4.6-1.5,0-2.9-.4-3.9-1.1l.7-2.1h0Z"/><path class="cls-1" d="m363.5,284.4c0,1.3.1,2.6.2,3.6h-2.2l-.2-1.9h-.1c-.7,1.2-2.2,2.3-4.2,2.3-2.8,0-4.2-2.2-4.2-4.4,0-3.7,3-5.7,8.2-5.7v-.3c0-1.3-.3-3.6-3.1-3.5-1.3,0-2.6.4-3.6,1.1l-.6-1.9c1.1-.8,2.8-1.3,4.5-1.3,4.2,0,5.2,3.2,5.2,6.2v5.8h.1Zm-2.4-4.1c-2.7-.1-5.8.5-5.8,3.4,0,1.8,1.1,2.6,2.3,2.6,1.8,0,3-1.3,3.4-2.5.1-.3.1-.6.1-.9v-2.6Z"/><path class="cls-1" d="m379.9,285.8c0,3.5-.7,5.6-2,7-1.4,1.4-3.3,1.8-5,1.8-1.6,0-3.5-.5-4.6-1.3l.6-2.1c.9.7,2.3,1.2,4,1.2,2.5,0,4.4-1.5,4.4-5.4v-1.7h.1c-.7,1.4-2.2,2.5-4.4,2.5-3.4,0-5.8-3.2-5.8-7.5,0-5.2,3-8.1,6.2-8.1,2.4,0,3.6,1.4,4.3,2.6h0l.1-2.3h2.2c-.1,1.1-.1,2.3-.1,4.2v9.1h0Zm-2.5-7c0-.4,0-.9-.1-1.2-.5-1.6-1.6-3-3.5-3-2.4,0-4.1,2.2-4.1,5.8,0,3,1.4,5.5,4.1,5.5,1.6,0,3-1.1,3.5-2.9.1-.4.2-1,.2-1.5v-2.7h-.1Z"/><path class="cls-1" d="m386.2,280.9c0,3.7,2.2,5.3,4.7,5.3,1.8,0,2.9-.4,3.8-.8l.5,2c-.9.4-2.4,1-4.6,1-4.2,0-6.7-3.1-6.7-7.7s2.5-8.2,6.5-8.2c4.5,0,5.6,4.4,5.6,7.2,0,.6,0,1-.1,1.3l-9.7-.1h0Zm7.3-2c0-1.7-.6-4.5-3.4-4.5-2.6,0-3.6,2.6-3.8,4.5h7.2Z"/><path class="cls-1" d="m399.7,276.9c0-1.6,0-2.9-.1-4.1h2.2l.1,2.5h0c.7-1.4,2.3-2.8,4.5-2.8,1.9,0,4.9,1.3,4.9,6.5v9.1h-2.5v-8.8c0-2.5-.8-4.5-3.2-4.5-1.6,0-2.9,1.3-3.3,2.8-.1.4-.2.9-.2,1.3v9.2h-2.5v-11.2h.1Z"/><path class="cls-1" d="m425.9,287.5c-.6.4-2.1.9-3.9.9-4.1,0-6.8-3.1-6.8-7.8s2.9-8.1,7.4-8.1c1.5,0,2.8.4,3.5.8l-.6,2.1c-.6-.3-1.5-.7-2.9-.7-3.1,0-4.8,2.6-4.8,5.8,0,3.5,2,5.7,4.8,5.7,1.4,0,2.4-.4,3.1-.7l.2,2h0Z"/><path class="cls-1" d="m430.9,280.9c0,3.7,2.2,5.3,4.7,5.3,1.8,0,2.9-.4,3.8-.8l.5,2c-.9.4-2.4,1-4.6,1-4.2,0-6.7-3.1-6.7-7.7s2.5-8.2,6.5-8.2c4.5,0,5.6,4.4,5.6,7.2,0,.6,0,1-.1,1.3l-9.7-.1h0Zm7.3-2c0-1.7-.6-4.5-3.4-4.5-2.6,0-3.6,2.6-3.8,4.5h7.2Z"/><path class="cls-1" d="m444.1,285.2c.8.5,2.1,1.1,3.3,1.1,1.8,0,2.6-1,2.6-2.3s-.7-2-2.5-2.8c-2.5-1-3.7-2.5-3.7-4.3,0-2.5,1.8-4.5,4.7-4.5,1.4,0,2.6.4,3.4,1l-.6,2c-.5-.3-1.5-.9-2.8-.9-1.5,0-2.3,1-2.3,2.1,0,1.3.8,1.9,2.6,2.6,2.4,1,3.6,2.3,3.6,4.6,0,2.7-1.9,4.6-5.1,4.6-1.5,0-2.9-.4-3.9-1.1l.7-2.1h0Z"/><path class="cls-1" d="m474.9,265.7v18.4c0,1.4,0,2.9.1,3.9h-2.2l-.1-2.6h-.1c-.8,1.7-2.4,3-4.6,3-3.3,0-5.9-3.1-5.9-7.7,0-5.1,2.8-8.2,6.1-8.2,2.1,0,3.6,1.1,4.1,2.3h.1v-9.1h2.5Zm-2.5,13.3c0-.4,0-.8-.1-1.2-.4-1.7-1.7-3.2-3.6-3.2-2.6,0-4.1,2.5-4.1,5.9,0,3.1,1.4,5.7,4.1,5.7,1.7,0,3.2-1.3,3.7-3.3.1-.4.1-.8.1-1.2v-2.7h-.1Z"/><path class="cls-1" d="m481.2,280.9c0,3.7,2.2,5.3,4.7,5.3,1.8,0,2.9-.4,3.8-.8l.5,2c-.9.4-2.4,1-4.6,1-4.2,0-6.7-3.1-6.7-7.7s2.5-8.2,6.5-8.2c4.5,0,5.6,4.4,5.6,7.2,0,.6,0,1-.1,1.3l-9.7-.1h0Zm7.3-2c0-1.7-.6-4.5-3.4-4.5-2.5,0-3.6,2.6-3.8,4.5h7.2Z"/><path class="cls-1" d="m502.4,272.8l2.7,8.5c.5,1.4.8,2.7,1.1,3.9h.1c.3-1.3.7-2.5,1.2-3.9l2.7-8.5h2.6l-5.4,15.2h-2.4l-5.2-15.2h2.6Z"/><path class="cls-1" d="m521.3,288.4c-3.7,0-6.6-3-6.6-7.8,0-5.1,3-8.1,6.8-8.1s6.6,3.2,6.6,7.8c.1,5.6-3.5,8.1-6.8,8.1h0Zm.1-2.1c2.4,0,4.2-2.5,4.2-6,0-2.6-1.2-5.8-4.1-5.8s-4.2,3-4.2,5.9c0,3.4,1.7,5.9,4.1,5.9h0Z"/><path class="cls-1" d="m532.9,272.8l3,9c.4,1,.7,2.2.9,3.1h0c.3-.9.5-2.1.9-3.2l2.7-8.9h2.6l-3.7,10.9c-1.8,5.2-3,7.9-4.7,9.6-1.2,1.2-2.4,1.6-3.1,1.8l-.6-2.3c.6-.2,1.4-.6,2.2-1.4.7-.6,1.5-1.7,2.1-3.1.1-.3.2-.5.2-.7,0-.1,0-.4-.2-.7l-5.1-14.1h2.8Z"/><path class="cls-1" d="m555.8,284.4c0,1.3.1,2.6.2,3.6h-2.2l-.2-1.9h-.2c-.7,1.2-2.2,2.3-4.2,2.3-2.8,0-4.2-2.2-4.2-4.4,0-3.7,3-5.7,8.2-5.7v-.3c0-1.3-.3-3.6-3.1-3.5-1.3,0-2.6.4-3.6,1.1l-.6-1.9c1.1-.8,2.8-1.3,4.5-1.3,4.2,0,5.2,3.2,5.2,6.2v5.8h.2Zm-2.5-4.1c-2.7-.1-5.8.5-5.8,3.4,0,1.8,1.1,2.6,2.3,2.6,1.8,0,3-1.3,3.4-2.5.1-.3.1-.6.1-.9v-2.6Z"/><path class="cls-1" d="m572.2,285.8c0,3.5-.7,5.6-2,7-1.4,1.4-3.3,1.8-5,1.8-1.6,0-3.5-.5-4.6-1.3l.6-2.1c.9.7,2.3,1.2,4,1.2,2.5,0,4.4-1.5,4.4-5.4v-1.7h-.1c-.7,1.4-2.2,2.5-4.4,2.5-3.4,0-5.8-3.2-5.8-7.5,0-5.2,3-8.1,6.2-8.1,2.4,0,3.7,1.4,4.3,2.6h0l.1-2.3h2.2c-.1,1.1-.1,2.3-.1,4.2v9.1h.2Zm-2.5-7c0-.4,0-.9-.1-1.2-.5-1.6-1.6-3-3.5-3-2.4,0-4.1,2.2-4.1,5.8,0,3,1.4,5.5,4.1,5.5,1.6,0,3-1.1,3.5-2.9.1-.4.2-1,.2-1.5v-2.7h-.1Z"/><path class="cls-1" d="m578.4,280.9c0,3.7,2.2,5.3,4.7,5.3,1.8,0,2.9-.4,3.8-.8l.5,2c-.9.4-2.4,1-4.6,1-4.2,0-6.7-3.1-6.7-7.7s2.5-8.2,6.5-8.2c4.5,0,5.6,4.4,5.6,7.2,0,.6,0,1-.1,1.3l-9.7-.1h0Zm7.3-2c0-1.7-.6-4.5-3.4-4.5-2.6,0-3.6,2.6-3.8,4.5h7.2Z"/><path class="cls-1" d="m591.6,285.2c.8.5,2.1,1.1,3.3,1.1,1.8,0,2.6-1,2.6-2.3s-.7-2-2.5-2.8c-2.5-1-3.6-2.5-3.6-4.3,0-2.5,1.8-4.5,4.7-4.5,1.4,0,2.6.4,3.4,1l-.6,2c-.5-.3-1.5-.9-2.8-.9-1.5,0-2.3,1-2.3,2.1,0,1.3.8,1.9,2.6,2.6,2.4,1,3.6,2.3,3.6,4.6,0,2.7-1.9,4.6-5.1,4.6-1.5,0-2.9-.4-3.9-1.1l.6-2.1h0Z"/></svg>