<?xml version="1.0" encoding="UTF-8"?><svg id="layer" xmlns="http://www.w3.org/2000/svg" viewBox="0 0 599.8 204.32"><defs><style>.cls-1{fill:#fff;}</style></defs><path class="cls-1" d="m337.9,109.62c-.2-.7-.4-1.5-.8-2.1-.3-.6-.8-1.2-1.3-1.7s-1.2-.9-1.8-1.1c-.8-.3-1.6-.4-2.5-.4-2.4-.1-4.7,1.1-6,3.2-.6,1-1.1,2.1-1.3,3.3-.6,2.5-.6,5,0,7.5.3,1.1.7,2.3,1.3,3.3,1.3,2,3.6,3.2,6,3.2.9,0,1.8-.2,2.6-.5.8-.4,1.4-.9,2-1.5.6-.7,1-1.4,1.3-2.2.3-.9.5-1.8.6-2.7h4.4c-.1,1.5-.4,3-1,4.4-.5,1.3-1.3,2.4-2.3,3.4s-2.2,1.7-3.4,2.2c-1.4.5-2.8.8-4.3.8-1.8,0-3.6-.4-5.2-1.1-1.5-.7-2.8-1.7-3.9-3s-1.9-2.8-2.5-4.5c-1.1-3.5-1.1-7.3,0-10.8.5-1.6,1.4-3.1,2.5-4.4,2.2-2.7,5.6-4.2,9.1-4.1,1.4,0,2.7.2,4.1.6,1.2.4,2.4,1,3.4,1.8s1.8,1.8,2.4,2.9c.6,1.2,1,2.5,1.1,3.9l-4.5-.4h0Zm8.6-8.5h12.3c2.3-.2,4.6.5,6.4,1.9,1.5,1.4,2.2,3.3,2.1,5.3,0,1.1-.2,2.1-.5,3.2-.3.8-.8,1.4-1.3,2-.4.4-.9.8-1.4,1.1-.5.2-.8.4-1,.4v.1c.4.1.9.2,1.3.4.5.2.9.5,1.3,1s.7,1.1.9,1.7c.3.9.4,1.8.4,2.7,0,1.4.1,2.9.3,4.3.1,1,.5,1.9,1.1,2.7h-4.8c-.3-.6-.5-1.2-.6-1.9-.1-.7-.1-1.4-.1-2,0-1.1-.1-2.1-.2-3.2-.1-.8-.4-1.5-.8-2.2-.4-.6-.9-1.1-1.6-1.3-.8-.3-1.7-.4-2.5-.4h-6.7v11h-4.5l-.1-26.8h0Zm4.6,12.2h7.4c1.2.1,2.4-.3,3.3-1.1.8-.9,1.2-2,1.1-3.2,0-.7-.1-1.4-.4-2.1-.2-.5-.5-.9-1-1.3-.4-.3-.9-.5-1.5-.6-.5-.1-1.1-.1-1.7-.1h-7.3l.1,8.4h0Zm20.6-12.2h4.5v15.6c0,.9,0,1.8.1,2.7.1.9.3,1.7.7,2.5.4.7,1.1,1.4,1.8,1.8,2.2.9,4.6.9,6.8,0,.8-.4,1.4-1.1,1.8-1.8.4-.8.7-1.6.7-2.5.1-.9.1-1.8.1-2.7v-15.6h4.5v17.1c0,1.5-.2,3.1-.8,4.5-.5,1.2-1.2,2.3-2.2,3.2-1,.9-2.1,1.5-3.3,1.9-2.8.9-5.9.9-8.7,0-1.3-.4-2.4-1-3.3-1.9-1-.9-1.7-2-2.2-3.2-.5-1.4-.8-2.9-.8-4.5v-17.1h.3Zm26.4,0h4.5v26.7h-4.5v-26.7Zm13,17.8c0,.9.2,1.8.5,2.7.3.7.8,1.3,1.4,1.8s1.3.8,2.1,1c.8.2,1.7.3,2.5.3.9,0,1.7-.1,2.5-.4.6-.2,1.2-.5,1.7-.9.4-.3.8-.8,1-1.3s.3-1,.3-1.5c.1-.8-.2-1.6-.7-2.3-.4-.4-.9-.8-1.5-1-1.1-.4-2.1-.7-3.2-1-1.2-.3-2.7-.7-4.5-1.2-1-.3-1.9-.7-2.8-1.2-.7-.4-1.3-1-1.8-1.6-.4-.6-.7-1.2-.9-1.9-.2-.7-.3-1.4-.3-2.1,0-1.2.3-2.4.8-3.5.5-1,1.3-1.8,2.1-2.5.9-.7,1.9-1.1,3.1-1.4,1.1-.3,2.3-.5,3.4-.5,1.3,0,2.6.2,3.8.5,1.1.3,2.2.9,3.2,1.6.9.7,1.6,1.6,2.2,2.7.5,1.2.8,2.4.8,3.7h-4.4c0-1.4-.6-2.8-1.7-3.6-1.1-.7-2.5-1.1-3.9-1.1-.5,0-1.1.1-1.6.2s-1,.3-1.5.6c-.5.3-.9.6-1.1,1.1-.3.5-.5,1.1-.4,1.7,0,.8.3,1.6.9,2.2s1.4,1,2.2,1.2l1.1.3,2.2.6,2.4.6,1.7.5c.8.3,1.5.6,2.2,1.1.6.4,1.1,1,1.6,1.6.4.6.7,1.3,1,2,.9,3.2-.3,6.6-2.9,8.5-1,.7-2.1,1.2-3.3,1.5-1.2.3-2.5.5-3.8.5-1.4,0-2.8-.2-4.1-.6-1.2-.3-2.4-.9-3.4-1.7-1-.8-1.8-1.8-2.3-3-.6-1.3-.9-2.8-.9-4.3l4.3.1h0Zm20.5-17.8h18.6v4h-14.1v7h13v3.8h-13v7.8h14.3v4h-18.8v-26.6c0,.1,0,0,0,0Zm32.8,0h4.5v22.6h13.1v4h-17.6v-26.6h0Zm20.7,0h4.6v26.7h-4.5l-.1-26.7h0Zm9.9,0h4.8l11.8,19.7h0v-19.7h4.3v26.7h-4.8l-11.7-19.6h-.1v19.6h-4.3v-26.7h0Zm26.2,0h18.6v4h-14.1v7h13v3.8h-13v7.8h14.3v4h-18.8v-26.6h0Zm25.8,17.8c0,.9.1,1.8.5,2.7.3.7.8,1.3,1.4,1.8.6.5,1.3.8,2.1,1s1.7.3,2.6.3,1.7-.1,2.5-.4c.6-.2,1.2-.5,1.7-.9.4-.3.7-.8.9-1.3s.3-1,.3-1.5c.1-.8-.2-1.6-.7-2.3-.4-.4-.9-.8-1.5-1-1-.4-2.1-.7-3.2-1-1.2-.3-2.7-.7-4.5-1.2-1-.3-1.9-.7-2.8-1.2-.7-.4-1.3-1-1.8-1.6-.4-.6-.7-1.2-.9-1.9-.2-.7-.3-1.4-.3-2.1,0-1.2.3-2.4.8-3.5.5-1,1.3-1.8,2.2-2.5s1.9-1.1,3-1.4,2.3-.5,3.4-.5c1.3,0,2.6.2,3.8.5,1.1.3,2.2.9,3.2,1.6.9.7,1.6,1.6,2.1,2.7s.8,2.4.8,3.7h-4.5c0-1.4-.6-2.8-1.7-3.6-1.1-.7-2.5-1.1-3.9-1.1-.5,0-1.1.1-1.6.2s-1,.3-1.5.6c-.4.3-.9.6-1.1,1.1-.3.5-.5,1.1-.4,1.7-.1.8.3,1.6.8,2.2.6.6,1.4,1,2.2,1.2l1.1.3,2.2.6,2.4.7,1.7.5c.8.3,1.5.6,2.2,1.1.6.4,1.1,1,1.6,1.6.4.6.7,1.3.9,2,.9,3.2-.2,6.6-2.9,8.5-1,.7-2.1,1.2-3.3,1.5s-2.5.5-3.8.5c-1.4,0-2.8-.2-4.1-.6-1.2-.3-2.4-.9-3.4-1.7-1-.8-1.8-1.8-2.3-3-.6-1.4-.9-2.8-.9-4.3h4.7Zm-226.5,20.5h4.5v26.7h-4.5v-26.7Zm9.8,0h4.8l11.8,19.6h0v-19.6h4.3v26.7h-4.8l-11.7-19.6h-.1v19.6h-4.3v-26.7h0Zm23.8,0h20.9v4h-8.2v22.6h-4.5v-22.6h-8.2v-4h0Zm23.9,0h18.6v4h-14.1v7h13v3.8h-13v7.8h14.3v4h-18.8v-26.6h0Zm22.8,0h12.3c2.3-.2,4.6.5,6.4,1.9,1.5,1.4,2.2,3.3,2.1,5.3,0,1.1-.2,2.1-.5,3.2-.3.7-.8,1.4-1.3,2-.4.5-.9.8-1.4,1.1-.5.2-.8.4-1,.5h0c.4.1.9.2,1.3.4.5.2.9.5,1.2,1,.4.5.8,1.1,1,1.7.3.9.4,1.8.4,2.7,0,1.4.1,2.9.4,4.3.1,1,.5,1.9,1.1,2.7h-4.8c-.3-.6-.5-1.2-.6-1.9-.1-.7-.1-1.4-.1-2,0-1.1-.1-2.1-.2-3.2-.1-.8-.4-1.5-.8-2.2-.4-.6-.9-1-1.6-1.3-.8-.3-1.7-.4-2.6-.4h-6.7v11h-4.5l-.1-26.8h0Zm4.5,12.2h7.4c1.2.1,2.4-.3,3.3-1.1.8-.9,1.2-2,1.1-3.2,0-.7-.1-1.4-.4-2.1-.2-.5-.5-.9-1-1.3-.4-.3-.9-.5-1.5-.6-.5-.1-1.1-.2-1.7-.2h-7.3v8.5h.1Zm20.7-12.2h4.8l11.8,19.6h0v-19.6h4.3v26.7h-4.8l-11.7-19.6h-.1v19.6h-4.3v-26.7h0Zm33.2,0h4.8l9.9,26.7h-4.8l-2.4-7.1h-10.3l-2.4,7.1h-4.6l9.8-26.7Zm-1.6,16.1h7.9l-3.8-11.5h-.1l-4,11.5Zm13-16.1h20.9v4h-8.2v22.6h-4.5v-22.6h-8.2v-4h0Zm23.9,0h4.5v26.7h-4.5v-26.7Zm21-.6c3.5-.1,6.8,1.5,9.1,4.1,1.1,1.3,1.9,2.8,2.5,4.5,1.1,3.5,1.1,7.3,0,10.8-.5,1.6-1.4,3.1-2.5,4.4s-2.4,2.3-3.9,3c-3.3,1.5-7.1,1.5-10.4,0-1.5-.7-2.8-1.7-3.9-3-1.1-1.3-1.9-2.8-2.5-4.4-1.1-3.5-1.1-7.3,0-10.8.5-1.6,1.4-3.1,2.5-4.5,2.3-2.7,5.7-4.2,9.1-4.1Zm0,3.8c-2.4-.1-4.7,1.1-6,3.2-.6,1-1.1,2.1-1.3,3.3-.6,2.5-.6,5,0,7.5.3,1.1.7,2.3,1.3,3.3,2.2,3.3,6.6,4.2,9.9,2,.8-.5,1.5-1.2,2-2,.6-1,1.1-2.1,1.3-3.3.6-2.5.6-5,0-7.5-.3-1.1-.7-2.2-1.3-3.3-1.2-2.1-3.4-3.3-5.9-3.2h0Zm16.4-3.2h4.7l11.8,19.7h0v-19.6h4.3v26.6h-4.7l-11.8-19.6h0v19.6h-4.3v-26.7h0Zm33.1,0h4.8l9.9,26.7h-4.9l-2.4-7.1h-10.3l-2.4,7.1h-4.6l9.9-26.7Zm-1.6,16.1h7.9l-3.9-11.5h-.1l-3.9,11.5Zm18.8-16.1h4.5v22.6h13.1v4h-17.7l.1-26.6h0Zm-254.9,37.4h4.8l9.9,26.7h-4.8l-2.4-7.1h-10.3l-2.4,7.1h-4.7l9.9-26.7Zm-1.6,16h7.9l-3.8-11.5h-.1l-4,11.5Zm21.8,1.8c0,.9.1,1.8.5,2.7.3.7.8,1.3,1.4,1.8s1.3.8,2.1,1c.8.2,1.7.3,2.6.3s1.7-.2,2.5-.4c.6-.2,1.2-.5,1.7-.9.4-.4.8-.8,1-1.3s.3-1,.3-1.5c.1-.8-.2-1.6-.7-2.3-.4-.4-.9-.8-1.5-1-1.1-.4-2.1-.7-3.2-1-1.2-.3-2.7-.7-4.4-1.2-1-.2-1.9-.6-2.8-1.2-.7-.4-1.3-1-1.8-1.6-.4-.6-.7-1.2-.9-1.9-.2-.7-.3-1.4-.3-2.1,0-1.2.2-2.4.8-3.5.5-1,1.3-1.8,2.2-2.5.9-.7,1.9-1.1,3-1.4s2.3-.4,3.4-.4c1.3,0,2.6.2,3.8.5,1.1.3,2.2.9,3.2,1.6.9.7,1.6,1.6,2.2,2.7.5,1.1.8,2.4.8,3.7h-4.5c0-1.4-.6-2.8-1.7-3.7-1.1-.7-2.5-1.1-3.9-1.1-.5,0-1.1.1-1.6.2s-1.1.3-1.5.5c-.4.3-.8.6-1.1,1.1-.4.5-.5,1.1-.5,1.7-.1.8.3,1.6.8,2.2.6.6,1.4,1,2.2,1.2l1.1.3,2.2.6,2.4.7,1.7.5c.8.2,1.5.6,2.2,1.1.6.5,1.1,1,1.6,1.6.4.6.7,1.3.9,2,.9,3.2-.2,6.6-2.9,8.5-1,.7-2.1,1.2-3.3,1.5-1.2.3-2.5.5-3.8.4-1.4,0-2.8-.2-4.1-.5-1.2-.3-2.4-.9-3.4-1.7-1-.8-1.8-1.8-2.3-2.9-.6-1.4-.9-2.8-.9-4.3h4.5Zm23.4,0c0,.9.2,1.8.5,2.7.3.7.8,1.3,1.4,1.8s1.3.8,2.1,1c.8.2,1.7.3,2.6.3.8,0,1.7-.1,2.5-.4.6-.2,1.2-.5,1.7-.9.4-.4.8-.8.9-1.3.2-.5.3-1,.3-1.5.1-.8-.2-1.6-.7-2.2-.4-.5-.9-.8-1.5-1-1.1-.4-2.1-.7-3.2-1-1.2-.3-2.7-.7-4.5-1.2-1-.3-1.9-.7-2.8-1.2-.7-.4-1.3-1-1.8-1.7-.4-.6-.7-1.2-.9-1.9-.2-.7-.3-1.4-.3-2.1,0-1.2.3-2.4.8-3.5.5-1,1.3-1.8,2.1-2.5.9-.7,1.9-1.1,3.1-1.4,1.1-.3,2.3-.4,3.4-.4,1.3,0,2.6.2,3.8.5,1.1.3,2.2.9,3.2,1.6.9.7,1.6,1.6,2.2,2.7.5,1.1.8,2.4.8,3.7h-4.5c0-1.4-.6-2.8-1.7-3.7-1.1-.7-2.5-1.1-3.9-1.1-.5,0-1.1.1-1.6.2s-1,.3-1.5.5c-.5.3-.9.6-1.1,1.1-.3.5-.5,1.1-.5,1.7,0,.8.3,1.6.9,2.2s1.4,1,2.2,1.2l1.1.3,2.2.6,2.4.7,1.7.5c.8.2,1.5.6,2.2,1.1.6.5,1.1,1,1.6,1.6.4.6.7,1.3,1,2,.9,3.2-.3,6.6-2.9,8.5-1,.7-2.1,1.2-3.3,1.5-1.2.3-2.5.5-3.8.4-1.4,0-2.8-.2-4.1-.5-1.2-.4-2.4-.9-3.4-1.7-1-.8-1.8-1.8-2.3-3-.6-1.4-.9-2.8-.9-4.3l4.5.1h0Zm31.5-18.4c3.5-.1,6.8,1.4,9.1,4.1,1.1,1.3,1.9,2.8,2.5,4.4,1.1,3.5,1.1,7.3,0,10.8-.5,1.6-1.4,3.1-2.5,4.5-1.1,1.3-2.4,2.3-3.9,3-3.3,1.5-7.1,1.5-10.4,0-1.5-.7-2.8-1.7-3.9-3s-1.9-2.8-2.4-4.5c-1.1-3.5-1.1-7.3,0-10.8.5-1.6,1.4-3.1,2.4-4.4,2.2-2.7,5.6-4.2,9.1-4.1Zm0,3.8c-2.4-.1-4.7,1.1-6,3.2-.6,1-1.1,2.1-1.3,3.3-.6,2.5-.6,5,0,7.5.3,1.1.7,2.3,1.3,3.3,2.2,3.3,6.6,4.2,9.9,2,.8-.5,1.5-1.2,2-2,.6-1,1.1-2.1,1.3-3.3.6-2.5.6-5,0-7.5-.3-1.1-.7-2.3-1.3-3.3-1.3-2.1-3.5-3.3-5.9-3.2h0Zm33.8,5.3c-.2-.7-.4-1.4-.8-2.1-.3-.6-.8-1.2-1.3-1.7s-1.2-.9-1.9-1.1c-.8-.3-1.7-.4-2.5-.4-2.4-.1-4.7,1.1-6,3.2-.6,1-1.1,2.1-1.3,3.3-.6,2.5-.6,5,0,7.5.3,1.2.7,2.3,1.3,3.3,1.3,2,3.6,3.2,6,3.2.9,0,1.8-.2,2.7-.5.8-.4,1.4-.9,2-1.5.6-.7,1-1.4,1.3-2.2.4-.9.6-1.8.7-2.8h4.4c-.1,1.5-.4,3-1,4.4-.5,1.3-1.3,2.5-2.3,3.4s-2.1,1.7-3.4,2.2c-1.4.5-2.8.8-4.3.8-1.8,0-3.6-.3-5.2-1.1-1.5-.7-2.8-1.7-3.9-3s-1.9-2.8-2.5-4.4c-1.1-3.5-1.1-7.3,0-10.8.5-1.6,1.4-3.1,2.5-4.5,2.2-2.7,5.6-4.2,9.1-4.1,1.4,0,2.8.2,4.1.6,1.2.4,2.4,1,3.4,1.8s1.8,1.8,2.4,2.9c.6,1.2,1,2.5,1.1,3.9l-4.6-.3h0Zm8.7-8.5h4.5v26.7h-4.5v-26.7Zm17.5,0h4.8l9.9,26.7h-4.8l-2.4-7.1h-10.3l-2.4,7.1h-4.6l9.8-26.7Zm-1.6,16h7.9l-3.9-11.5h-.1l-3.9,11.5Zm13.5-16h20.9v4h-8.2v22.6h-4.6v-22.6h-8.2v-4h.1Zm24.3,0h4.5v26.7h-4.5v-26.7Zm21.5-.6c3.5-.1,6.8,1.4,9.1,4.1,1.1,1.3,1.9,2.8,2.4,4.4,1.1,3.5,1.1,7.3,0,10.8-.5,1.6-1.4,3.1-2.4,4.5-1.1,1.3-2.4,2.3-3.9,3-3.3,1.5-7.1,1.5-10.4,0-1.5-.7-2.8-1.7-3.9-3-1.1-1.3-1.9-2.8-2.5-4.5-1.1-3.5-1.1-7.3,0-10.8.5-1.6,1.3-3.1,2.5-4.4,2.2-2.7,5.6-4.2,9.1-4.1Zm0,3.8c-2.4-.1-4.7,1.1-6,3.2-.6,1-1.1,2.1-1.3,3.3-.6,2.5-.6,5,0,7.5.2,1.1.7,2.3,1.3,3.3,2.2,3.3,6.6,4.2,9.9,2,.8-.5,1.5-1.2,2-2,.6-1,1.1-2.1,1.3-3.3.6-2.5.6-5,0-7.5-.3-1.1-.7-2.3-1.3-3.3-1.3-2.1-3.5-3.3-5.9-3.2h0Zm16.8-3.2h4.8l11.8,19.7h0v-19.7h4.3v26.7h-4.8l-11.8-19.6h-.1v19.6h-4.3l.1-26.7h0ZM164.5,100.62h25.7v102.9h-25.7v-102.9Zm-71.5,0h25.7v81.2h40.2v21.6h-65.9v-102.8Zm-22.8,33.6c-3.2-8.8-11.4-14.8-20.7-15-13.7,0-24.6,9.3-24.6,31.7,0,14.6,5.9,31.7,25.5,31.7,6.7,0,16.5-5,20.5-14l19.7,9.5c-8.6,15.5-23.4,25.4-40.2,25.4-31.8,0-50.4-24.6-50.4-52.6s17.4-52.7,48.5-52.7c19.6,0,32.5,9.5,41.8,26.1l-20.1,9.9Zm164.2,22l3.9,5.8-11.5,8.2v-5.1l7.6-8.9Zm-4.1-55.6h-31.5l-.1,102.8h25.7l.1-65.6,45.5,66h35.8l-75.5-103.2Zm32.1,39.9l.1-.1c32.2-27.6,60.9-59.1,85.4-93.8-16.1-9.9-50.3-10.8-50.3-10.8-78.9-2.7-168.5,33.3-221,63.1l.8,1.1c21.2-10.5,80.5-37.3,143.7-39.5,0,0,23.6-1,38.3,6.3,0,0,18.2,7.5,11.8,31.3-3.6,11.6-9,22.5-16,32.4l-.1.1,7.3,9.9Zm-190.1-43.6l-.7-.9s1.8-1.7,4.2-3.8c18.4-15.9,38-30.3,58.8-43,33.5-20.5,66.8-33.6,90.3-37.5,4.3-.6,8.6-1,12.9-1.1,0,0,20.7-.3,20.7,10.8.1,2.2-.5,4.3-1.8,6,0,0-2.5-4.5-6.7-5.7-5-1.3-23-4.9-74.9,12.9-7.7,2.7-15.2,6-22.5,9.7-8.6,4.4-17.4,9.2-25.8,14.2-3,1.7-5.9,3.7-8.7,5.4-11,6.6-20.7,13.8-28.2,19.3-9.6,6.9-17.6,13.7-17.6,13.7ZM200.9,12.32s-5.1-17.7-53.8,9.3c-18.5,10.3-33,22.6-45.6,33.9-12.4,11.1-24,23.1-34.9,35.8l-.8-1.1s18.6-25.4,42.2-46.2c21.9-19.4,30.9-24.7,47.6-34.1,20.1-11.1,49.7-16.1,45.3,2.4Zm-66.3,3.1c-28-6.6-75.8,73-75.8,73l-.7-1c5.9-11.8,12.5-23.2,19.7-34.2,11.6-17.4,27.5-32.3,35.2-36.6,23.4-13.1,21.6-1.2,21.6-1.2Z"/></svg>