<?xml version="1.0" encoding="UTF-8"?><svg id="Layer_1" xmlns="http://www.w3.org/2000/svg" viewBox="0 0 1067.53 261.35"><defs><style>.cls-1{fill:#fff;}</style></defs><g><path class="cls-1" d="m739.57,169.79c0-26.65,0-53.3,0-79.96,0-6.72.04-6.79,6.92-6.79,20.99-.01,41.99-.43,62.96.18,22.71.66,42.88,8.15,57.95,25.97,9.97,11.79,15.35,25.81,17.4,41.1.7,5.25,2.17,10.56,1.87,15.76-.68,11.9-1.11,24.01-3.69,35.57-4.13,18.52-13.93,34.06-30.69,43.88-6.63,3.88-14.16,6.74-21.64,8.51-8.18,1.93-16.77,2.7-25.2,2.86-19.65.38-39.31.14-58.97.04-6.75-.03-6.98-.4-6.98-7.16-.01-26.65,0-53.3,0-79.96h.07Zm30.88-.27h-.03c0,8-.05,15.99.01,23.99.08,9.83.23,19.65.41,29.48.05,2.77.36,5.61,4.19,5.49,14.63-.45,29.4.09,43.86-1.74,15.21-1.93,26.28-11.08,30.66-26.17,6.26-21.56,7.08-43.23-2.87-64.12-6.11-12.84-16.17-21.73-30.49-23.41-13.18-1.55-26.57-1.15-39.86-1.79-4.72-.23-6,1.91-5.96,6.29.16,17.32.07,34.65.07,51.98Z"/><path class="cls-1" d="m998.29,78.54c24.28-.36,46.56,10.08,64.22,30.6,2.1,2.44,2.56,4.78-.83,7.02-6.04,3.98-11.91,8.23-17.69,12.59-2.94,2.22-4.97,1.44-7.23-.94-3.77-3.96-7.35-8.24-11.67-11.51-13.48-10.18-29-10.61-44.72-7.68-4.83.9-9.86,3.29-13.73,6.35-10.65,8.41-8.8,24.1,3.89,28.96,10.45,4,21.72,5.89,32.7,8.43,16.32,3.79,32.51,7.8,46.76,17.25,8.81,5.84,14.16,14.2,16.2,24.14,4.33,21.12-1.6,41.22-20.59,53.47-21.66,13.96-45.4,16.26-70.35,12.57-14.96-2.21-28.69-7.26-40.59-16.4-5.66-4.35-10.15-10.27-14.93-15.7-.6-.68-.24-3.34.55-3.95,6.4-4.92,13.01-9.57,19.56-14.3,2.98-2.15,5.23-1.52,7.61,1.3,17.95,21.29,41.47,24.79,67,19.72,9.23-1.83,16.87-7.43,18.6-17.76,2.08-12.43-2.93-18.71-14.7-22.31-12.68-3.88-25.83-6.22-38.77-9.26-13.59-3.19-27.23-6.6-38.23-15.67-4.32-3.55-8.19-8.51-10.37-13.64-9.88-23.2-.8-49.63,20.53-62.23,13.64-8.06,28.35-10.93,46.79-11.06Z"/><path class="cls-1" d="m565.13,183.8c0,21.65,0,43.3,0,64.96,0,7.32-.68,8.05-7.92,8.12-5.16.05-10.33.08-15.49-.09-6.8-.23-7.84-1.17-7.85-8-.04-20.65.15-41.3.14-61.96-.02-22.98-.16-45.97-.28-68.95-.03-6.53-.1-6.55-6.82-6.55-11.99,0-23.99-.05-35.98.12-3.42.05-4.75-1.02-4.63-4.55.21-6.15.23-12.33-.03-18.48-.18-4.13,1.4-5.61,5.47-5.57,13.49.15,26.98.09,40.47.1,24.82.02,49.63.02,74.45.07,6.55.01,6.59.08,6.64,6.75.04,5.16-.14,10.33-.02,15.49.09,4.14-1.48,6.04-5.86,5.99-11.82-.14-23.65,0-35.48.03-6.67.01-6.77.04-6.77,6.56-.03,21.99-.01,43.97-.01,65.96-.01,0-.03,0-.04,0Z"/><path class="cls-1" d="m684.73,170.43c0,26.64.01,53.28,0,79.92,0,6.68-.21,6.93-7.06,7.04-6.16.1-12.32-.16-18.47-.03-5.02.11-6.73-2.43-6.71-7.08.09-22.64.05-45.29.11-67.93.07-29.3.08-58.6.33-87.9.13-14.67.14-11.61,11.82-12.09,4.15-.17,8.33-.08,12.49.04,6.64.19,7.16.6,7.2,7.12.15,25.64.19,51.28.27,76.92,0,1.33,0,2.66,0,4h.04Z"/><path class="cls-1" d="m444.79,169.26c0,27.34,0,54.67,0,82.01,0,1.33.23,2.81-.28,3.94-.43.96-1.79,2.14-2.71,2.11-1.21-.04-3.01-.9-3.42-1.88-.67-1.6-.53-3.59-.53-5.41-.03-53.67-.03-107.34-.04-161.02,0-1,.09-2,.04-3-.15-2.83,1.39-4.34,3.91-3.59,1.29.38,2.92,2.49,2.93,3.83.2,19.17.16,38.34.17,57.5,0,8.5,0,17,0,25.5h-.07Z"/></g><path class="cls-1" d="m197.28,94.65c-6.85.23-13.61,1.73-19.98,4.43,2.91,6.05,6.52,11.05,10.89,15.69,2.84,3.01,5.87,5.56,9.08,7.65v-27.78s.01,0,.01,0Zm-123.09,80.41l-19.18,82.43h24.16l18.79-82.43h-23.77Zm103.9,82.43l-16.1-82.43h-24.15l-40.26,82.43h23.38l4.98-10.15h27.3l1.45,10.15h23.4Zm-27.23-26.4h-18.01l13.8-30.05,4.3,30.14-.09-.1Zm113.1-56.03h-69.78l-3.45,21.11h23.01l-9.97,61.32h23.77l9.97-61.32h22.63l3.83-21.11Zm72.08,82.43l-16.1-82.43h-24.15l-40.26,82.43h23.39l4.98-10.15h27.32l1.45,10.15h23.38Zm-27.23-26.4h-18.01l13.8-30.05,4.31,30.19-.1-.14Zm-33.92-146.64c-7.31,25.99-27.82,46.51-53.9,53.99.98,6.57,11.53,21.19,27.06,21.19h71.89c3.25,0,6.71-2.23,9.39-4.87s6.52-7.51,8.63-10.97h-66.33c-3.06,0-4.79-5.68,1.34-5.68h70.55c4.03-.2,13.23-9.34,14.96-13.4h-75.72c-1.48-.1-2.61-1.46-2.51-3.03.09-1.43,1.16-2.57,2.51-2.66h80.7c4.6-1.21,10.93-6.49,14.2-13.4h-83.59c-3.65,0-3.65-5.69,0-5.69h87.41c6.52-1.22,14.76-9.95,16.87-15.43l-123.46-.05h0Zm-148.2,59.33H60.38c2.11,3.46,5.95,8.33,8.63,10.97,2.68,2.64,6.13,4.87,9.39,4.87h71.89c15.52,0,26.07-14.62,27.05-21.19-26.07-7.48-46.59-27.99-53.89-53.99l-123.45.06c2.11,5.48,10.35,14.2,16.87,15.43h87.41c3.64,0,3.64,5.69,0,5.69H20.71c3.27,6.91,9.58,12.18,14.19,13.4h80.7c1.48.1,2.61,1.46,2.51,3.03-.09,1.43-1.16,2.57-2.51,2.66H39.87c1.72,4.06,10.93,13.19,14.95,13.4h70.55c6.14-.01,4.41,5.67,1.35,5.67h0Zm49.03-48.58c6.86-2.88,14.14-4.45,21.51-4.64v-25.55h-27.72c.19,10.58,2.49,21.16,6.21,30.19Zm-19.26,13.8c4.53-5.04,9.88-9.16,15.79-12.18-4.13-10.03-6.36-20.83-6.58-31.77h-27.99c.42,17.5,7,32.85,18.78,43.95Zm39.11,16.88c-3.7-2.27-7.1-5.05-10.12-8.25-4.68-4.97-8.56-10.7-11.51-16.98-5.4,2.75-10.32,6.39-14.5,10.83,9.76,8.18,22.66,13.47,36.14,14.41Zm1.66-90.58c-7.37-.18-14.66-1.75-21.51-4.64-3.88,9.55-5.99,19.81-6.21,30.2h27.72v-25.57Zm-19.95-8.5c6.36,2.7,13.12,4.2,19.98,4.43V3.47c-3.31,2.17-6.36,4.74-9.09,7.65-4.38,4.62-7.98,9.63-10.89,15.68h0Zm-5.03,2.25c-5.91-3.02-11.26-7.15-15.79-12.18-11.77,11.1-18.36,26.47-18.76,43.97h27.99c.18-11.26,2.63-22.23,6.57-31.78h0Zm13.2-20.8c3.22-3.41,6.42-5.92,10.12-8.25-13.49.94-26.38,6.23-36.15,14.41,4.19,4.43,9.1,8.07,14.5,10.83,2.96-6.28,6.85-12.01,11.53-16.98Zm15.61,82.33c7.37.18,14.66,1.75,21.51,4.64,3.88-9.55,5.99-19.81,6.21-30.2h-27.73v25.57h.01Zm9.08,24.19c4.37-4.64,7.97-9.64,10.89-15.69-6.36-2.7-13.12-4.2-19.98-4.43v27.77c3.21-2.08,6.24-4.64,9.09-7.64h0Zm50.47-49.72h-27.99c-.22,10.95-2.45,21.74-6.58,31.78,5.92,3.02,11.27,7.15,15.8,12.18,11.76-11.11,18.36-26.47,18.76-43.97h0Zm-57.89,60.83c13.49-.94,26.37-6.23,36.15-14.41-4.23-4.45-9.13-8.11-14.51-10.83-2.95,6.28-6.84,12.02-11.51,16.98-3.02,3.2-6.42,5.98-10.12,8.25h0Zm19.86-95.21c-6.86,2.88-14.14,4.45-21.51,4.64v25.57h27.73c-.22-10.4-2.33-20.65-6.22-30.2h0Zm-12.45-19.55c-2.73-2.92-5.78-5.49-9.08-7.65v27.77c6.85-.23,13.61-1.73,19.98-4.43-2.82-5.81-6.5-11.1-10.9-15.68Zm22.48,49.71h27.99c-.4-17.5-7-32.86-18.76-43.97-4.53,5.04-9.88,9.17-15.8,12.18,3.94,9.56,6.39,20.53,6.58,31.78h0Zm-8.25-35.6c5.41-2.76,10.32-6.41,14.51-10.83-9.78-8.18-22.67-13.47-36.16-14.41,3.7,2.33,6.9,4.84,10.12,8.25,4.67,4.94,8.43,10.52,11.53,16.98h0Z"/></svg>