<?xml version="1.0" encoding="UTF-8"?><svg id="Signature" xmlns="http://www.w3.org/2000/svg" viewBox="0 0 208.66 72.05"><defs><style>.cls-1{fill:#095797;}.cls-1,.cls-2{fill-rule:evenodd;}.cls-3,.cls-2{fill:#fff;}</style></defs><g><path class="cls-3" d="m83.33,62.55v-13.11h-.1c-.46.43-2.19.46-2.92.46h-1.27v.11c1.46.9,1.26,2.22,1.26,3.88v5.55c0,2.77-2.72,4.72-4.92,4.72-2.89,0-4.1-2.06-4.1-5.37v-9.35h-.1c-.47.43-2.2.46-2.93.46h-1.26v.11c1.46.9,1.27,2.22,1.27,3.88v5.53c0,5.06,2.19,7.47,6.12,7.47,2.33,0,4.72-.82,5.92-2.8v2.39h4.28v-.11c-1.46-.83-1.26-2.16-1.26-3.82Z"/><path class="cls-3" d="m89.97,55.54c.4-2.25,2.06-3.68,4.29-3.68,2.39,0,3.93,1.18,4.29,3.68h-8.59Zm12.08,2.09c.13-4.63-2.96-8.12-7.49-8.12-4.96,0-8.32,3.6-8.32,8.59s3.89,8.86,9.55,8.86c1.57,0,3.16-.25,4.59-.89l1.67-3.38h-.1c-1.53,1.31-3.46,1.92-5.46,1.92-3.76,0-6.59-2.57-6.66-6.98h12.21Z"/><path class="cls-3" d="m104.7,41.83c.79,0,2.42-.05,2.91-.53h.1v22.71c.89.25,1.82.43,2.74.43,3.64,0,5.72-2.54,5.72-6.09s-1.62-6.16-4.96-6.16c-1.06,0-1.89.28-2.78.79l1.79-3.06c.76-.29,1.55-.4,2.35-.4,3.77,0,6.98,3.27,6.98,8.18,0,5.62-3.8,9.26-9.82,9.26-2.25,0-4.41-.4-6.04-.65v-.11c1.1-.5,1-1.69,1-2.88v-16.51c0-1.66.2-3.98-1.23-4.88v-.1s1.24,0,1.24,0Z"/><path class="cls-3" d="m125.45,55.54c.4-2.25,2.06-3.68,4.29-3.68,2.4,0,3.93,1.18,4.29,3.68h-8.59Zm12.08,2.09c.13-4.63-2.96-8.12-7.49-8.12-4.96,0-8.32,3.6-8.32,8.59s3.89,8.86,9.55,8.86c1.56,0,3.16-.25,4.59-.89l1.66-3.38h-.1c-1.53,1.31-3.46,1.92-5.46,1.92-3.76,0-6.59-2.57-6.65-6.98h12.21Z"/><path class="cls-3" d="m152.42,53.63h-.1c-.97-1.19-2.56-1.77-4.06-1.77-3.23,0-5.55,2.45-5.55,5.87,0,4.14,3.23,6.88,6.92,6.88,1.7,0,3.56-.72,4.86-1.76h.1l-1.73,3.4c-1.4.57-2.93.71-4.39.71-5.12,0-9.13-3.61-9.13-8.29,0-6.19,4.47-9.15,9.5-9.15,1.2,0,2.43.14,3.59.43v3.69Z"/><path class="cls-2" d="m97.9,46.54v-3.6c-2.18.98-4.21,2.81-5.56,4.59v1.4c3.24-2.18,5.56-2.28,5.56-2.39Z"/><path class="cls-3" d="m53.31,64.48c-5.03,0-8.52-5.67-8.52-10.49v-.54c.06-4.67,3.08-9.04,8.35-9.04,5.55,0,8.41,5.25,8.45,10.22v.52c0,5.3-3.29,9.33-8.29,9.33Zm17.22,5.51c-3.71.61-7.28-.56-11.07-4.9,3.66-1.84,5.93-6.41,5.93-10.67,0-.04,0-.49,0-.53-.07-7.28-5.53-12.08-12.05-12.08s-12.3,5-12.35,12.33c0,.04,0,.46,0,.49,0,7.14,5.29,12.43,11.78,12.43.93,0,1.83-.14,2.73-.36,4.25,3.98,8.04,5.68,11.32,5.28,1.55-.19,3.19-.81,4.18-2.08l-.46.08Z"/></g><g><path class="cls-3" d="m9.55,3.94c0,1.36-.45,2.7-1.14,3.62-.99,1.34-2.45,2.05-4.15,2.05C1.68,9.62.18,8.11.18,5.64c0-1.35.4-2.61,1.03-3.48C2.26.72,3.68,0,5.5,0c2.57,0,4.05,1.5,4.05,3.94ZM5.34,1.71c-.74,0-1.42.44-1.94,1.3-.41.66-.73,1.73-.73,2.73,0,1.32.66,2.09,1.67,2.09.77,0,1.39-.44,1.96-1.31.4-.62.73-1.69.73-2.7,0-1.35-.62-2.1-1.68-2.1Z"/><path class="cls-3" d="m16.31,1.64c-.26-.12-.49-.16-.71-.16-.69,0-.93.38-1.11,1.11h1.72l-.34,1.65h-1.73l-1.08,5.15h-2.35l1.1-5.15h-1.42l.36-1.65h1.4c.23-1.38.94-2.47,3.03-2.47.5,0,1.01.13,1.51.31l-.36,1.22Z"/><path class="cls-3" d="m22.56,1.64c-.26-.12-.49-.16-.72-.16-.69,0-.93.38-1.11,1.11h1.72l-.34,1.65h-1.73l-1.08,5.15h-2.35l1.1-5.15h-1.42l.36-1.65h1.4c.22-1.38.94-2.47,3.03-2.47.5,0,1.01.13,1.51.31l-.36,1.22Z"/><path class="cls-3" d="m26.05,2.58l-1.48,6.81h-2.31l1.48-6.81h2.31Zm.49-2.37l-.24,1.22h-2.31l.22-1.22h2.33Z"/><path class="cls-3" d="m32.7,4.49c-.5-.24-.99-.36-1.46-.36-1.27,0-2.1.79-2.1,1.96,0,1.02.67,1.67,1.76,1.67.44,0,.87-.1,1.35-.32l-.28,1.8c-.71.18-1.35.28-1.94.28-2.09,0-3.37-1.28-3.37-3.16,0-2.3,1.65-3.96,4.31-3.96.77,0,1.52.15,2.28.45l-.54,1.64Z"/><path class="cls-3" d="m35.47,6.6c.09,1,.65,1.47,1.75,1.47.73,0,1.53-.17,2.31-.52l-.26,1.68c-.81.25-1.65.38-2.51.38-2.14,0-3.41-1.26-3.41-3.19,0-1.11.48-2.26,1.22-2.99.71-.7,1.75-1.07,3.03-1.07,1.89,0,2.92,1.07,2.92,2.94,0,.38-.05.82-.16,1.3h-4.88Zm3.1-1.63c0-.75-.46-1.23-1.19-1.23s-1.34.57-1.6,1.55h2.77c.01-.11.03-.21.03-.32Z"/><path class="cls-3" d="m8.94,13.44l-1.93,9.18h-2.12l.25-1.14c-.66.89-1.51,1.34-2.49,1.34-1.61,0-2.66-1.15-2.66-3.03,0-2.47,1.5-4.15,3.61-4.15.99,0,1.77.46,2.24,1.34l.75-3.53h2.34Zm-4.8,3.96c-.91,0-1.71.98-1.71,2.34,0,.79.48,1.32,1.18,1.32.95,0,1.8-.98,1.8-2.28,0-.83-.53-1.39-1.27-1.39Z"/><path class="cls-3" d="m11.18,19.83c.09,1.01.65,1.47,1.75,1.47.73,0,1.53-.17,2.31-.52l-.26,1.68c-.81.25-1.65.38-2.51.38-2.14,0-3.41-1.26-3.41-3.19,0-1.11.48-2.26,1.22-2.99.72-.7,1.75-1.07,3.03-1.07,1.89,0,2.92,1.07,2.92,2.94,0,.38-.05.82-.16,1.3h-4.88Zm3.1-1.63c0-.75-.46-1.23-1.19-1.23s-1.34.57-1.6,1.55h2.77c.01-.11.03-.21.03-.32Z"/><path class="cls-3" d="m25.32,13.46l-1.98,9.17h-2.35l1.98-9.17h2.35Z"/><path class="cls-3" d="m32.13,20.9c-.1.49-.22,1.06-.28,1.72h-1.97l.13-1.03c-.53.78-1.34,1.18-2.35,1.18-1.4,0-2.28-.82-2.28-2.02,0-1.52,1.4-2.47,4.01-2.47.34,0,.71.03,1.1.07.01-.08.01-.16.01-.22,0-.69-.45-1.06-1.31-1.06-.79,0-1.53.17-2.22.52l.28-1.59c.74-.26,1.48-.4,2.26-.4,2.05,0,3.16.86,3.16,2.17,0,.32-.05.74-.15,1.22l-.4,1.93Zm-2.59-1.42c-1.27,0-1.93.37-1.93,1.06,0,.45.34.77.87.77.82,0,1.56-.66,1.73-1.8-.24-.03-.46-.03-.67-.03Z"/><path class="cls-3" d="m39.4,25.15h-2.38l1.94-9.39h2.13l-.26,1.2c.66-.89,1.51-1.34,2.49-1.34,1.61,0,2.66,1.16,2.66,3.04,0,2.47-1.48,4.14-3.6,4.14-.99,0-1.79-.46-2.25-1.32l-.73,3.67Zm2.96-7.75c-.94,0-1.79.99-1.79,2.22,0,.89.5,1.44,1.26,1.44.91,0,1.71-.99,1.71-2.3,0-.85-.46-1.36-1.18-1.36Z"/><path class="cls-3" d="m52.43,17.77c-.42-.12-.77-.19-1.03-.19-1.08,0-1.56.67-1.86,2.1l-.64,2.94h-2.38l1.39-6.83h2.16l-.25,1.24c.66-.95,1.32-1.4,2.25-1.4.29,0,.58.05.9.15l-.53,1.98Z"/><path class="cls-3" d="m60.71,18.84c0,2.33-1.69,3.98-4.4,3.98-2.18,0-3.49-1.2-3.49-3.11,0-2.44,1.64-4.08,4.37-4.08,2.21,0,3.53,1.22,3.53,3.2Zm-3.67-1.64c-.95,0-1.83,1.03-1.83,2.49,0,.9.54,1.53,1.31,1.53.95,0,1.79-1.03,1.79-2.49,0-.95-.51-1.53-1.27-1.53Z"/><path class="cls-3" d="m65.64,15.82h1.68l-.34,1.63h-1.68l-.5,2.37c-.07.29-.09.49-.09.6,0,.49.21.7.74.7.18,0,.45-.04.78-.13l-.34,1.63c-.54.09-.98.15-1.31.15-1.42,0-2.22-.75-2.22-2.06,0-.24.03-.46.07-.67l.54-2.57h-1.39l.34-1.63h1.39l.34-1.61,2.49-.66-.49,2.27Z"/><path class="cls-3" d="m69.61,19.83c.09,1.01.65,1.47,1.75,1.47.73,0,1.54-.17,2.32-.52l-.26,1.68c-.81.25-1.65.38-2.51.38-2.14,0-3.41-1.26-3.41-3.19,0-1.11.48-2.26,1.22-2.99.71-.7,1.75-1.07,3.03-1.07,1.89,0,2.92,1.07,2.92,2.94,0,.38-.05.82-.16,1.3h-4.88Zm3.1-1.63c0-.75-.46-1.23-1.19-1.23s-1.34.57-1.6,1.55h2.76c.01-.11.03-.21.03-.32Z"/><path class="cls-3" d="m81.52,17.72c-.5-.24-.99-.36-1.46-.36-1.27,0-2.1.79-2.1,1.96,0,1.02.68,1.67,1.76,1.67.44,0,.87-.11,1.35-.32l-.28,1.8c-.71.19-1.35.28-1.94.28-2.09,0-3.37-1.28-3.37-3.16,0-2.3,1.65-3.96,4.31-3.96.77,0,1.52.15,2.28.45l-.54,1.64Z"/><path class="cls-3" d="m86.89,15.82h1.68l-.34,1.63h-1.68l-.5,2.37c-.07.29-.09.49-.09.6,0,.49.21.7.74.7.18,0,.45-.04.78-.13l-.34,1.63c-.54.09-.98.15-1.31.15-1.42,0-2.22-.75-2.22-2.06,0-.24.03-.46.07-.67l.54-2.57h-1.39l.34-1.63h1.39l.34-1.61,2.49-.66-.49,2.27Z"/><path class="cls-3" d="m92.41,15.81l-1.48,6.81h-2.32l1.48-6.81h2.31Zm.49-2.37l-.24,1.22h-2.32l.22-1.22h2.33Z"/><path class="cls-3" d="m101.01,18.84c0,2.33-1.69,3.98-4.41,3.98-2.18,0-3.49-1.2-3.49-3.11,0-2.44,1.64-4.08,4.37-4.08,2.21,0,3.53,1.22,3.53,3.2Zm-3.67-1.64c-.95,0-1.83,1.03-1.83,2.49,0,.9.54,1.53,1.31,1.53.95,0,1.79-1.03,1.79-2.49,0-.95-.52-1.53-1.27-1.53Z"/><path class="cls-3" d="m108.87,22.62h-2.37l.71-3.41c.05-.25.08-.48.08-.67,0-.65-.33-1.01-.86-1.01-.94,0-1.56.74-1.88,2.22l-.61,2.87h-2.38l1.46-6.87h2.13l-.26,1.22c.77-.87,1.64-1.32,2.59-1.32,1.4,0,2.22.86,2.22,2.38,0,.44-.08,1.06-.25,1.88l-.58,2.71Z"/><path class="cls-3" d="m8.94,26.67l-1.93,9.18h-2.12l.25-1.14c-.66.89-1.51,1.34-2.49,1.34-1.61,0-2.66-1.15-2.66-3.03,0-2.47,1.5-4.15,3.61-4.15.99,0,1.77.46,2.24,1.34l.75-3.53h2.34Zm-4.8,3.96c-.91,0-1.71.98-1.71,2.34,0,.79.48,1.32,1.18,1.32.95,0,1.8-.98,1.8-2.28,0-.83-.53-1.39-1.27-1.39Z"/><path class="cls-3" d="m12.38,29.05l-.71,3.41c-.05.24-.08.46-.08.67,0,.66.32,1.02.9,1.02.86,0,1.52-.75,1.84-2.24l.61-2.87h2.38l-1.46,6.8h-2.13l.26-1.15c-.77.87-1.64,1.32-2.59,1.32-1.4,0-2.22-.85-2.22-2.37,0-.45.08-1.08.25-1.89l.57-2.71h2.38Z"/><path class="cls-3" d="m27.95,30.94c-.5-.24-.99-.36-1.46-.36-1.27,0-2.1.79-2.1,1.96,0,1.02.67,1.67,1.76,1.67.44,0,.87-.1,1.35-.32l-.28,1.8c-.71.19-1.35.28-1.94.28-2.09,0-3.37-1.28-3.37-3.16,0-2.3,1.65-3.96,4.31-3.96.77,0,1.52.15,2.28.45l-.54,1.64Z"/><path class="cls-3" d="m36.49,32.07c0,2.33-1.69,3.98-4.4,3.98-2.18,0-3.49-1.2-3.49-3.11,0-2.43,1.64-4.08,4.37-4.08,2.21,0,3.53,1.22,3.53,3.2Zm-3.67-1.64c-.95,0-1.83,1.03-1.83,2.49,0,.9.54,1.53,1.31,1.53.95,0,1.79-1.03,1.79-2.49,0-.95-.51-1.53-1.27-1.53Z"/><path class="cls-3" d="m44.35,35.85h-2.37l.72-3.41c.05-.25.08-.48.08-.67,0-.65-.33-1.01-.86-1.01-.94,0-1.56.74-1.88,2.22l-.61,2.87h-2.38l1.46-6.87h2.13l-.26,1.22c.77-.87,1.64-1.32,2.59-1.32,1.4,0,2.22.86,2.22,2.38,0,.44-.08,1.06-.25,1.88l-.58,2.71Z"/><path class="cls-3" d="m51.83,30.76c-.68-.22-1.24-.38-1.8-.38-.69,0-1.06.25-1.06.62,0,.48.54.53,1.4.89.95.4,1.39.9,1.39,1.68,0,1.44-1.19,2.47-3.21,2.47-.93,0-1.83-.13-2.71-.44l.49-1.64c.65.32,1.27.46,1.9.46.78,0,1.19-.23,1.19-.61,0-.48-.4-.57-.99-.81-1.11-.45-1.71-.87-1.71-1.92,0-1.23,1.18-2.24,3.23-2.24.75,0,1.55.15,2.39.41l-.52,1.49Z"/><path class="cls-3" d="m60.8,32.07c0,2.33-1.69,3.98-4.41,3.98-2.18,0-3.49-1.2-3.49-3.11,0-2.43,1.64-4.08,4.37-4.08,2.21,0,3.53,1.22,3.53,3.2Zm-3.67-1.64c-.95,0-1.83,1.03-1.83,2.49,0,.9.54,1.53,1.31,1.53.95,0,1.79-1.03,1.79-2.49,0-.95-.52-1.53-1.27-1.53Z"/><path class="cls-3" d="m72.35,35.85h-2.26l.71-3.41c.08-.36.12-.63.12-.85,0-.5-.28-.81-.71-.81-.36,0-.68.16-.91.46-.4.5-.45,1.1-.58,1.73l-.61,2.87h-2.41l.73-3.41c.08-.36.11-.66.11-.93,0-.46-.25-.73-.71-.73-.73,0-1.14.56-1.38,1.68l-.73,3.39h-2.41l1.46-6.87h2.04l-.26,1.24c.75-.9,1.48-1.35,2.38-1.35.98,0,1.59.45,1.87,1.34.74-.91,1.44-1.34,2.43-1.34,1.27,0,2.08.81,2.08,2.14,0,.41-.05.73-.09.93l-.85,3.9Z"/><path class="cls-3" d="m85,35.85h-2.26l.71-3.41c.08-.36.12-.63.12-.85,0-.5-.28-.81-.71-.81-.36,0-.68.16-.91.46-.4.5-.45,1.1-.58,1.73l-.61,2.87h-2.41l.73-3.41c.08-.36.11-.66.11-.93,0-.46-.25-.73-.71-.73-.73,0-1.14.56-1.38,1.68l-.73,3.39h-2.41l1.46-6.87h2.04l-.26,1.24c.75-.9,1.48-1.35,2.38-1.35.98,0,1.59.45,1.86,1.34.74-.91,1.44-1.34,2.43-1.34,1.27,0,2.08.81,2.08,2.14,0,.41-.05.73-.09.93l-.85,3.9Z"/><path class="cls-3" d="m93.57,34.13c-.11.49-.22,1.06-.28,1.72h-1.97l.13-1.03c-.53.78-1.34,1.18-2.36,1.18-1.4,0-2.28-.82-2.28-2.02,0-1.52,1.4-2.47,4.01-2.47.34,0,.71.03,1.1.07.01-.08.01-.16.01-.22,0-.69-.45-1.06-1.31-1.06-.79,0-1.54.17-2.22.52l.28-1.59c.74-.26,1.48-.4,2.26-.4,2.05,0,3.16.86,3.16,2.17,0,.32-.05.74-.14,1.22l-.4,1.93Zm-2.59-1.42c-1.27,0-1.93.37-1.93,1.06,0,.45.34.77.87.77.82,0,1.56-.66,1.73-1.8-.24-.03-.46-.03-.67-.03Z"/><path class="cls-3" d="m99.12,29.05h1.68l-.34,1.63h-1.68l-.5,2.37c-.07.29-.09.49-.09.6,0,.49.21.7.74.7.18,0,.45-.04.78-.13l-.34,1.63c-.54.09-.98.15-1.31.15-1.42,0-2.22-.76-2.22-2.06,0-.24.03-.46.07-.67l.54-2.57h-1.39l.34-1.63h1.39l.34-1.61,2.49-.66-.49,2.28Z"/><path class="cls-3" d="m103.09,33.06c.09,1.01.65,1.47,1.75,1.47.73,0,1.53-.17,2.32-.52l-.27,1.68c-.81.25-1.65.38-2.51.38-2.14,0-3.41-1.26-3.41-3.19,0-1.11.48-2.26,1.22-2.99.71-.7,1.75-1.07,3.03-1.07,1.89,0,2.92,1.07,2.92,2.94,0,.38-.05.82-.16,1.3h-4.88Zm3.1-1.63c0-.75-.46-1.23-1.19-1.23s-1.34.57-1.6,1.55h2.77c.01-.11.03-.21.03-.32Z"/><path class="cls-3" d="m112.37,29.05l-.71,3.41c-.05.24-.08.46-.08.67,0,.66.32,1.02.9,1.02.86,0,1.52-.75,1.84-2.24l.61-2.87h2.38l-1.46,6.8h-2.13l.27-1.15c-.77.87-1.64,1.32-2.59,1.32-1.4,0-2.22-.85-2.22-2.37,0-.45.08-1.08.25-1.89l.57-2.71h2.38Z"/><path class="cls-3" d="m123.54,31c-.42-.12-.77-.19-1.03-.19-1.09,0-1.56.67-1.87,2.1l-.63,2.94h-2.38l1.39-6.83h2.16l-.25,1.24c.66-.95,1.32-1.4,2.25-1.4.29,0,.58.05.9.15l-.53,1.98Z"/></g><g><path class="cls-1" d="m162.45,35.87v12.36h20.16v-12.36h-20.16Zm15,7.11c-.24.77-.67,1.02-.79,1.02,0,0,.2-.84-.41-1.27-.57-.41-1.28-.16-1.61.32-.31.46-.36,1.09-.36,1.09h1.05v.78h-2.11s.05,1.1,1.21.99c0,0-.14.86-1.21.41,0,0,.05.9-.68,1.36-.74-.46-.68-1.36-.68-1.36-1.07.45-1.21-.41-1.21-.41,1.15.11,1.21-.99,1.21-.99h-2.11s0-.78,0-.78h1.05s-.05-.63-.36-1.09c-.33-.48-1.04-.73-1.61-.32-.61.43-.41,1.27-.41,1.27-.12,0-.55-.26-.8-1.02-.46-1.46.98-2.86,2.45-2.05,1.03.57,1.45,1.85,1.45,3.22h.56c-.02.1.13-1.02-.09-1.85-.16-.58-.36-1.18-.71-1.91-.3-.64-.42-1.71.23-2.51.55-.7.88-1.09,1.03-1.36.15.27.48.66,1.03,1.36.65.8.53,1.87.23,2.51-.35.73-.55,1.34-.71,1.91-.22.84-.08,1.95-.09,1.85h.56c0-1.36.42-2.65,1.45-3.22,1.46-.81,2.9.6,2.45,2.05Z"/><path class="cls-1" d="m188.49,35.87v12.36h20.17v-12.36h-20.17Zm14.99,7.11c-.24.77-.67,1.02-.78,1.02,0,0,.19-.84-.41-1.27-.57-.41-1.28-.16-1.61.32-.31.46-.36,1.09-.36,1.09h1.06v.78h-2.12s.06,1.1,1.22.99c0,0-.15.86-1.22.41,0,0,.06.9-.67,1.36-.74-.46-.68-1.36-.68-1.36-1.07.45-1.21-.41-1.21-.41,1.15.11,1.21-.99,1.21-.99h-2.11s0-.78,0-.78h1.05s-.05-.63-.36-1.09c-.33-.48-1.04-.73-1.61-.32-.61.43-.41,1.27-.41,1.27-.12,0-.55-.26-.79-1.02-.46-1.46.98-2.86,2.44-2.05,1.03.57,1.46,1.85,1.46,3.22h.56c-.02.1.13-1.02-.09-1.85-.16-.58-.36-1.18-.71-1.91-.31-.64-.42-1.71.22-2.51.56-.7.89-1.09,1.04-1.36.14.27.48.66,1.03,1.36.64.8.53,1.87.23,2.51-.35.73-.56,1.34-.71,1.91-.23.84-.08,1.95-.09,1.85h.56c0-1.36.42-2.65,1.45-3.22,1.46-.81,2.9.6,2.44,2.05Z"/></g><g><path class="cls-1" d="m162.45,66.47h20.16v-12.36h-20.16v12.36Zm7.62-7.3c1.03.57,1.45,1.86,1.45,3.22h.56c-.02.1.13-1.02-.09-1.85-.16-.58-.36-1.18-.71-1.91-.3-.63-.42-1.71.23-2.51.55-.7.88-1.08,1.03-1.36.15.27.48.66,1.03,1.36.65.8.53,1.87.23,2.51-.35.73-.55,1.34-.71,1.91-.22.83-.08,1.95-.09,1.85h.56c0-1.36.42-2.65,1.45-3.22,1.46-.81,2.9.6,2.45,2.05-.24.76-.67,1.02-.79,1.02,0,0,.2-.84-.41-1.28-.57-.4-1.28-.16-1.61.32-.31.46-.36,1.09-.36,1.09h1.05v.78h-2.11s.05,1.09,1.21.99c0,0-.14.86-1.21.41,0,0,.05.91-.68,1.36-.74-.46-.68-1.36-.68-1.36-1.07.46-1.21-.41-1.21-.41,1.15.11,1.21-.99,1.21-.99h-2.11s0-.78,0-.78h1.05s-.05-.63-.36-1.09c-.33-.48-1.04-.72-1.61-.32-.61.43-.41,1.28-.41,1.28-.12,0-.55-.26-.8-1.02-.46-1.46.98-2.87,2.45-2.05Z"/><path class="cls-1" d="m188.49,54.11v12.36h20.17v-12.36h-20.17Zm14.99,7.11c-.24.76-.67,1.02-.78,1.02,0,0,.19-.84-.41-1.28-.57-.4-1.28-.16-1.61.32-.31.46-.36,1.09-.36,1.09h1.06v.78h-2.12s.06,1.09,1.22.99c0,0-.15.86-1.22.41,0,0,.06.91-.67,1.36-.74-.46-.68-1.36-.68-1.36-1.07.46-1.21-.41-1.21-.41,1.15.11,1.21-.99,1.21-.99h-2.11s0-.78,0-.78h1.05s-.05-.63-.36-1.09c-.33-.48-1.04-.72-1.61-.32-.61.43-.41,1.28-.41,1.28-.12,0-.55-.26-.79-1.02-.46-1.46.98-2.87,2.44-2.05,1.03.57,1.46,1.86,1.46,3.22h.56c-.02.1.13-1.02-.09-1.85-.16-.58-.36-1.18-.71-1.91-.31-.63-.42-1.71.22-2.51.56-.7.89-1.08,1.04-1.36.14.27.48.66,1.03,1.36.64.8.53,1.87.23,2.51-.35.73-.56,1.34-.71,1.91-.23.83-.08,1.95-.09,1.85h.56c0-1.36.42-2.65,1.45-3.22,1.46-.81,2.9.6,2.44,2.05Z"/></g></svg>