<?xml version="1.0" encoding="UTF-8"?><svg id="Layer_1" xmlns="http://www.w3.org/2000/svg" viewBox="0 0 316.32 44.43"><defs><style>.cls-1,.cls-2{fill:#fff;}.cls-2{stroke:#fff;stroke-width:3px;}</style></defs><path class="cls-1" d="m275.84,29.27l-1.84-7.48c3.33-.66,7.18-4.73,8.26-9.72,1.68-7.73-3-11.13-10.16-11.13h-16.56l-6.13,28.22h-18.73l1.36-6.24h12.48l1.73-7.97h-12.48l1.31-6.05h15.31l1.73-7.97h-33.45l-13.51,22.02-4.06-22.02h-12.02l-14.99,24.9c-.1-3.23-1.29-6.1-3.11-8.26-2.28-2.7-4.92-3.66-3.92-7.16.65-2.29,6.57-2.63,9.41.25l1.45-8.84s-4.84-1.81-8.49-1.81c-5.75,0-10.4,2.71-12.3,6.78-1.51,3.22-2.4,5.45.07,10.68,1.39,2.95,6.89,6.86,6.31,9.5-.29,1.33-.8,1.92-1.53,2.19h-18.49l6.13-28.22h-9.41l-6.13,28.22h-18.9l1.35-6.24h12.48l1.73-7.97h-12.48l1.31-6.05h15.31l1.73-7.97h-33.45l-13.51,22.02L85.59.93h-12.02l-18.25,30.32-2.33-9.47c3.33-.66,7.18-4.73,8.26-9.72,1.68-7.73-3-11.13-10.16-11.13H5.59l-1.73,7.97h10.27l-6.13,28.22h9.41l6.13-28.22h9.27l-6.13,28.22h9.41l4.02-17.92h1.35l3.61,17.92h16.72l6.49-10.41h11.78l1.29,10.41h10.03v-.06S111.08,4.7,111.08,4.7l-7.04,32.41h73.24l6.49-10.41h11.78l1.29,10.41h10.03v-.06s19.72-32.35,19.72-32.35l-7.04,32.41h37.55l4.02-17.92h1.35l3.61,17.92h27.02c5.12,0,9.58-4.95,9.77-10.32.12-3.62-1.12-6.85-3.12-9.22-2.28-2.7-4.92-3.66-3.92-7.16.65-2.29,6.57-2.63,9.41.25l1.45-8.84s-4.84-1.81-8.49-1.81c-5.75,0-10.4,2.71-12.3,6.78-1.51,3.22-2.4,5.45.07,10.68,1.39,2.95,6.89,6.86,6.31,9.5-.55,2.54-1.39,2.27-3.6,2.27l-12.82.04ZM48.84,12.64c-.85,3.94-4.43,4.51-7.51,4.51h-.91l1.96-9.02h.91c3.07,0,6.4.58,5.55,4.51Zm24.29,4.86l3.05-6.14h1.85l.73,6.14h-5.63Zm115.5,0l3.05-6.14h1.85l.73,6.14h-5.63Zm73.7-.35h-.91l1.96-9.02h.91c3.07,0,6.4.58,5.55,4.51-.85,3.94-4.44,4.51-7.51,4.51Z"/><line class="cls-2" y1="42.93" x2="306.5" y2="42.93"/><path class="cls-1" d="m308.67,6.7c0-1.99,1.5-3.48,3.42-3.48s3.39,1.49,3.39,3.48-1.49,3.49-3.39,3.49-3.42-1.48-3.42-3.49Zm3.42,4.19c2.29,0,4.23-1.77,4.23-4.19s-1.94-4.18-4.23-4.18-4.27,1.77-4.27,4.18,1.95,4.19,4.27,4.19Zm-.89-3.86h.85l1.28,2.09h.82l-1.38-2.12c.71-.09,1.26-.47,1.26-1.33,0-.96-.57-1.38-1.71-1.38h-1.85v4.84h.73v-2.09Zm0-.62v-1.5h1c.51,0,1.06.11,1.06.71,0,.75-.56.79-1.18.79h-.88Z"/></svg>